<svg id="Layer_1" data-name="Layer 1" xmlns="http://www.w3.org/2000/svg" viewBox="0 0 465 465"><defs><style>.cls-1{fill:#494949;}</style></defs><title>CV-icon-grey</title><path class="cls-1" d="M468.67,47.09H103A49.82,49.82,0,0,0,53.34,96.77V462.41A49.83,49.83,0,0,0,103,512.09H468.67a49.82,49.82,0,0,0,49.67-49.68V96.77A49.82,49.82,0,0,0,468.67,47.09ZM220.57,236.15q-10.51-9.53-27.65-9.53-17.46,0-28,9.53t-10.52,25.31v71.75q0,15.48,10.52,25t28,9.52q17.15,0,27.65-9.52t10.51-25a3.06,3.06,0,0,1,1.46-2.53,5.73,5.73,0,0,1,4-.75l34.6,1.49q5.51.6,5.5,1.49v1.49q0,20.53-10.51,36.32t-29.43,24.41q-18.92,8.64-43.82,8.64-25.23,0-44.31-9.08t-29.43-25.46q-10.35-16.37-10.35-37.81V262.65q0-21.43,10.35-37.81t29.43-25.31q19.08-8.92,44.31-8.93,24.9,0,43.82,8.49t29.43,24.11q10.5,15.63,10.51,36.17c0,1.79-1.73,2.88-5.17,3.28l-34.61,2.08h-1.29c-3,0-4.53-.49-4.53-1.49v-1.78Q231.08,245.68,220.57,236.15Zm256.62-37.51L410.57,397.22a6.06,6.06,0,0,1-6.15,4.17H366.91a6.06,6.06,0,0,1-6.15-4.17L295.11,198.64a3.81,3.81,0,0,1-.32-1.79c0-2.57,1.62-3.87,4.85-3.87h37.51a6.06,6.06,0,0,1,6.15,4.17l42.37,143.5c.21.8.64,1.19,1.29,1.19s1.08-.39,1.29-1.19L430,197.45q1.62-4.47,6.15-4.47h36.54a5.07,5.07,0,0,1,4.21,1.64A3.78,3.78,0,0,1,477.19,198.64Z" transform="translate(-53.34 -47.09)"/></svg>