<svg id="Layer_1" data-name="Layer 1" xmlns="http://www.w3.org/2000/svg" viewBox="0 0 466 466"><defs><style>.cls-1{stroke:#000;stroke-miterlimit:10;}</style></defs><title>Pr</title><path class="cls-1" d="M241.05,227.37H203.47a1.58,1.58,0,0,0-1.79,1.78v53.93a1.58,1.58,0,0,0,1.79,1.78h37.58q13.71,0,22.06-7.85t8.35-20.6q0-13-8.35-21T241.05,227.37Z" transform="translate(-54 -55.33)"/><path class="cls-1" d="M469.82,55.83H104.18A49.82,49.82,0,0,0,54.5,105.51V471.16a49.82,49.82,0,0,0,49.68,49.67H469.82a49.82,49.82,0,0,0,49.68-49.67V105.51A49.82,49.82,0,0,0,469.82,55.83ZM304.71,288.42a57.81,57.81,0,0,1-23.85,22.08q-15.37,7.85-35.34,7.85H203.47a1.58,1.58,0,0,0-1.79,1.78v73.79q0,5-5.07,5h-31.9c-3.39,0-5.07-1.68-5.07-5V196.25c0-3.35,1.68-5,5.07-5h82.6q19.68,0,34.59,8A56.57,56.57,0,0,1,305,221.89q8.21,14.67,8.2,33.63Q313.21,274.2,304.71,288.42Zm126.58-34.08-5.66,31.11c-.2,1.78-.75,2.87-1.64,3.26a7.69,7.69,0,0,1-4.33,0,36.65,36.65,0,0,0-8.64-1.18,64.4,64.4,0,0,0-6.86.59A29.36,29.36,0,0,0,386,296q-7.46,7-7.46,18.53v79.42q0,5-5.07,5h-31.9c-3.39,0-5.07-1.68-5.07-5V251.67c0-3.36,1.68-5,5.07-5h31.9q5.07,0,5.07,5v9.19c0,.79.2,1.28.6,1.48s.89,0,1.49-.59q11.92-17.19,32.21-17.19,9.54,0,15.8,3.55C431,249.3,431.89,251.37,431.29,254.34Z" transform="translate(-54 -55.33)"/></svg>