<svg id="Layer_1" data-name="Layer 1" xmlns="http://www.w3.org/2000/svg" viewBox="0 0 1278.43 1278.43"><defs><style>.cls-1{fill:#fff;}.cls-2{fill:#3cc4d2;}.cls-3{fill:#f8a297;}.cls-4{fill:#ed1a2f;}.cls-5{fill:#e90000;}</style></defs><title>babylon white</title><rect class="cls-1" width="1278.43" height="1278.43"/><path class="cls-2" d="M1047,348.49c-57,121.86-173.3,205.78-301.94,229.16-116.65,21.65-244.64-1.51-341.4,82.06-54.71,44.52-45.75,123.9-53.56,188.57l11.29,2.05c37.93-59.23,135.44-61,197.68-104.19-61.66,60.45-129.38,128.93-210.26,167.32a473.3,473.3,0,0,0,273.4,155.12c258.31,46.74,505.61-124.77,552.35-383.08,26.73-147.71-17.93-291.8-109.36-396.87A274.63,274.63,0,0,1,1047,348.49Z"/><path class="cls-3" d="M178,476.8a473.36,473.36,0,0,0,6,197.8C284.53,621.7,379.29,558,477.6,497c82.42-47.29,175.17-22.73,263.08-57.36,0,0,29.07-10.29,37.28-12.69C840.88,380,894.91,339.26,951,287.2c15.65-13.64,31.66-29.33,45.07-47A473.19,473.19,0,0,0,730.38,93.72"/><path class="cls-3" d="M730.38,93.72C472.07,47,224.77,218.49,178,476.8"/><path class="cls-2" d="M882.32,601.91a56.54,56.54,0,0,1-15.54,8.18l-28.88,9.83C750,654.55,657.25,630,574.82,677.28c-98.31,61-193.07,124.7-293.57,177.61a477,477,0,0,0,103.67,199.43C465.81,1015.94,533.53,947.46,595.19,887,533,930.17,435.43,932,397.5,991.19l-11.29-2c7.82-64.68-1.14-144,53.56-188.58,96.77-83.57,224.75-60.41,341.41-82.06,128.63-23.37,244.9-107.3,301.94-229.15a275.43,275.43,0,0,0,18.2-59.87q-4-4.55-8-9c-13.41,17.65-29.42,33.33-45.07,47C994.26,517.56,942.21,557.19,882.32,601.91Z"/><path class="cls-4" d="M186.54,756.91c4.09,221.87,163.93,417.41,390.65,458.43a477.12,477.12,0,0,0,98,7.49c-2.18-.84-4.36-1.67-6.52-2.6-118.09-56.36-131.9-194.92-92-308.21,30.05-80.09,126.84-120.89,119.92-211.55-4.15-63-98.94-76.22-146.48-49.84-72.85,37.36-132,85-207.94,117.88-46.55,20.17-110.13,18.29-155.64-11.6"/><path class="cls-5" d="M272.42,761.06c-14.58-23.42-12.65-55.53,5.39-76.63l-10-2.65L272.64,706c1.54,7.67,12.74,4.3,11.57-3.19q-2.43-15.58-4.87-31.17c-.76-4.92-7-5.16-10-2.64a230.48,230.48,0,0,1-35.2,23.66c-6.77,3.71-.73,14.08,6,10.36a246.15,246.15,0,0,0,37.63-25.54l-10-2.65q2.44,15.58,4.87,31.17l11.57-3.19q-2.43-12.12-4.85-24.26c-.86-4.27-7.18-6-10-2.64-21.49,25.13-24.83,62.95-7.27,91.17,4.07,6.54,14.46.53,10.36-6.06Z"/><path class="cls-5" d="M880.21,381c24.64,7.29,45.07,24.85,58.52,46.49,15.44,24.83,21.85,54,23.41,82.94.3,5.56,8.31,8.66,11.18,3l12.29-24.07-11-4.62L963,514.42,974,513a67.87,67.87,0,0,0-35.38-29.37c-7.25-2.68-10.38,8.91-3.19,11.58A54.84,54.84,0,0,1,963.61,519c2.82,4.8,9.15,3.18,11-1.43L986.21,488c2.48-6.32-7.89-10.64-11-4.62q-6.15,12-12.29,24.07l11.18,3c-1.7-31.45-8.71-63.46-25.86-90.3-15.15-23.69-37.7-42.66-64.88-50.7-7.43-2.2-10.6,9.38-3.19,11.57Z"/><path class="cls-5" d="M722.87,726.11a106.64,106.64,0,0,0,23.81-92.47l-8.82,6.78a23.37,23.37,0,0,1,9.5,18.52l11.79-1.6a95.28,95.28,0,0,0-9.93-25c-2.44-4.27-7.76-3.44-10.36,0l-20,26.51c-4.65,6.16,5.76,12.15,10.37,6.06l20-26.51H738.86a83.67,83.67,0,0,1,8.72,22.14c1.57,6.57,11.95,5.19,11.78-1.59a36.12,36.12,0,0,0-15.44-28.88c-4.56-3.31-9.82,2.13-8.81,6.77a93.91,93.91,0,0,1-20.73,80.79c-5.06,5.8,3.4,14.32,8.49,8.49Z"/><path class="cls-1" d="M809.82,884.39c10.23-11,21.71-6.67,37.1-4.35,13.21,2,26.21-1.66,25.35-8.72C870.9,859.88,869,854.78,864.6,840c-3.5-11.77-10.13-33-16.18-53.27-8.08-27.12-10.43-39.73.35-42.88,11.6-3.34,18.25,13,24.28,35.59,6.87,25.77,10.48,37.13,12.49,36.53,3.56-1-1.3-12,8-14.74,11.64-3.35,13.91,5.66,17.17,4.76s2.15-10.11,11.44-12.78,14,8.71,17.9,7.57,3.71-5.22,9.47-6.85,27.48,7.91,39.9,49.93c15.58,52.82-2,62.63,3.34,80.51L923.2,950.53c-5.63-13.41-23.08-14.39-38.51-22.95S858.57,902,818.05,902.85C802.81,903.15,803.52,891.13,809.82,884.39Z"/><path class="cls-1" d="M841.35,791.46c-1.69-5.69-3.32-11.38-4.54-16.83a26.88,26.88,0,0,1-13.51-23.18,27.28,27.28,0,0,1,54.55,0,26.53,26.53,0,0,1-.71,5.94A130.74,130.74,0,0,1,883.7,776a40.44,40.44,0,0,0,8.4-24.54,41.53,41.53,0,1,0-50.75,40Z"/><path class="cls-1" d="M971.27,701.81a25.85,25.85,0,0,0-6.19-9.11,26.34,26.34,0,0,0-8.51-5.62q-4.77-1.94-12.79-4.3V653.93a15.28,15.28,0,0,1,10.28,11.51q1.89,7.37,8.24,7.36a7.55,7.55,0,0,0,5.73-2.53,8.51,8.51,0,0,0,2.36-6,18,18,0,0,0-1.58-6.87,30.33,30.33,0,0,0-4.51-7.27,23.42,23.42,0,0,0-8.64-6.93,38.27,38.27,0,0,0-11.89-3v-7.5q0-5.68-4.14-5.69c-2.72,0-4.09,1.95-4.09,5.82v7.36q-13.39,1.25-20.49,8.87T908,668.59q0,9.15,3.62,15a25.13,25.13,0,0,0,9.46,9,75.92,75.92,0,0,0,14.49,5.71V730.5a17.13,17.13,0,0,1-6.95-3.82,16.52,16.52,0,0,1-3.92-5.52,87.08,87.08,0,0,1-3-8.7,7.52,7.52,0,0,0-2.8-4.09,8.11,8.11,0,0,0-4.92-1.46,7.91,7.91,0,0,0-6,2.66,8.75,8.75,0,0,0-2.43,6,25.13,25.13,0,0,0,1.82,9.19,30.31,30.31,0,0,0,5.6,9,31.58,31.58,0,0,0,9.45,7.24,38.62,38.62,0,0,0,13.23,3.82v8.42a9.13,9.13,0,0,0,1,4.7,3.56,3.56,0,0,0,3.27,1.54,3.16,3.16,0,0,0,3.28-1.88,17.32,17.32,0,0,0,.75-6v-6.94a34.77,34.77,0,0,0,16-5.21A28.49,28.49,0,0,0,970,728.24a32.69,32.69,0,0,0,3.47-14.81A31.21,31.21,0,0,0,971.27,701.81Zm-35.73-21.58a26,26,0,0,1-8.67-5.11c-1.9-1.88-2.85-4.62-2.85-8.29,0-3.83,1-6.7,3-8.59a22,22,0,0,1,8.48-4.57Zm18.33,45.33a17.32,17.32,0,0,1-10.1,5.62V700.82c4.5,1.52,7.89,3.39,10.19,5.58s3.47,5.31,3.47,9.31A14.72,14.72,0,0,1,953.87,725.56Z"/><path class="cls-1" d="M561.87,235.56"/><path class="cls-1" d="M542.11,295.83h0a13.49,13.49,0,0,1-11.71-6.7l-39.85-69.31a10,10,0,0,1,0-9.71,9.55,9.55,0,0,1,8.37-4.69h13.73v6.7H498.92a3.3,3.3,0,0,0-2.68,1.34,3,3,0,0,0,0,3l39.85,69a7,7,0,0,0,6,3.35h0a7.48,7.48,0,0,0,6-3.35l39.85-69a3.13,3.13,0,0,0,0-3,3.3,3.3,0,0,0-2.68-1.34H571.92v-6.7h13.72a9.55,9.55,0,0,1,8.37,4.69,10,10,0,0,1,0,9.71l-40.18,69.31A12.82,12.82,0,0,1,542.11,295.83Z"/><circle class="cls-1" cx="522.02" cy="209.11" r="9.38"/><path class="cls-1" d="M522,222.17a12.73,12.73,0,1,1,12.73-12.73A12.52,12.52,0,0,1,522,222.17Zm0-19.09a6,6,0,1,0,6,6C528.39,205.76,525.71,203.08,522,203.08Z"/><circle class="cls-1" cx="562.21" cy="209.11" r="9.38"/><path class="cls-1" d="M562.21,222.17a12.73,12.73,0,1,1,12.72-12.73A12.52,12.52,0,0,1,562.21,222.17Zm0-19.09a6,6,0,1,0,6,6C568.57,205.76,565.89,203.08,562.21,203.08Z"/><rect class="cls-1" x="538.77" y="293.15" width="6.7" height="56.92"/><path class="cls-1" d="M513.65,380.54a31.81,31.81,0,0,1,0-63.62v6.7a25.12,25.12,0,1,0,25.12,25.11h6.69A31.79,31.79,0,0,1,513.65,380.54Z"/><rect class="cls-1" x="513.32" y="316.92" width="88.4" height="6.7"/><circle class="cls-1" cx="613.44" cy="320.27" r="11.72"/><path class="cls-1" d="M613.44,335.34a15.07,15.07,0,1,1,15.06-15.07A15.22,15.22,0,0,1,613.44,335.34Zm0-23.44a8.37,8.37,0,1,0,8.37,8.37A8.51,8.51,0,0,0,613.44,311.9Z"/><path class="cls-1" d="M375.38,920.34l11.31-26.49,12,38.82,5.45-12.11h15.33l9.2-31,15.4,45.64,6.7-14.88h45.06a63,63,0,0,0,3.86-24.65c-1.88-32.62-25-48.73-47.13-48.73-15.94,0-29.65,11.39-36.08,27.82C410.07,858.35,396.36,847,380.42,847c-22.08,0-45.25,16.11-47.13,48.73a63,63,0,0,0,3.86,24.65Z"/><path class="cls-1" d="M509.3,928.13H475.66v.07H455.87l-12.82,28.5-13.88-41.13-3.81,12.85H409.24l-11.89,26.41-11.84-38.22-4.95,11.59H359.19v-.07H324V936h20.47c22.72,39.77,72.08,71.47,72.08,71.47s49.36-31.7,72.08-71.47H509.3Z"/></svg>