<svg id="Layer_1" data-name="Layer 1" xmlns="http://www.w3.org/2000/svg" viewBox="0 0 1011.84 1136.96"><defs><style>.cls-1{fill:#3cc4d2;}.cls-2{fill:#f8a297;}.cls-3{fill:#ed1a2f;}.cls-4{fill:#e90000;}.cls-5{fill:#fff;}</style></defs><title>babylon</title><path class="cls-1" d="M1052.42,321.43c-57,121.85-173.31,205.78-301.94,229.15-116.66,21.66-244.64-1.5-341.4,82.06-54.71,44.53-45.75,123.9-53.57,188.58l11.3,2c37.93-59.22,135.44-61,197.68-104.18C502.83,779.53,435.11,848,354.22,886.39a473.3,473.3,0,0,0,273.41,155.12c258.31,46.75,505.61-124.76,552.35-383.08,26.73-147.71-17.93-291.8-109.36-396.86A275.34,275.34,0,0,1,1052.42,321.43Z" transform="translate(-175.81 -58.98)"/><path class="cls-2" d="M183.47,449.74a473.53,473.53,0,0,0,6,197.8C290,594.63,384.73,531,483.05,469.93c82.42-47.28,175.17-22.73,263.07-57.36,0,0,29.08-10.29,37.29-12.69,62.92-46.93,116.94-87.69,173-139.74,15.66-13.65,31.67-29.33,45.08-47A473.07,473.07,0,0,0,735.83,66.66" transform="translate(-175.81 -58.98)"/><path class="cls-2" d="M735.83,66.66C477.52,19.91,230.22,191.42,183.47,449.74" transform="translate(-175.81 -58.98)"/><path class="cls-1" d="M887.77,574.84A56.3,56.3,0,0,1,872.23,583l-28.89,9.83c-87.9,34.63-180.65,10.07-263.07,57.36-98.31,61-193.07,124.7-293.57,177.6a477,477,0,0,0,103.67,199.43C471.26,988.87,539,920.39,600.63,859.94,538.4,903.11,440.88,904.9,403,964.12l-11.29-2c7.82-64.67-1.15-144.05,53.56-188.57C542,689.94,670,713.1,786.63,691.45c128.63-23.38,244.89-107.3,301.93-229.16a275.18,275.18,0,0,0,18.21-59.86q-4-4.55-8-9c-13.41,17.65-29.42,33.34-45.07,47C999.71,490.5,947.66,530.12,887.77,574.84Z" transform="translate(-175.81 -58.98)"/><path class="cls-3" d="M192,729.85c4.1,221.87,163.93,417.4,390.66,458.43a477.06,477.06,0,0,0,98,7.49c-2.18-.84-4.36-1.67-6.53-2.6C556,1136.81,542.19,998.24,582.13,885c30-80.09,126.84-120.89,119.92-211.56-4.16-62.95-98.95-76.22-146.48-49.83-72.85,37.36-132,85-207.94,117.87C301.08,761.62,237.5,759.74,192,729.85" transform="translate(-175.81 -58.98)"/><path class="cls-4" d="M277.87,734c-14.58-23.42-12.65-55.53,5.39-76.63l-10-2.65L278.09,679c1.53,7.67,12.74,4.29,11.57-3.19q-2.43-15.59-4.87-31.17c-.77-4.92-7-5.16-10-2.65a229.66,229.66,0,0,1-35.19,23.66c-6.78,3.72-.73,14.09,6.05,10.36a246.58,246.58,0,0,0,37.63-25.53l-10-2.65q2.43,15.59,4.87,31.17l11.57-3.19-4.86-24.26c-.85-4.27-7.18-6-10-2.65-21.49,25.13-24.84,63-7.27,91.18,4.07,6.54,14.46.52,10.36-6.06Z" transform="translate(-175.81 -58.98)"/><path class="cls-4" d="M885.65,353.93c24.65,7.29,45.08,24.85,58.53,46.49,15.43,24.83,21.85,54,23.41,82.95.3,5.56,8.31,8.66,11.18,3l12.29-24.07-11-4.62-11.64,29.64,11-1.43A67.82,67.82,0,0,0,944,456.55c-7.26-2.68-10.39,8.91-3.19,11.57A54.86,54.86,0,0,1,969.06,492c2.82,4.8,9.15,3.17,11-1.44l11.64-29.64c2.48-6.32-7.9-10.64-11-4.63q-6.13,12-12.28,24.07l11.18,3c-1.7-31.46-8.71-63.46-25.87-90.3-15.14-23.69-37.7-42.67-64.88-50.71-7.42-2.19-10.59,9.38-3.19,11.57Z" transform="translate(-175.81 -58.98)"/><path class="cls-4" d="M728.31,699a106.59,106.59,0,0,0,23.82-92.46l-8.82,6.78a23.39,23.39,0,0,1,9.5,18.51l11.79-1.59a95.35,95.35,0,0,0-9.93-25c-2.44-4.28-7.77-3.45-10.36,0q-10,13.25-20,26.5c-4.65,6.17,5.76,12.15,10.36,6.06l20-26.51H744.31A83.73,83.73,0,0,1,753,633.47c1.57,6.56,12,5.18,11.78-1.6A36.14,36.14,0,0,0,749.37,603c-4.56-3.3-9.83,2.13-8.82,6.78a93.88,93.88,0,0,1-20.72,80.79c-5.06,5.79,3.39,14.31,8.48,8.48Z" transform="translate(-175.81 -58.98)"/><path class="cls-5" d="M815.27,857.32c10.22-11,21.71-6.67,37.1-4.34,13.2,2,26.21-1.67,25.35-8.73-1.37-11.43-3.3-16.54-7.67-31.35-3.5-11.77-10.13-33-16.18-53.26-8.08-27.13-10.43-39.74.35-42.88,11.6-3.35,18.25,13,24.28,35.59,6.87,25.77,10.48,37.13,12.49,36.53,3.56-1-1.3-12,8-14.74,11.64-3.35,13.9,5.66,17.17,4.76s2.15-10.11,11.44-12.79,14,8.72,17.9,7.57,3.71-5.22,9.47-6.84,27.48,7.91,39.9,49.93c15.58,52.81-2,62.63,3.33,80.5l-69.57,26.2c-5.63-13.41-23.09-14.4-38.51-23S864,875,823.5,875.78C808.25,876.09,809,864.06,815.27,857.32Z" transform="translate(-175.81 -58.98)"/><path class="cls-5" d="M846.8,764.39c-1.69-5.68-3.32-11.37-4.54-16.83a26.83,26.83,0,0,1-13.51-23.17,27.28,27.28,0,0,1,54.55,0,26.44,26.44,0,0,1-.71,5.93,131.62,131.62,0,0,1,6.56,18.6,40.41,40.41,0,0,0,8.4-24.53,41.53,41.53,0,1,0-50.75,40Z" transform="translate(-175.81 -58.98)"/><path class="cls-5" d="M976.71,674.75a25.76,25.76,0,0,0-6.19-9.12A26.34,26.34,0,0,0,962,660c-3.17-1.28-7.43-2.73-12.78-4.29V626.87a15.28,15.28,0,0,1,10.28,11.51q1.89,7.36,8.24,7.36a7.54,7.54,0,0,0,5.72-2.54,8.46,8.46,0,0,0,2.37-6,18,18,0,0,0-1.58-6.86,30.06,30.06,0,0,0-4.52-7.27,23.47,23.47,0,0,0-8.63-6.93,38.26,38.26,0,0,0-11.89-3V605.6q0-5.7-4.14-5.7c-2.72,0-4.09,2-4.09,5.83v7.36q-13.4,1.24-20.49,8.87c-4.72,5.07-7.08,11.61-7.08,19.57q0,9.13,3.62,15a25.13,25.13,0,0,0,9.45,9,76.34,76.34,0,0,0,14.5,5.7v32.26a17.13,17.13,0,0,1-7-3.82,16.62,16.62,0,0,1-3.92-5.52,88,88,0,0,1-3-8.7,7.5,7.5,0,0,0-2.8-4.09,8.11,8.11,0,0,0-4.92-1.46,7.88,7.88,0,0,0-6,2.66,8.71,8.71,0,0,0-2.43,6,25,25,0,0,0,1.82,9.18,30,30,0,0,0,5.6,9,31.58,31.58,0,0,0,9.45,7.24A38.4,38.4,0,0,0,941,717.77v8.42a9.17,9.17,0,0,0,1,4.71,3.55,3.55,0,0,0,3.26,1.53,3.16,3.16,0,0,0,3.29-1.88,17.28,17.28,0,0,0,.75-6v-6.93a34.92,34.92,0,0,0,16-5.21,28.45,28.45,0,0,0,10.2-11.27,32.62,32.62,0,0,0,3.46-14.81A30.73,30.73,0,0,0,976.71,674.75ZM941,653.16a25.87,25.87,0,0,1-8.67-5.1c-1.9-1.88-2.85-4.63-2.85-8.29,0-3.83,1-6.71,3-8.59a21.83,21.83,0,0,1,8.49-4.57Zm18.33,45.33a17.32,17.32,0,0,1-10.1,5.62V673.75Q956,676,959.4,679.34c2.32,2.19,3.48,5.31,3.48,9.31A14.7,14.7,0,0,1,959.32,698.49Z" transform="translate(-175.81 -58.98)"/><path class="cls-5" d="M567.32,208.49" transform="translate(-175.81 -58.98)"/><path class="cls-5" d="M547.56,268.77h0a13.52,13.52,0,0,1-11.72-6.7L496,192.76a10,10,0,0,1,0-9.71,9.53,9.53,0,0,1,8.37-4.69H518.1v6.7H504.37a3.29,3.29,0,0,0-2.68,1.33,3,3,0,0,0,0,3l39.85,69a7,7,0,0,0,6,3.34h0a7.49,7.49,0,0,0,6-3.34l39.85-69a3.15,3.15,0,0,0,0-3,3.32,3.32,0,0,0-2.68-1.33h-13.4v-6.7h13.73a9.53,9.53,0,0,1,8.37,4.69,10,10,0,0,1,0,9.71l-40.18,69.31A12.85,12.85,0,0,1,547.56,268.77Z" transform="translate(-175.81 -58.98)"/><circle class="cls-5" cx="351.66" cy="123.06" r="9.38"/><path class="cls-5" d="M527.47,195.1a12.73,12.73,0,1,1,12.73-12.72A12.51,12.51,0,0,1,527.47,195.1Zm0-19.09a6,6,0,1,0,6,6C533.83,178.69,531.16,176,527.47,176Z" transform="translate(-175.81 -58.98)"/><circle class="cls-5" cx="391.84" cy="123.06" r="9.38"/><path class="cls-5" d="M567.65,195.1a12.73,12.73,0,1,1,12.73-12.72A12.51,12.51,0,0,1,567.65,195.1Zm0-19.09a6,6,0,1,0,6,6C574,178.69,571.34,176,567.65,176Z" transform="translate(-175.81 -58.98)"/><rect class="cls-5" x="368.4" y="207.11" width="6.7" height="56.92"/><path class="cls-5" d="M519.1,353.48a31.81,31.81,0,0,1,0-63.62v6.7a25.11,25.11,0,1,0,25.11,25.11h6.7A31.79,31.79,0,0,1,519.1,353.48Z" transform="translate(-175.81 -58.98)"/><rect class="cls-5" x="342.95" y="230.88" width="88.4" height="6.7"/><circle class="cls-5" cx="443.07" cy="234.23" r="11.72"/><path class="cls-5" d="M618.88,308.28A15.07,15.07,0,1,1,634,293.21,15.22,15.22,0,0,1,618.88,308.28Zm0-23.44a8.37,8.37,0,1,0,8.37,8.37A8.5,8.5,0,0,0,618.88,284.84Z" transform="translate(-175.81 -58.98)"/><path class="cls-5" d="M380.82,893.28l11.32-26.49,12,38.82,5.45-12.11h15.33l9.2-31,15.4,45.64,6.7-14.88H501.3a63,63,0,0,0,3.86-24.66C503.28,836,480.11,819.9,458,819.9c-15.94,0-29.65,11.38-36.08,27.82-6.43-16.44-20.15-27.82-36.08-27.82-22.09,0-45.25,16.1-47.13,48.72a63,63,0,0,0,3.86,24.66Z" transform="translate(-175.81 -58.98)"/><path class="cls-5" d="M514.75,901.06H481.1v.07H461.32l-12.82,28.5-13.88-41.12-3.81,12.84H414.69l-11.9,26.41L391,889.55,386,901.13H364.64v-.07H329.39v7.86h20.48C372.59,948.69,422,980.39,422,980.39s49.36-31.7,72.08-71.47h20.72Z" transform="translate(-175.81 -58.98)"/></svg>