<svg id="Layer_1" data-name="Layer 1" xmlns="http://www.w3.org/2000/svg" viewBox="0 0 1098.25 1177.49"><defs><style>.cls-1,.cls-7{fill:#fff;}.cls-1{stroke:#000;stroke-miterlimit:10;stroke-width:19px;}.cls-2{fill:#f68d6f;}.cls-3{fill:#3cc4d2;stroke:#3cc4d2;stroke-linecap:round;stroke-linejoin:round;stroke-width:2px;}.cls-4{fill:#dcaaff;}.cls-5{fill:#f8ad97;}.cls-6{fill:#ed1a2f;}</style></defs><title>cal</title><rect class="cls-1" x="9.5" y="9.5" width="403.77" height="516.98" rx="12" ry="12"/><rect class="cls-1" x="684.97" y="243.46" width="403.77" height="516.98" rx="12" ry="12"/><rect class="cls-1" x="151.01" y="651.01" width="403.77" height="516.98" rx="12" ry="12"/><ellipse class="cls-2" cx="212.05" cy="293.71" rx="133.85" ry="64.25"/><path class="cls-2" d="M429.7,419.34c-4.32,5.82-1,17.81-8.54,22.66-6.62,4.25-21.09-.52-29.76,2.76-7.77,3-11.82,15-20.94,17-8.42,1.88-19.83-6.65-29.1-5.69-8.73.9-17,11.55-26.26,11.55S297.59,457,288.86,456.11c-9.28-1-20.72,7.57-29.15,5.69-9.1-2-13.18-14.09-21-17-8.67-3.29-23.13,1.46-29.76-2.78-7.56-4.85-4.2-16.83-8.52-22.65a20.6,20.6,0,0,0-4.64-4.21c-9.26,8.73-14.59,18.6-14.59,29.08,0,35.48,59.93,64.24,133.86,64.24s133.84-28.76,133.84-64.24c0-10.48-5.33-20.34-14.58-29.07A21.19,21.19,0,0,0,429.7,419.34Z" transform="translate(-103.05 -64.82)"/><path class="cls-3" d="M434.35,387.6c-22.11,20.86-67.16,35.18-119.25,35.18S218,408.46,195.84,387.6c-6.13,4.37-14.59,8.22-14.59,13.75,0,7.22,14.45,11.56,19.23,18,4.32,5.81,1,17.8,8.52,22.65,6.63,4.24,21.09-.52,29.76,2.78,7.78,3,11.86,15,21,17,8.42,1.88,19.87-6.65,29.15-5.69,8.72.9,17,11.55,26.24,11.55s17.53-10.65,26.25-11.55c9.28-1,20.7,7.57,29.11,5.69,9.11-2,13.17-14.09,20.94-17,8.67-3.28,23.13,1.49,29.76-2.76,7.58-4.85,4.22-16.83,8.54-22.66,4.79-6.42,19.23-10.76,19.23-18C448.94,395.82,440.48,392,434.35,387.6Z" transform="translate(-103.05 -64.82)"/><ellipse class="cls-4" cx="889.55" cy="533.2" rx="133.85" ry="64.25"/><path class="cls-4" d="M1107.2,658.83c-4.32,5.82-1,17.81-8.54,22.66-6.62,4.25-21.08-.52-29.76,2.76-7.77,3-11.82,15-20.94,17-8.42,1.88-19.83-6.65-29.1-5.69-8.73.9-17,11.55-26.26,11.55s-17.51-10.65-26.24-11.55c-9.28-1-20.72,7.57-29.15,5.69-9.1-2-13.18-14.08-21-17-8.66-3.29-23.13,1.46-29.76-2.78-7.56-4.85-4.2-16.83-8.52-22.65a20.6,20.6,0,0,0-4.64-4.21c-9.26,8.73-14.59,18.6-14.59,29.08,0,35.48,59.93,64.24,133.86,64.24s133.84-28.76,133.84-64.24c0-10.48-5.33-20.34-14.58-29.07A21.42,21.42,0,0,0,1107.2,658.83Z" transform="translate(-103.05 -64.82)"/><path class="cls-5" d="M1111.85,627.09c-22.11,20.86-67.16,35.18-119.25,35.18S895.45,648,873.34,627.09c-6.13,4.38-14.59,8.22-14.59,13.75,0,7.22,14.45,11.56,19.23,18,4.32,5.81,1,17.8,8.52,22.65,6.63,4.24,21.1-.52,29.76,2.78,7.78,3,11.86,15,21,17,8.42,1.88,19.87-6.65,29.15-5.69,8.72.9,17,11.55,26.24,11.55s17.53-10.65,26.25-11.55c9.28-1,20.7,7.57,29.11,5.69,9.11-2,13.17-14.08,20.94-17,8.67-3.28,23.13,1.49,29.76-2.76,7.58-4.85,4.22-16.83,8.54-22.66,4.79-6.42,19.23-10.76,19.23-18C1126.44,635.31,1118,631.47,1111.85,627.09Z" transform="translate(-103.05 -64.82)"/><ellipse class="cls-5" cx="354.9" cy="940.84" rx="133.85" ry="64.25"/><path class="cls-5" d="M572.56,1066.47c-4.33,5.82-1,17.81-8.55,22.66-6.62,4.25-21.08-.52-29.75,2.76-7.77,3-11.83,15-21,17-8.41,1.88-19.83-6.65-29.1-5.69-8.73.9-17,11.55-26.25,11.55s-17.52-10.65-26.25-11.55c-9.28-1-20.72,7.57-29.15,5.69-9.1-2-13.17-14.09-21-17-8.66-3.29-23.12,1.46-29.76-2.78-7.56-4.85-4.2-16.83-8.52-22.65a20.6,20.6,0,0,0-4.64-4.21c-9.26,8.73-14.59,18.6-14.59,29.08,0,35.48,59.93,64.24,133.87,64.24s133.84-28.76,133.84-64.24c0-10.48-5.34-20.34-14.59-29.07A21.12,21.12,0,0,0,572.56,1066.47Z" transform="translate(-103.05 -64.82)"/><path class="cls-6" d="M577.21,1034.73c-22.11,20.86-67.16,35.18-119.25,35.18s-97.15-14.32-119.27-35.18c-6.13,4.37-14.59,8.22-14.59,13.75,0,7.22,14.46,11.56,19.23,18,4.32,5.81,1,17.8,8.52,22.65,6.63,4.24,21.1-.52,29.76,2.78,7.79,3,11.86,15,21,17,8.42,1.88,19.87-6.65,29.15-5.69,8.72.9,17,11.55,26.25,11.55s17.52-10.65,26.25-11.55c9.27-1,20.69,7.57,29.1,5.69,9.11-2,13.17-14.09,20.95-17,8.66-3.28,23.12,1.49,29.75-2.76,7.58-4.85,4.23-16.83,8.55-22.66,4.78-6.42,19.23-10.76,19.23-18C591.8,1043,583.33,1039.11,577.21,1034.73Z" transform="translate(-103.05 -64.82)"/><rect x="10.02" y="10.02" width="403.25" height="110.6" rx="12" ry="12"/><rect x="684.97" y="243.46" width="403.25" height="110.6" rx="12" ry="12"/><rect x="151.53" y="649.85" width="403.25" height="110.6" rx="12" ry="12"/><path class="cls-7" d="M249.46,100.78h8.7v45.11c0,17.9-8.8,23.4-20.4,23.4a28.17,28.17,0,0,1-9.3-1.6l1.3-7.1a20.75,20.75,0,0,0,7.3,1.3c7.8,0,12.4-3.5,12.4-16.7Z" transform="translate(-103.05 -64.82)"/><path class="cls-7" d="M283.56,147l-7,21.2h-9l22.9-67.41H301l23,67.41h-9.3l-7.2-21.2Zm22.1-6.8-6.6-19.41c-1.5-4.4-2.5-8.4-3.5-12.3h-.2c-1,4-2.1,8.1-3.4,12.2l-6.6,19.51Z" transform="translate(-103.05 -64.82)"/><path class="cls-7" d="M333.86,168.19V100.78h9.5l21.6,34.1a191.71,191.71,0,0,1,12.1,21.91l.2-.1c-.8-9-1-17.21-1-27.71v-28.2h8.2v67.41h-8.8L354.26,134a213.93,213.93,0,0,1-12.6-22.5l-.3.1c.5,8.5.7,16.6.7,27.8v28.81Z" transform="translate(-103.05 -64.82)"/><path class="cls-7" d="M423.73,773.68c-.5-9.4-1.1-20.71-1-29.11h-.3c-2.3,7.9-5.1,16.31-8.5,25.61L402,802.88h-6.6l-10.9-32.1c-3.2-9.5-5.9-18.2-7.8-26.21h-.2c-.2,8.4-.7,19.71-1.3,29.81l-1.8,28.9h-8.3l4.7-67.41h11.1l11.5,32.61c2.8,8.3,5.1,15.7,6.8,22.7h.3c1.7-6.8,4.1-14.2,7.1-22.7l12-32.61h11.1l4.2,67.41h-8.5Z" transform="translate(-103.05 -64.82)"/><path class="cls-7" d="M457.23,782.08l-7,21.2h-9l22.9-67.41h10.5l23,67.41h-9.3l-7.2-21.2Zm22.1-6.8-6.6-19.4c-1.5-4.41-2.5-8.41-3.5-12.31H469c-1,4-2.1,8.1-3.4,12.21l-6.6,19.5Z" transform="translate(-103.05 -64.82)"/><path class="cls-7" d="M507.53,736.77a90.62,90.62,0,0,1,16.7-1.4c9.3,0,15.3,1.7,19.5,5.5a16.79,16.79,0,0,1,5.3,12.8c0,8.91-5.6,14.81-12.7,17.21v.3c5.2,1.8,8.3,6.6,9.9,13.6,2.2,9.4,3.8,15.9,5.2,18.5h-9c-1.1-1.9-2.6-7.7-4.5-16.1-2-9.3-5.6-12.8-13.5-13.1h-8.2v29.2h-8.7Zm8.7,30.71h8.9c9.3,0,15.2-5.1,15.2-12.81,0-8.7-6.3-12.5-15.5-12.6a35.79,35.79,0,0,0-8.6.8Z" transform="translate(-103.05 -64.82)"/><path class="cls-7" d="M928.85,334.94h36.3v7.3h-27.6v22.4h25.5v7.2h-25.5v30.5h-8.7Z" transform="translate(-103.05 -64.82)"/><path class="cls-7" d="M1012.45,370.74h-26.2V395h29.2v7.3h-37.9v-67.4H1014v7.3h-27.7v21.3h26.2Z" transform="translate(-103.05 -64.82)"/><path class="cls-7" d="M1026.75,335.84a84.3,84.3,0,0,1,15.9-1.4c8.7,0,14.3,1.5,18.5,4.9,3.5,2.6,5.6,6.6,5.6,11.9,0,6.5-4.3,12.2-11.4,14.8v.2c6.4,1.6,13.9,6.9,13.9,16.9a18.17,18.17,0,0,1-5.7,13.5c-4.7,4.3-12.3,6.3-23.3,6.3a101.71,101.71,0,0,1-13.5-.8Zm8.7,27.6h7.9c9.2,0,14.6-4.8,14.6-11.3,0-7.9-6-11-14.8-11a37.32,37.32,0,0,0-7.7.6Zm0,32.3a46.49,46.49,0,0,0,7.3.4c9,0,17.3-3.3,17.3-13.1,0-9.2-7.9-13-17.4-13h-7.2Z" transform="translate(-103.05 -64.82)"/></svg>