<svg xmlns="http://www.w3.org/2000/svg" viewBox="0 0 462.31 434.17"><defs><style>.cls-1{fill:#f9c8a2;}.cls-2{fill:#333;}.cls-3{opacity:0.42;}.cls-4{fill:#d19d8a;}.cls-5{fill:#fff3f2;}.cls-6{fill:#ffe3d8;}.cls-7{fill:#fbc6bf;}.cls-8{opacity:0.3;}.cls-9{fill:#ab7066;}.cls-10{fill:#e9b6a2;}.cls-11{fill:#986d5f;}.cls-12{fill:#97644e;}.cls-13{fill:#c68a7d;}.cls-14{fill:#a07569;}.cls-15{fill:#c88f7c;}.cls-16{fill:#eeada1;}.cls-17{fill:#e3a099;}.cls-18{fill:#a36a58;}.cls-19{fill:#ffd9cc;}.cls-20{fill:#995451;}.cls-21{fill:#dc8b8f;}.cls-22{fill:#573a2e;}.cls-23{fill:#008b27;}.cls-24{fill:#00731e;}.cls-25{opacity:0.2;}.cls-26{fill:#a66755;}.cls-27{fill:#fff;}.cls-28{opacity:0.8;}.cls-29{fill:#969696;}.cls-30{opacity:0.75;}.cls-31{fill:#f7f8f9;}.cls-32{fill:#1a1a1a;}</style></defs><title>me transparent</title><g id="Layer_8" data-name="Layer 8"><path class="cls-1" d="M314,140.69c18.15-5,38,3.8,50.7,17.62s19.68,31.87,25.56,49.69q8.21,24.83,14.39,50.27c3.23,13.29,6,26.84,5.49,40.5-.62,14.85-5.21,29.24-7.08,44s-.54,31,9,42.37c5.41,6.46,12.94,10.74,20.29,14.88l51.93,29.27a22.5,22.5,0,0,1-19.1-1.74c33.22,39.24,47.56,90.5,61,140L65.77,565.5A199.81,199.81,0,0,1,97.36,457.63c7.31-11.37,16.46-22.5,29.19-27.17l-12.89-1.83a714.75,714.75,0,0,0,80.87-175c6.65-21.69,12.41-44,24.43-63.32,7.35-11.79,16.86-22.11,26.87-31.78,9.44-9.12,19.74-18,32.21-22.13s27.65-2.74,36.83,6.64" transform="translate(-63.85 -133.89)"/></g><g id="Layer_2" data-name="Layer 2"><path class="cls-2" d="M233.85,367.64a558.53,558.53,0,0,0-111.61,64.93c-6,4.51-12,9.16-17,14.75a97.8,97.8,0,0,0-10.21,14.11A203.66,203.66,0,0,0,65,566.51l459.78.42a736.6,736.6,0,0,0-27.54-82.86c-8.88-22.22-19.36-44.73-37.38-60.47-8.58-7.5-18.57-13.18-28.54-18.68q-41.75-23-85-43.27c-2.68,12.05-12.86,21.17-24,26.55-28.62,13.86-66.23,5.66-86.48-18.86" transform="translate(-63.85 -133.89)"/><path d="M233.29,366.67A562,562,0,0,0,133.46,423c-14.2,10.07-27.95,20.09-37.52,34.9a200.49,200.49,0,0,0-22.68,48.66,206.57,206.57,0,0,0-9.41,59.94A1.13,1.13,0,0,0,65,567.63L422.8,568l101.95.1a1.14,1.14,0,0,0,1.09-1.43q-7.79-28.89-17.8-57.1c-6.05-16.93-12.36-34-20.46-50-7.4-14.69-16.8-28.6-29.71-39-14.73-11.87-32.48-20.23-49.13-29q-30.54-16.12-61.84-30.78a1.14,1.14,0,0,0-1.65.67c-5.62,22.51-32.31,32.52-53.3,32.44s-41.65-9.11-55.28-25.24c-.93-1.11-2.52.49-1.59,1.59,14.59,17.27,37.15,26.63,59.66,25.86,21.21-.72,47.06-11.53,52.68-34.05l-1.65.67Q372.2,375,398.12,388.44c17,8.8,34.49,17.37,50.41,28,30.59,20.43,43.66,56.09,55.73,89.22q11,30.34,19.41,61.57l1.08-1.42-357.82-.33-102-.1,1.13,1.13A203.56,203.56,0,0,1,94.66,464.25c4.74-7.93,10-15.39,16.91-21.63s14.67-11.72,22.28-17.14q21.92-15.59,45.25-29a565.55,565.55,0,0,1,55.32-27.86c1.33-.58.18-2.52-1.13-1.94Z" transform="translate(-63.85 -133.89)"/><g class="cls-3"><path class="cls-4" d="M309.41,186.76c-7.71,21.22-10.23,43.92-12.69,66.37l-2,17.87c-.94,8.57-1.88,17.13-2.35,25.74-1.14,20.72,1.83,31.67.14,30.3-2.7-2.19-6-2.56-10.18-2.14-2.47.24-4.81.5-7.15-.32-6.35-2.2-13.33,2.27-20,1.36s-6.31-.05-11.11-3.87c-11.81-9.39-13.55-5.74-17.86-17.68-5.12-14.19-5.73-16.81-2.32-31.51,2.2-9.53,6.16-18.58,8.38-28.1,1.08-4.62,1.77-9.4,3.87-13.65,3.12-6.34,9-13.5,12.49-19.63,6-10.52,15.84-21.46,27-21.71,13.57-.3,25.64-9.65,36.91-4.5" transform="translate(-63.85 -133.89)"/><path class="cls-4" d="M308,186.36c-10.29,28.9-12.14,60.29-15.36,90.57-1.46,13.71-2.49,27.4-1.58,41.18.15,2.2-.35,6.4.53,8.42l1.74-.78a10,10,0,0,0-2.14-1.32,12.16,12.16,0,0,0-2.74-.88c-2.64-.56-5.24,0-7.89,0-3.36.06-6.46-1.13-9.8-1.08-2.76,0-5.45.85-8.14,1.36-6.16,1.19-12.35,1.07-17.42-2.83-3.28-2.52-6.68-4.72-10.18-6.91-4-2.52-5.64-5.7-7.29-10.11-1.82-4.84-3.84-10-4.31-15.17-.57-6.36,1.23-13,2.89-19.1,1.93-7.07,4.63-13.91,6.57-21,2-7.31,2.93-14.4,7-21s8.35-13,12.59-19.4c4-6,9.26-12.11,16-15.21,3.6-1.67,7.13-1.62,11-2.11a67.81,67.81,0,0,0,10.88-2.51c7.27-2.15,14.58-4.77,22-1.76,1.79.73,2.57-2.17.8-2.89-5.83-2.36-11.73-1.6-17.66,0-7.21,2-13.78,3.72-21.24,4.56-13,1.47-21.28,13.46-27.53,23.67-4.06,6.64-9.4,12.7-12.43,19.92-2.93,7-3.74,14.87-6.06,22.08-3.84,11.93-9.75,25.59-7.18,38.39,1.69,8.4,4.58,19.16,12.22,24,4.44,2.82,8.56,6.33,13.05,9,3.74,2.2,9.57,2.41,13.68,1.91,3.21-.38,6.3-1.42,9.52-1.74,4.07-.41,7.91,1.15,12.05.86a22.84,22.84,0,0,1,6.18,0c1.55.32,2.84,1.63,4.23,1.94.76.18,1.22.44,2-.1,1.42-1,.68-4.11.57-5.5-.43-5.68-.77-11.35-.75-17,.08-19.75,3.11-39.56,5.31-59.16,2.26-20.13,5.1-40.25,11.92-59.41.65-1.82-2.25-2.61-2.89-.8Z" transform="translate(-63.85 -133.89)"/></g><g class="cls-3"><path class="cls-5" d="M242,278.3l-4.82,4.18a12.57,12.57,0,0,0-3.65,4.28c-1.1,2.62-.26,5.74,1.48,8a19.64,19.64,0,0,0,6.75,5.06,1.09,1.09,0,0,0,.81.18,1.13,1.13,0,0,0,.56-.58c2.33-4.1,4.48-8.67,3.93-13.36a12.35,12.35,0,0,0-3.18-6.9c-.44-.48-.92-.93-1.4-1.37" transform="translate(-63.85 -133.89)"/><path class="cls-5" d="M240.9,277.24c-4.08,3.54-10.24,7.2-9.28,13.46.69,4.51,5.29,9.34,9.71,10.55,4.19,1.15,6.25-7.18,6.88-10.17a14.8,14.8,0,0,0-4.71-14.38c-1.41-1.32-3.53.8-2.12,2.13a11.92,11.92,0,0,1,4.23,8.77c0,2.7-1.56,10.75-5,9.88-4.14-1.06-6.92-6.58-5.3-10.18,1.49-3.33,5-5.58,7.71-7.94,1.46-1.26-.67-3.38-2.12-2.12Z" transform="translate(-63.85 -133.89)"/></g><g class="cls-3"><path class="cls-5" d="M278.13,201.57a22.13,22.13,0,0,0-11.57,8.23c-1.86,2.59-3.17,5.59-5.44,7.83a35.82,35.82,0,0,1-6.08,4.22,40.43,40.43,0,0,0-15.32,18,30,30,0,0,1,23.14-4.37c1.85.42,3.8,1,5.61.44a6.81,6.81,0,0,0,3.92-4.35c.69-1.9.93-3.94,1.53-5.87,1.32-4.2,4.31-7.67,6.12-11.68s2.08-9.41-1.33-12.21" transform="translate(-63.85 -133.89)"/><path class="cls-5" d="M277.73,200.12a25,25,0,0,0-10.39,6.39c-3.7,3.89-5.32,9-9.9,12.08-8.24,5.6-14.8,11.24-19,20.54-.57,1.25.67,2.93,2.05,2.05,7.47-4.76,14.89-5.34,23.4-3.89,4.69.8,8-.46,9.89-5.11,1.39-3.45,1.66-6.82,3.49-10.18,1.5-2.73,3.36-5.25,4.48-8.17,1.73-4.53,1.6-9.5-2-13.05a1.5,1.5,0,0,0-2.13,2.12c5.37,5.37-.19,12.52-3,17.59a26.93,26.93,0,0,0-2.38,5.58c-.35,1.21-.53,2.47-.89,3.69-.81,2.72-1.38,3.79-4.35,4.26-5,.79-10.16-1.12-15.4-.33a32.26,32.26,0,0,0-12.68,4.9l2,2A41.12,41.12,0,0,1,248.7,229c3.41-3.57,7.56-5.77,11.47-8.66,2.84-2.1,4.51-4.84,6.37-7.78a22.13,22.13,0,0,1,12-9.55c1.82-.6,1-3.5-.8-2.89Z" transform="translate(-63.85 -133.89)"/></g><g class="cls-3"><path class="cls-5" d="M266.84,350.72a42,42,0,0,1-3.42,11c-.86,1.84-1.79,4.21-.41,5.7a6,6,0,0,0,2.42,1.25c2.42.89,4.77,2.49,7.34,2.21,3.64-.4,5.75-4.26,7-7.72.87-2.49,1.59-5.3.53-7.72a10.29,10.29,0,0,0-2.84-3.46,14.84,14.84,0,0,0-4.34-2.85,6.21,6.21,0,0,0-5.05.12" transform="translate(-63.85 -133.89)"/><path class="cls-5" d="M265.39,350.32c-.77,4.29-2.44,7.95-3.84,12-.71,2-1.26,4.41.39,6.18,1.8,1.91,6,3.22,8.54,3.72a7.45,7.45,0,0,0,6.63-1.8c3.68-3.29,6.57-10.8,4.52-15.54-2.13-4.94-8.79-9-14-7-1.8.67-1,3.57.79,2.89,5.45-2,11.66,4.14,10.62,9.49-.72,3.76-2.74,8.76-7,9a8.86,8.86,0,0,1-5-1.49c-3.35-2.16-3.09-3.24-1.72-6.56a49,49,0,0,0,3-10.07c.34-1.89-2.55-2.7-2.9-.8Z" transform="translate(-63.85 -133.89)"/></g><g class="cls-3"><path class="cls-6" d="M297.87,262.39a328.44,328.44,0,0,1-5.73,34.72c-.54,2.43-1.16,5-2.85,6.8-3.11,3.35-8.43,3-12.93,2.27-2.09-.35-4.66-1.24-4.79-3.34-.12-1.95,2-3.17,3.2-4.67,2.61-3.17,1.43-7.85,1.92-11.92.63-5.2,4.08-9.54,7.4-13.59l7.33-8.92c1.18-1.44,3.25-3,4.64-1.74" transform="translate(-63.85 -133.89)"/><path class="cls-6" d="M296.37,262.39c-1.09,9.59-2.56,19.12-4.47,28.58-.83,4.14-1.22,11-5.48,13.24-2.13,1.13-14.15,2.42-12.28-3.25.21-.66,1.48-1.41,1.92-2a10,10,0,0,0,1.7-4c.7-3.24-.1-6.61.65-9.86,1-4.38,4-8,6.74-11.39,1.58-2,7.58-11.44,10.51-10.27,1.8.71,2.58-2.19.8-2.9-4.66-1.84-7.93,4.35-10.38,7.33-3.44,4.2-7.48,8.42-9.59,13.51-2.2,5.32.07,12-3.6,16.6-1.87,2.32-4.18,4.59-1.64,7.46s8,2.88,11.4,2.67c4.2-.27,7.63-2.08,9.51-5.93,2.6-5.32,3.07-12.34,4.09-18.11,1.28-7.19,2.3-14.43,3.12-21.69.22-1.91-2.78-1.9-3,0Z" transform="translate(-63.85 -133.89)"/></g><g class="cls-3"><path class="cls-7" d="M263.85,275.19a30.65,30.65,0,0,1-14.64-4.11c-2.46-1.44-4.78-3.24-7.52-4s-6.17-.19-7.62,2.27a19.39,19.39,0,0,1,12.81,25.46c-2.33,6.17-7.86,11.61-7,18.15a3.13,3.13,0,0,0,.9,2.08c1.1,1,2.8.34,4-.45,5.38-3.45,8.8-9.49,14.44-12.49,2-1.08,4.31-1.73,6.25-3,6-3.88,7.18-12.07,7.74-19.22a3.63,3.63,0,0,0-.3-2.24,3.7,3.7,0,0,0-2.29-1.3L262.06,274" transform="translate(-63.85 -133.89)"/><path class="cls-7" d="M263.85,273.69a30.37,30.37,0,0,1-12.38-3.09c-2.66-1.35-5-3.29-7.78-4.41-3.78-1.52-8.05-1.3-10.68,2.08a1.52,1.52,0,0,0,.66,2.5c7.75,2.55,13.15,9.44,12.92,17.77-.18,6.48-4.46,11.16-6.86,16.84-1.21,2.84-2.93,8.64.26,10.94,3.34,2.41,7.64-1.85,9.84-3.93,2-1.87,3.72-4,5.75-5.78,2.8-2.51,5.87-3.67,9.13-5.38a16.35,16.35,0,0,0,7.89-9.48c1.22-3.43,3-9.76,2.07-13.43-1.17-4.48-8.58-4.78-12.21-5.77a1.5,1.5,0,0,0-.79,2.89c2.35.65,5.51,1,7.69,2.12,3.12,1.63,2.26,4.4,1.8,7.4-.81,5.2-2.43,10.44-7.21,13.26-3.93,2.33-7.66,3.57-11,6.78-1.61,1.53-3.09,3.2-4.68,4.75a14.84,14.84,0,0,1-3.2,2.77c-2.49,1.18-4.1-.81-3.42-3.55,1.12-4.48,4.3-8.18,6.11-12.37A21.27,21.27,0,0,0,249.37,285c-1.22-8.26-7.11-14.51-14.9-17.07l.66,2.51c4.36-5.58,11.83,1.49,16.37,3.53a34.27,34.27,0,0,0,12.35,2.77c1.93.09,1.92-2.91,0-3Z" transform="translate(-63.85 -133.89)"/></g><g class="cls-3"><path class="cls-7" d="M226.83,287.42a28.85,28.85,0,0,1,7.8,1.33,9.81,9.81,0,0,1,5.83,5.07,13.64,13.64,0,0,1,.57,6.36,100.36,100.36,0,0,1-2.3,14.92,9.5,9.5,0,0,1-1,2.84,6.26,6.26,0,0,1-7.24,2.38,9.6,9.6,0,0,1-5.59-5.7,21.17,21.17,0,0,1-1.15-8.11,53.8,53.8,0,0,1,3.38-18" transform="translate(-63.85 -133.89)"/><path class="cls-7" d="M226.83,288.92c6.7.55,13.13,2.29,12.75,10.45a77.17,77.17,0,0,1-1,8.84c-.35,2.21-.59,7.34-2.11,9-3.19,3.44-7.74,1.46-9.66-2.07-1.4-2.58-1.56-5.73-1.53-8.6a54,54,0,0,1,3.33-17.57c.65-1.82-2.25-2.61-2.89-.8-2.8,7.91-5.57,19.11-2.08,27.23,2.18,5.09,8.46,9.12,13.59,5.29,3-2.21,3.31-6.42,3.92-9.79.86-4.67,2-10,1.39-14.72-1-8-8.9-9.67-15.69-10.23-1.93-.16-1.92,2.84,0,3Z" transform="translate(-63.85 -133.89)"/></g><g class="cls-3"><path class="cls-7" d="M250,328.27l6.8,3.79c3.28,1.82,6.66,3.74,8.85,6.78s2.84,7.54.46,10.44c-1.26,1.53-3.19,2.45-4.27,4.11-2,3.12-.25,7.47-1.76,10.85a3.36,3.36,0,0,1-1.84,1.91c-1.37.46-2.73-.56-3.94-1.35-18.44-12.08-25.16-34.4-30.67-55.06-.87-3.27-1.47-7.31,1.06-9.55,2.75-2.44,7.11-.89,10.14,1.19A39.57,39.57,0,0,1,251.53,329" transform="translate(-63.85 -133.89)"/><path class="cls-7" d="M249.24,329.57c5.58,3.11,19.3,8.33,16.66,16.88-1,3.14-4.71,4.38-6,7.41-.73,1.78-.61,3.69-.68,5.57-.08,2.34-.24,5.47-3.59,4.47-1.4-.41-2.93-2-4.07-2.91a50.36,50.36,0,0,1-6.19-5.85,66.63,66.63,0,0,1-10-15.41,124.27,124.27,0,0,1-6.49-16.9c-1.6-5.11-4.49-11.58-4.5-17,0-9,8.41-4.34,11.77-1.63a38.21,38.21,0,0,1,7,7.39,39.58,39.58,0,0,1,6.93,17.75c.26,1.9,3.15,1.09,2.89-.8-1.63-11.66-8.87-25.19-20.24-30.05-4.29-1.84-9.56-1.24-11,3.82-1.52,5.26,1.56,12,3,17,3.62,12.4,8.18,24.89,16.26,35.14,3.51,4.46,9.36,11.37,15.12,13,4.68,1.31,6-3.73,6.15-7.33.13-3,.43-5.46,2.7-7.79,1.15-1.19,2.4-2,3.19-3.47a9.88,9.88,0,0,0,.47-7.25C266.43,334,257,330.46,250.75,327c-1.69-.94-3.2,1.65-1.51,2.59Z" transform="translate(-63.85 -133.89)"/></g><g class="cls-8"><path class="cls-9" d="M257.49,272.5c2.7-.47,5.45,0,8.19.11s5.7-.36,7.65-2.29a2.25,2.25,0,0,0,.81-1.7,2,2,0,0,0-1.8-1.57,9.68,9.68,0,0,0-2.56.25c-3.83.54-7.54-1.25-11.3-2.17-4.25-1.05-9-1.13-12.38-4-1.09-.93-2-2.16-3.43-2.55s-3.24.85-2.69,2.18a2.81,2.81,0,0,0,1.08,1.11l16.62,11.58" transform="translate(-63.85 -133.89)"/><path class="cls-9" d="M257.49,274c3.83-.42,18.06,2.21,18.13-5.18,0-2.25-2-3.11-3.92-3.25-2.78-.2-5.19.25-8-.47-2.59-.67-5.08-1.5-7.71-2a25.52,25.52,0,0,1-6.85-1.84c-2-1-3.52-3.24-5.71-3.92a3.92,3.92,0,0,0-4.75,1.76c-1.26,2.73,2.11,4.45,3.89,5.69l14.35,10c1.59,1.1,3.09-1.5,1.52-2.6S244,261.14,243.33,261.66c.83-.62,3.39,1.82,4.43,2.33a24.23,24.23,0,0,0,6,1.72c4.5.89,9,2.85,13.61,3.12.6,0,2.65-.33,2.85-.08,1.79,2.21-3.21,2.34-3.81,2.35-3,.08-5.87-.43-8.88-.1-1.9.21-1.92,3.21,0,3Z" transform="translate(-63.85 -133.89)"/></g><g class="cls-3"><path class="cls-9" d="M278.22,193.62a339.12,339.12,0,0,1-28.87,31.17c-4.7,4.47-9.76,9.21-11.2,15.53-1.51,6.66,1.39,13.59.74,20.39-1.15,12-13,21.25-13.13,33.31,0,2.49.44,5.06-.39,7.41s-4.71,4.23-6.81,2.89a80.78,80.78,0,0,1,1.15-22.81,79.85,79.85,0,0,1,3.09-10.46c3.53-10.21,7.07-20.42,11.08-30.45,3.36-8.38,8.06-22,13.23-29.46,7.78-11.16,17.81-14.69,30.37-19.94" transform="translate(-63.85 -133.89)"/><path class="cls-9" d="M277.16,192.56a348.55,348.55,0,0,1-25.55,28c-6.71,6.56-14.94,13-15.38,23.15-.25,5.71,1.76,11.33,1.16,17-.56,5.35-3.36,10.1-6,14.65-2.29,3.92-4.68,7.86-6,12.22-1.17,3.74.08,17.8-6.38,15.3l1.1,1.44c-1.91-24.54,9.12-47.32,17.76-69.72,3.61-9.37,7.1-19.59,14.1-27s16.71-11.06,26-14.91c1.76-.73,1-3.64-.79-2.89-8.86,3.68-18.12,7.09-25.28,13.7-7.58,7-11.5,16.66-15.21,26-9.41,23.81-21.56,48.65-19.53,74.81a1.59,1.59,0,0,0,1.1,1.45,6.86,6.86,0,0,0,8.24-3.1c2.3-4.1.43-9.79,1.83-14.29,3-9.69,11.2-17.23,12.16-27.67.61-6.65-2.33-13.4-.79-20,1.45-6.2,6.4-10.64,10.81-14.87a356.09,356.09,0,0,0,28.87-31.17c1.21-1.48-.9-3.62-2.12-2.12Z" transform="translate(-63.85 -133.89)"/></g><g class="cls-3"><path class="cls-9" d="M310.84,267.59c-1.23,14.79,12.65,28.51,9.1,42.92-.52,2.11-1.81,4.44-4,4.59-1.56.12-2.92-1-4.33-1.62a17.9,17.9,0,0,0-5.91-1.27l-10.62-1a3,3,0,0,1-2.09-.77,2.79,2.79,0,0,1-.4-2c.32-4.24,2.15-8.2,3.57-12.21,3.7-10.46,4.65-21.66,5.18-32.74.13-2.64.48-5.72,2.75-7.08a7.94,7.94,0,0,1,3-.84l11.33-1.69a2.08,2.08,0,0,1,1.75.26c.7.66.18,1.82-.36,2.62l-8.92,13" transform="translate(-63.85 -133.89)"/><path class="cls-9" d="M309.34,267.59c-.55,10.65,5.26,19.67,8.24,29.53a29.16,29.16,0,0,1,1.43,8.53,16.39,16.39,0,0,1-.51,4.46c-1,3.36-3.45,2.75-6.11,2.08-5-1.28-10.6-.93-15.52-2.34-3.37-1-2.8-2.38-2-5.48.4-1.47.94-2.89,1.45-4.33a100.12,100.12,0,0,0,3.36-10.5,116.5,116.5,0,0,0,2.71-18.68c.22-2.89.16-5.86.53-8.74.67-5.18,5.05-5.2,9.24-5.83,1.07-.16,3.68-1.12,4.72-.71q3,0,.47,2l-1.12,1.62L309.57,269c-1.09,1.59,1.51,3.09,2.59,1.51l6.69-9.75c1.09-1.59,3.53-4,3.08-6.23-.83-4.14-8.16-1.48-10.54-1.12-5.34.8-10,.94-11.21,7-1.55,7.44-.92,15.42-2.24,23s-4.84,14.52-6.37,22c-.93,4.57-.34,6.86,4.41,7.43,3.68.43,7.39.59,11,1.11,3,.43,5.88,2.89,8.93,2.72,4.29-.23,5.63-5.44,6-8.87,1.35-14.22-10.31-25.93-9.58-40.14.1-1.93-2.9-1.92-3,0Z" transform="translate(-63.85 -133.89)"/></g><g class="cls-3"><path class="cls-6" d="M297.34,259.31l-1.91,11.13A42.41,42.41,0,0,1,293,280c-1.15,2.71-1.86,5.15-3,7.84-2,4.47-2.51,9.47-2.57,14.37a12.44,12.44,0,0,0,.94,5.81c.9,1.77,2.86,3.15,4.81,2.75,2.73-.56,3.71-3.88,4.17-6.63l2.46-14.7c1.47-8.78,2.94-17.68,2-26.54a7.62,7.62,0,0,0-1-3.6,3,3,0,0,0-3.24-1.34" transform="translate(-63.85 -133.89)"/><path class="cls-6" d="M295.9,258.91c-1.09,6.31-1.66,13-3.73,19.13-2,5.75-4.89,11.13-5.77,17.2-.58,4-1.45,9.78.66,13.51,1.54,2.72,4.94,4.56,7.92,2.89,3.59-2,3.83-7.29,4.41-10.81,1.14-6.81,2.4-13.62,3.31-20.46.68-5.11,4.43-24.52-5.12-23.94-1.92.12-1.94,3.12,0,3,6.1-.37,1.51,25.05,1.08,27.7-.71,4.3-1.44,8.6-2.16,12.91-.27,1.59-.43,3.3-.85,4.87A9,9,0,0,1,294,308.6q-5,0-5-3.66c-2-7.2,2-15.66,4.45-22.2,2.85-7.47,3.9-15.17,5.25-23,.32-1.89-2.57-2.7-2.89-.8Z" transform="translate(-63.85 -133.89)"/></g><g class="cls-3"><path class="cls-10" d="M301.6,191.6c-5.8-.55-12.27.23-16.27,4.47-5.7,6.05-3.85,16-7.5,23.47-1.78,3.64-4.93,6.94-4.77,11,.17,4.39,4.18,7.56,8,9.68s8.2,4.1,10.13,8c1.35,2.74,1.54,6.39,4.16,7.95,2.15,1.28,4.88.47,7.24-.37L344.5,240.9a4.53,4.53,0,0,0,1.87-1,4.43,4.43,0,0,0,.85-2.19,47.82,47.82,0,0,0,.82-14.89c-1.65-12.37-11.08-22.81-22.46-27.9s-24.42-5.44-36.73-3.42" transform="translate(-63.85 -133.89)"/><path class="cls-10" d="M301.6,190.1c-6.69-.5-14.16.49-18.45,6.26-4.84,6.52-3.24,15.32-6.61,22.42-2.92,6.15-7.78,11.51-2.39,17.95,2.52,3,6.12,4.64,9.44,6.54a16.1,16.1,0,0,1,5.65,4.7c1.26,1.89,1.56,4.05,2.54,6.05,3.76,7.73,12.62,2.75,18.52.65l31-11c2.67-.95,5.8-1.41,7.05-4.22,1.67-3.77,1.65-9.89,1.46-13.85a34.35,34.35,0,0,0-7.8-20c-12.89-16-34.4-18.53-53.52-15.59-1.9.29-1.09,3.18.8,2.89,19-2.92,41.13,0,52.47,17.42a30.93,30.93,0,0,1,4.65,11.44c.8,4.45,1.69,14.61-2.27,17.69-1.69,1.32-5.24,1.87-7.28,2.6l-7.29,2.59-13.65,4.87c-4.54,1.61-9.05,3.47-13.66,4.86-3.62,1.09-6.55,1.41-8.17-2.74a40.41,40.41,0,0,0-1.53-4.15c-3.76-7.12-16-7.9-17.82-15.94-1-4.6,3.56-8.88,5.14-12.87,1.39-3.52,1.77-7.3,2.42-11,.8-4.58,1.93-9.33,6-12.15,3.87-2.65,8.83-2.75,13.32-2.42,1.93.15,1.92-2.85,0-3Z" transform="translate(-63.85 -133.89)"/></g><g class="cls-3"><path class="cls-11" d="M335.09,188.67c-3.91.72-7.7-2.29-11.66-2.13s-9.13,7.94-8.07,11.76c.49,1.78,2,3,3.34,4.32,8.39,8.32,8.84,21.46,9.73,33.24a7,7,0,0,0,.75,3.13c1.39,2.31,4.68,2.26,7.38,2.22a38.5,38.5,0,0,1,23.56,7.65c4.75-8.5.62-18.75.15-28.47-.53-11-5.2-23.21-14-28.31s-13.22-2.25-22.82-5.54" transform="translate(-63.85 -133.89)"/><path class="cls-11" d="M335.09,187.17c-4.57.34-9.19-3.47-13.69-1.63-2.68,1.09-4.78,3.78-6.1,6.26-1.42,2.67-2.25,5.72-.69,8.5,1,1.75,2.74,3,4,4.45a26.4,26.4,0,0,1,4.9,8.65c1.87,5.29,2.47,10.93,2.93,16.48.29,3.46-.37,8.57,2.49,11.14s7.56,1.54,10.95,1.79a38.31,38.31,0,0,1,19.45,7.34,1.51,1.51,0,0,0,2.05-.53c3.63-7.36,2.22-14.91,1.08-22.71s-1.22-15.53-4.54-23c-2.85-6.41-7.37-11.77-13.89-14.61s-13.61-2.11-20.24-4.21c-1.85-.58-2.64,2.31-.8,2.9,5.46,1.72,11.11,1.47,16.58,2.92,7,1.85,12,6.8,15.15,13.2s3.53,12.86,4.31,19.73c.92,8.12,3.59,16.5-.24,24.26l2.05-.54a41.13,41.13,0,0,0-23.48-7.85c-2.76,0-4.68.48-6.33-2.08-1.46-2.26-1.32-4.36-1.53-7A105.67,105.67,0,0,0,328.12,219a35.38,35.38,0,0,0-9.37-18.41c-3.29-3.53-1.08-10.44,3.62-12.16,3.82-1.39,8.58,2,12.72,1.74,1.91-.14,1.93-3.14,0-3Z" transform="translate(-63.85 -133.89)"/></g><g class="cls-3"><path class="cls-11" d="M355.05,256.39a59.49,59.49,0,0,0,5.46,32.76,169.6,169.6,0,0,0,3.42-42.59c-.05-1-.66-2.35-1.56-1.95a1.49,1.49,0,0,0-.65.86c-1.85,4.41-2.43,10.06-6.64,12.33a1.6,1.6,0,0,1-.51-2.12" transform="translate(-63.85 -133.89)"/><path class="cls-11" d="M353.55,256.39a63,63,0,0,0,5.67,33.52,1.51,1.51,0,0,0,2.74-.36,181.18,181.18,0,0,0,3-20.61c.6-7,1.76-15.47.44-22.38-.34-1.76-1.45-4.4-3.82-3.24-1.34.66-1.83,3-2.25,4.25-1.14,3.34-1.9,6.86-5,8.94l2.05.54-.36-1c.26-1.89-2.63-2.71-2.89-.8-.22,1.62-.29,1.92.66,3.28a1.51,1.51,0,0,0,2.05.54,12.62,12.62,0,0,0,4.89-6.27c.65-1.6.91-3.6,1.75-5.1.7-1.25.08,1.05.07,1.75,0,1.61.07,3.25.07,4.87a172.25,172.25,0,0,1-3.54,34.41l2.74-.36a60.3,60.3,0,0,1-5.26-32c.2-1.92-2.8-1.91-3,0Z" transform="translate(-63.85 -133.89)"/></g><g class="cls-3"><path class="cls-12" d="M326.87,331.85a46.52,46.52,0,0,0-20.76,17.55,38,38,0,0,0-4.44,9.4c-1.59,5.21-1.84,10.72-2.08,16.15,9.24-2.35,18.72-4.81,26.5-10.34A78.3,78.3,0,0,0,337,354.52l12.07-12.67c2.63-2.77,5.3-5.58,7.05-9s2.5-7.5,1.1-11.05c-8.63,2.43-14.81,4.72-23.45,7.16a71.92,71.92,0,0,0-10.34,3.89" transform="translate(-63.85 -133.89)"/><path class="cls-12" d="M326.11,330.56a48.89,48.89,0,0,0-20,16.18c-6.12,8.56-7.56,17.94-8,28.21a1.51,1.51,0,0,0,1.9,1.45c7.18-1.84,14.45-3.71,21.11-7.07,6.41-3.23,11.47-8,16.39-13.15,5.69-5.95,11.9-11.7,17-18.16,3.84-4.85,6-10.48,4.17-16.59a1.53,1.53,0,0,0-1.85-1.05c-11.35,3.25-23.42,6.21-34.15,11.21-1.75.81-.23,3.4,1.52,2.59,10.47-4.88,22.35-7.73,33.43-10.91l-1.84-1c2.5,8.27-3.92,14.51-9.11,20-4.53,4.76-9,9.57-13.6,14.25-9.6,9.75-20.9,13.75-33.88,17.07l1.9,1.44c.44-9.8,1.74-18.53,7.61-26.69a46.21,46.21,0,0,1,18.92-15.11c1.76-.79.24-3.37-1.51-2.59Z" transform="translate(-63.85 -133.89)"/></g><g class="cls-3"><path class="cls-13" d="M356.68,282.1q-15.94-1-31.93-1c-2.51,0-5.36.15-7,2s-1.43,4.54-.45,6.69,2.66,3.88,4.12,5.72a34.35,34.35,0,0,1,6.14,12c1,3.54,1.52,7.43,4,10.18,3.45,3.9,9.65,4.71,14.85,4.63a12.91,12.91,0,0,0,5.91-1.68c2.16-1.15,3.54-3.35,4.66-5.52A56.64,56.64,0,0,0,363.27,289a10.69,10.69,0,0,0-.76-4.57,6,6,0,0,0-7.76-2.72" transform="translate(-63.85 -133.89)"/><path class="cls-13" d="M356.68,280.6c-9.38-.56-18.77-.91-28.17-1-4.82,0-12.15-.68-13.33,5.63-1.13,6,5.09,10.6,7.79,15.25,3.5,6,3.17,14.78,8.79,19.48,4.5,3.76,12.54,4.86,18.05,3.3,6.08-1.72,8.66-7.24,10.83-12.7,2.56-6.4,10.21-35.85-6.29-30.34-1.82.61-1,3.51.8,2.9,2.31-.78,5.29.94,6.4,3.13.55,1.07.22,3.3.19,4.52a51,51,0,0,1-1.12,9.47,49.27,49.27,0,0,1-5.69,15.4c-3.46,5.7-10.37,5.9-16.25,4.38-6.74-1.74-8-7.06-9.69-12.92a36.9,36.9,0,0,0-5.26-11c-1.19-1.67-2.64-3.14-3.77-4.85-1.74-2.61-1.93-2.84-.17-5.83s1.51-2.74,4.32-2.86c10.79-.45,21.81.37,32.57,1,1.93.11,1.92-2.89,0-3Z" transform="translate(-63.85 -133.89)"/></g><g class="cls-3"><path class="cls-14" d="M346.21,251c-6.38.21-12.88.47-18.87,2.66s-11.51,6.66-13.31,12.78l6.6-1.8c7.63-2.09,15.88-4.15,23.29-1.37,3.62,1.35,6.94,3.84,10.8,4a3.78,3.78,0,0,0,2.27-.46,3.65,3.65,0,0,0,1.39-3.15c0-4.8-4.42-8.27-8.4-10.95l-5.07-3.42" transform="translate(-63.85 -133.89)"/><path class="cls-14" d="M346.21,249.52c-13,.44-28.7,2.35-33.63,16.54a1.52,1.52,0,0,0,1.85,1.85c7.39-2,15.21-4.89,23-4.43,4.57.27,8.08,2.38,12.19,4,2.16.88,4.94,1.85,7.25,1,3.67-1.37,3.46-5.9,2.06-8.91-2.47-5.31-8.6-8.43-13.24-11.55-1.6-1.09-3.1,1.51-1.51,2.59,4,2.67,9.65,5.39,11.87,9.85,1.61,3.24.32,5.11-2.7,5-1.9,0-3.93-1.4-5.59-2.17a31.77,31.77,0,0,0-5.82-2.23c-9.4-2.25-19.29,1.44-28.28,3.9l1.85,1.84c4.41-12.72,19.28-14,30.73-14.34,1.92-.06,1.93-3.06,0-3Z" transform="translate(-63.85 -133.89)"/></g><g class="cls-3"><path class="cls-15" d="M319.9,274.43a31.23,31.23,0,0,0-8.1-6.2,5.8,5.8,0,0,0,.23,6,11,11,0,0,0,4.87,4c3.88,1.82,8.21,2.38,12.45,2.93l11.88,1.53c2.12.27,4.34.54,6.36-.18a10.11,10.11,0,0,0,3.85-2.75,19,19,0,0,0,4.25-7.37,3.41,3.41,0,0,0,0-2.64c-.84-1.5-3.06-1.16-4.69-.61l-18.9,6.38" transform="translate(-63.85 -133.89)"/><path class="cls-15" d="M321,273.36a37.82,37.82,0,0,0-8.4-6.42,1.51,1.51,0,0,0-2.05.54c-3.27,7.1,3.63,11.8,9.75,13.55,4.54,1.3,9.37,1.66,14,2.26,4.33.56,9.8,2.19,14,.5,4.06-1.61,11.81-10.45,8.43-15.11-1.68-2.32-4.85-1.4-7.09-.68-6,1.93-12,4-17.95,6.06-1.82.62-1,3.52.79,2.9l16.07-5.43c1-.32,2.85-1.52,3.86-1.25,2.21.61,1.59,2.57.91,4-1.47,3.08-3.66,5.79-7,6.71-5.09,1.39-11.85-.66-17-1.34-4.69-.62-20-2.56-16.25-10.66l-2.05.54a35.56,35.56,0,0,1,7.79,6,1.5,1.5,0,0,0,2.12-2.13Z" transform="translate(-63.85 -133.89)"/></g><g class="cls-3"><path class="cls-16" d="M288.19,347.67c-3-.51-5.68,2.11-6.66,5s-.81,5.95-1.26,8.93a20.92,20.92,0,0,1-2.74,7.6c-.76,1.28-1.7,2.6-1.62,4.09a4.37,4.37,0,0,0,2.76,3.5,12.92,12.92,0,0,0,4.59.79l10.78.52a21.58,21.58,0,0,0,5.08-.16c3.46-.66,6.36-2.94,9.11-5.15a6.39,6.39,0,0,0,2.46-3.05,6.13,6.13,0,0,0-.29-3.11q-1.78-6.49-4-12.86a7.66,7.66,0,0,0-1.35-2.69,7.28,7.28,0,0,0-3.34-1.84,38.38,38.38,0,0,0-15.39-1.62" transform="translate(-63.85 -133.89)"/><path class="cls-16" d="M288.19,346.17c-3.92-.11-6.78,2.46-8.11,6.06-1.05,2.85-.84,6.07-1.33,9-.63,3.75-2.79,6.35-3.92,9.8-1,3.12.48,5.82,3.44,7.13,2.3,1,5.24.86,7.69,1,3.51.17,7.11.55,10.63.44,4.94-.15,9.05-2.57,12.7-5.8,4.25-3.78,2.74-7.18,1.23-12.24-1.39-4.61-2.14-10.86-6.83-13.23-5-2.54-11.92-2.68-17.37-2.26-1.91.14-1.93,3.14,0,3a39.63,39.63,0,0,1,11.65.67c5.54,1.21,7.24,4.9,8.81,9.85,1.14,3.61,3.49,8.24.9,11.65-2.31,3-7.53,5.2-11.09,5.36-3.22.15-6.52-.25-9.73-.4-1.57-.08-5,.16-6.31-.44-5-2.24-2.1-5-.94-7.28a23.18,23.18,0,0,0,2.16-6.93c.64-4.26-.1-12.56,6.42-12.39,1.93.05,1.93-2.95,0-3Z" transform="translate(-63.85 -133.89)"/></g><g class="cls-3"><path class="cls-17" d="M271.69,340.25c-1.68-.35-2.44-2.76-4.16-2.86a2.24,2.24,0,0,0-2.06,1.43,4.61,4.61,0,0,0-.19,2.63,10.57,10.57,0,0,0,5.44,7.55,45.59,45.59,0,0,1,4.69,2.2c2,1.38,3.21,3.68,4.85,5.51a.8.8,0,0,0,.59.33.78.78,0,0,0,.46-.36,33.41,33.41,0,0,0,3.17-5.13c.65-1.31,1.18-3,.23-4.11a4.45,4.45,0,0,0-1.33-.92,58.27,58.27,0,0,1-5.77-3.58l-13.2-8.9" transform="translate(-63.85 -133.89)"/><path class="cls-17" d="M272.45,339c-2.35-1.09-3.89-4.4-6.91-2.47-2.45,1.56-2,5-1.15,7.34a12.52,12.52,0,0,0,6.75,7c2.89,1.38,4.33,2.19,6.29,4.69a9.49,9.49,0,0,0,2.66,2.8,1.46,1.46,0,0,0,1.51,0c2.68-2.06,7-8.58,4.17-11.95-2-2.4-6.25-4-8.87-5.72l-11.73-7.92c-1.61-1.08-3.11,1.52-1.52,2.59,4.4,3,8.79,6,13.21,8.91,2.06,1.38,5.54,2.71,6,5.06.36,1.68,0,2.1-.8,3.48s-.67,2.06-2.08,1.24c-1-.56-1.75-2.36-2.6-3.12a13.92,13.92,0,0,0-3.74-2.24c-2.37-1.08-6.41-3.1-6.64-6.27l1.15-3a10.23,10.23,0,0,0,1.14,1.14c.49.21,1.1.77,1.61,1,1.74.81,3.26-1.78,1.51-2.59Z" transform="translate(-63.85 -133.89)"/></g><g class="cls-3"><path class="cls-18" d="M314.18,315.32,298.45,314c-1.09-.1-4.83-.94-5.72-.31s2,3.51,1.72,4.53c-.54,2-1.1,6.53-1.1,6.53.31.12,9,1.8,13.21,3,3.93,1.14,7.11,1.59,11.13,2.41a27.66,27.66,0,0,0,5.39.38c2,0,4.35-.14,5.51-1.78,1.38-2,.17-4.66-1.23-6.6a14.28,14.28,0,0,0-4.86-4.64c-3.08-1.59-7.11-1.38-9.55-3.84" transform="translate(-63.85 -133.89)"/><path class="cls-18" d="M314.18,313.82c-5.52-.48-11.09-.8-16.58-1.5-1.63-.21-4.78-1.16-6.05.42s.28,2.79.77,4.17c.86,2.4-.14,5.21-.47,7.79a1.49,1.49,0,0,0,1.1,1.44c4.37,1.14,8.84,1.86,13.21,3,6,1.58,14.18,4.23,20.38,2.5,4.84-1.34,4.79-6,2.52-9.67a16.18,16.18,0,0,0-5.22-5.44c-3.08-1.86-7-1.64-9.83-4-1.48-1.21-3.62.9-2.12,2.12,3.23,2.65,7.44,2.46,10.8,4.73a10.6,10.6,0,0,1,3.38,3.45,5.59,5.59,0,0,1-1.76,6.1c-1.92,1.22-7.29-.52-9.5-1-7-1.35-14.15-3-21.06-4.78l1.1,1.45c.25-1.94,1.13-4.4,1.08-6.33a23.34,23.34,0,0,0-1.5-3.76c.07-.15,18.2,2.07,19.75,2.21,1.92.17,1.91-2.83,0-3Z" transform="translate(-63.85 -133.89)"/></g><g class="cls-3"><path class="cls-19" d="M268.08,309.92A13.42,13.42,0,0,0,247.64,323a3.09,3.09,0,0,0,.56,1.62,3.3,3.3,0,0,0,2.3.95c3.42.33,6.83-.57,10.23-1,8.82-1.22,17.78.4,26.67,0a4.81,4.81,0,0,0,2.19-.48c1.79-1.07,1.48-3.8.47-5.63a12.9,12.9,0,0,0-8.23-6.28c-2.83-.68-5.81-.38-8.7-.78s-5.95-1.83-6.95-4.57" transform="translate(-63.85 -133.89)"/><path class="cls-19" d="M268.84,308.63c-8.06-4.39-18.21-1.58-21.73,7.25-1.08,2.72-2.13,7.75.33,10.05,3.5,3.28,12.22.14,16.13-.17,7.31-.58,14.61.52,21.93.32,3.39-.09,6.65-.54,6.83-4.58s-3.53-7.82-6.9-9.61c-5.41-2.87-14.84.35-17.95-5.87-.86-1.72-3.45-.21-2.59,1.52,2.33,4.65,7,5.22,11.74,5.56,4.09.29,13.62,1.87,11.46,8,0,1.86-.85,2.53-2.59,2-1.28,0-2.55,0-3.82,0-1.91,0-3.82-.15-5.73-.23a109,109,0,0,0-11.43-.14c-3,.19-9.76,2.46-12.31,1.47-5.37-2.1-2.61-8.36.43-11.38,4-4,9.92-4.15,14.68-1.56,1.7.92,3.22-1.67,1.52-2.59Z" transform="translate(-63.85 -133.89)"/></g><g class="cls-3"><path class="cls-19" d="M267.22,298.16a17.14,17.14,0,0,0-9.72,4.46c-.91.86-1.7,2.45-.72,3.22a2,2,0,0,0,1.25.32c1.75,0,3.4-.77,5.09-1.2s3.71-.47,5,.73l1-8.17a14.79,14.79,0,0,0-3.78,1.17" transform="translate(-63.85 -133.89)"/><path class="cls-19" d="M267.22,296.66a19.57,19.57,0,0,0-7.69,2.57c-1.87,1.13-4.4,2.84-4.65,5.22a2.91,2.91,0,0,0,3.15,3.21c3,0,6.57-2.79,9.32-.68,1,.79,2.13-.33,2.25-1.29l1-8.17c.14-1-1.06-1.61-1.9-1.45a20.19,20.19,0,0,0-4.14,1.33c-1.77.76-.24,3.35,1.51,2.59a16.49,16.49,0,0,1,3.43-1l-1.9-1.45-1,8.17,2.26-1.3c-2.86-2.2-6-.74-9.09,0-3.87.91.06-1.84,1.27-2.57a15.91,15.91,0,0,1,6.18-2.16c1.88-.25,1.91-3.25,0-3Z" transform="translate(-63.85 -133.89)"/></g><g class="cls-3"><path class="cls-4" d="M273.27,296.75c-2.4-7.2,1.7-14.79,5.66-21.27,2.74-4.49,5.51-9,9.26-12.73a64.49,64.49,0,0,1,8.53-6.72l13.69-9.6a15.83,15.83,0,0,0,4.55-4.18c2.31-3.65,1.29-8.39.19-12.57a1.61,1.61,0,0,0-.72-1.15c-.43-.19-1,.34-.74.7L312.62,224" transform="translate(-63.85 -133.89)"/><path class="cls-4" d="M274.72,296.36c-2.55-9.61,4.84-20,10.26-27.5,5.59-7.69,14-12.56,21.62-17.94,4.94-3.46,10.73-6.49,11.22-13.15.21-2.75.05-11.55-4.43-10.54a1.44,1.44,0,0,0-1.05,1l-.09.56h2.89l-1.07-5.19c-.39-1.89-3.28-1.09-2.89.8l1.07,5.19c.28,1.4,2.64,1.46,2.89,0-1.6,0-1.95.66-1,2l.36,1.62c.62,3.43.57,6.35-1.7,9.2s-6.82,5.25-10,7.44c-5.74,4-12.11,7.8-16.89,13a78.12,78.12,0,0,0-11,16.42c-2.95,5.64-4.8,11.47-3.12,17.78a1.5,1.5,0,0,0,2.89-.79Z" transform="translate(-63.85 -133.89)"/></g><g class="cls-3"><path class="cls-20" d="M282.86,335.74a54.07,54.07,0,0,0-18.08-5.48c4.71,5.34,9.66,10.86,16.26,13.54s14.41,2.13,21.2-.35,12.8-6.72,18.44-11.25A85.15,85.15,0,0,1,280,334.77" transform="translate(-63.85 -133.89)"/><path class="cls-20" d="M283.62,334.45a59.86,59.86,0,0,0-18.44-5.64,1.52,1.52,0,0,0-1.46,2.51c7.56,8.55,15.75,16.13,27.89,15.74,11.56-.36,21.37-6.83,30.13-13.8,1.2-.95-.1-2.92-1.46-2.51a86.21,86.21,0,0,1-39.92,2.58c-1.89-.33-2.7,2.56-.8,2.89a89.65,89.65,0,0,0,41.52-2.57l-1.46-2.51c-8.1,6.45-17.31,12.57-28,12.92-11.33.38-18.78-7-25.77-14.86l-1.46,2.51A57.28,57.28,0,0,1,282.1,337c1.73.84,3.25-1.74,1.52-2.59Z" transform="translate(-63.85 -133.89)"/></g><g class="cls-3"><path class="cls-21" d="M289.63,328.91c-7.94-4-17.42-1.86-26,.32,3.74-.56,7.43,1,11,2.31,14.1,5.29,30.59,7.33,43.77,0-5.59,1.44-11.19-1.71-16.76-3.19a29.38,29.38,0,0,0-11.84-.66" transform="translate(-63.85 -133.89)"/><path class="cls-21" d="M290.39,327.62c-8.86-4-18.12-2.11-27.18.16-1.61.41-1.32,3.08.39,3,5.38-.4,10.18,2.28,15.18,3.84a73.31,73.31,0,0,0,14,2.92,45.76,45.76,0,0,0,26.34-4.61c1.59-.84.42-3-1.16-2.75-5.72,1-10.6-1.82-16-3.19a33.19,33.19,0,0,0-12.24-.71c-1.9.23-1.92,3.23,0,3,5.85-.7,10.94.38,16.46,2.22,4.24,1.4,8.09,2.37,12.54,1.58l-1.16-2.74c-9.07,4.75-19.31,5.36-29.27,3.55-8.12-1.48-16.41-6.73-24.71-6.11l.4,2.95c8.18-2.05,16.82-4.07,24.87-.47,1.75.78,3.28-1.81,1.52-2.59Z" transform="translate(-63.85 -133.89)"/></g><g class="cls-3"><path class="cls-22" d="M257.22,260.34l7.6-.19a1.63,1.63,0,0,1,.82.11c.57.27.67,1,.69,1.66a3,3,0,0,1-.1,1.08,2,2,0,0,1-1.69,1.15,5.27,5.27,0,0,1-2.11-.35c-1.09-.35-2.16-.75-3.22-1.2a3.63,3.63,0,0,1-1.23-.72,1.39,1.39,0,0,1-.42-1.31" transform="translate(-63.85 -133.89)"/><path class="cls-22" d="M257.22,261.84l3.8-.1c.48,0,3.54-.42,3.8-.09,1,1.26-1.66.8-2,.7-.61-.19-3.81-1-3.77-1.78.12-1.92-2.88-1.92-3,0-.15,2.67,2.63,3.49,4.67,4.23s4.86,1.62,6.47-.52c1.13-1.5.87-4.55-1-5.39-1.12-.52-2.63-.21-3.82-.18l-5.18.13c-1.93,0-1.93,3.05,0,3Z" transform="translate(-63.85 -133.89)"/></g><g class="cls-3"><path class="cls-22" d="M261.79,262.91a5.64,5.64,0,0,1,.14-2.17,6,6,0,0,1,.86-1.47l1.25-1.69a1.56,1.56,0,0,1,.65-.6c.44-.16.91.11,1.34.28a5.69,5.69,0,0,1,1.24.52,2.12,2.12,0,0,1,.64,2.31,5.09,5.09,0,0,1-1.43,2.08,8.65,8.65,0,0,1-2,1.54,2.27,2.27,0,0,1-1.84.23" transform="translate(-63.85 -133.89)"/><path class="cls-22" d="M263.29,262.91a3.8,3.8,0,0,1,.8-2.88c.31-.43.63-.84.93-1.27s.17-.26.83,0c1.11.49.52,1.3-.13,2s-1.76,1.92-2.7,1.7c-1.88-.44-2.68,2.45-.8,2.89,3.7.86,9.7-4.91,6.38-8.43a6.15,6.15,0,0,0-3.06-1.46,2.55,2.55,0,0,0-2.56,1c-1.64,2-2.84,3.76-2.69,6.39.11,1.92,3.11,1.93,3,0Z" transform="translate(-63.85 -133.89)"/></g><g class="cls-3"><path class="cls-22" d="M333.27,264.25c.34.82-.21,1.71-.62,2.49a8.12,8.12,0,0,0-.69,1.77,2.37,2.37,0,0,0,.08,1.85,1.79,1.79,0,0,0,2.28.47,4,4,0,0,0,1.65-1.91,11.06,11.06,0,0,0,1.13-4.59.82.82,0,0,0-.1-.49.76.76,0,0,0-.54-.25,5.17,5.17,0,0,0-1.47,0" transform="translate(-63.85 -133.89)"/><path class="cls-22" d="M331.83,264.64c.13.58-.46,1.28-.69,1.77a10.53,10.53,0,0,0-.63,1.7,4,4,0,0,0,.23,3c1.07,1.77,3.54,1.75,5,.55,1.77-1.44,2.53-4.11,2.77-6.28a3.16,3.16,0,0,0-.46-2.61c-.74-.82-2.07-.8-3.07-.72-1.91.15-1.93,3.15,0,3,.33,0,.95-.15,1.25.08l-.68-.9c.3.85-.3,2.49-.62,3.31-.11.28-1.23,2.57-1.64,1.94s.83-2.3,1.06-2.8a4,4,0,0,0,.36-2.84c-.45-1.88-3.34-1.09-2.89.79Z" transform="translate(-63.85 -133.89)"/></g><g class="cls-3"><path class="cls-22" d="M332,269.63c-1,.24-1.91-.36-2.89-.47a9.13,9.13,0,0,1-1.48-.1c-.49-.12-1-.55-.87-1l-.41,1.28a.68.68,0,0,0-.05.42.68.68,0,0,0,.32.33,6.88,6.88,0,0,0,3.23.94,20.1,20.1,0,0,0,3.38-.16" transform="translate(-63.85 -133.89)"/><path class="cls-22" d="M332,268.13a5.88,5.88,0,0,1-2.07-.34,7.76,7.76,0,0,0-.82-.13l-.79,0q-.6-.15-.06.39a1.51,1.51,0,0,0-2.95-.4c-.29.9-.77,1.93-.3,2.85a3.39,3.39,0,0,0,1.9,1.39,13.13,13.13,0,0,0,6.32.47c1.91-.19,1.93-3.19,0-3a17.26,17.26,0,0,1-3.66.13,6.71,6.71,0,0,1-1.77-.47c-.62-.38-.57-.29.13.28l.27-.85-2.94-.4a2.67,2.67,0,0,0,2.46,2.56,15.46,15.46,0,0,1,2,.27,5.39,5.39,0,0,0,2.25.28c1.89-.25,1.91-3.25,0-3Z" transform="translate(-63.85 -133.89)"/></g><g class="cls-3"><path class="cls-22" d="M335.42,263.42a22.05,22.05,0,0,1-4-.13c-.3,0-.67-.05-.83.21a.54.54,0,0,0,.16.64,1.53,1.53,0,0,0,.65.29l4.46,1.18a2.1,2.1,0,0,1,.83.35,1.59,1.59,0,0,1,.48,1.2,3,3,0,0,1-.37,1.51" transform="translate(-63.85 -133.89)"/><path class="cls-22" d="M335.42,261.92c-1.6.07-7.58-1-6.21,2.5.52,1.35,2.07,1.52,3.29,1.85l2.48.65c.74.2.93.18.54,1-.82,1.73,1.77,3.26,2.59,1.51.73-1.54.95-3.67-.65-4.77a8.58,8.58,0,0,0-2.67-.89l-1.49-.4-1-.26c-.61-.28-.67-.16-.2.39l-.44,1.06c-.4.33-.05.2.27.28a5.71,5.71,0,0,0,1.24.09c.75,0,1.49,0,2.24,0,1.92-.09,1.93-3.09,0-3Z" transform="translate(-63.85 -133.89)"/></g><g class="cls-3"><path class="cls-23" d="M300.88,504.64a27.2,27.2,0,0,0-5.86,9c-.69,1.73-1.13,3.92.12,5.3s3.5,1.14,5.34.71c3.07-.72,6.55-2.07,7.43-5.1,1.39-4.77-4.72-8.63-5.11-13.58" transform="translate(-63.85 -133.89)"/><path class="cls-24" d="M299.82,503.58c-3.13,3.32-7.56,8.8-6.92,13.74.57,4.34,5.05,4.48,8.44,3.64,3.74-.93,7.86-3,8.25-7.32.44-5-4.64-8.36-5.35-13.09-.28-1.9-3.17-1.09-2.89.8.74,4.9,8.78,11.31,2.91,15.3-2.4,1.63-9.63,3.6-8.11-1.73,1-3.47,3.37-6.65,5.79-9.22,1.32-1.41-.79-3.54-2.12-2.12Z" transform="translate(-63.85 -133.89)"/></g><g class="cls-25"><path class="cls-26" d="M313.36,184.8a728.47,728.47,0,0,0-21.19,141.88,118.44,118.44,0,0,1,30.92,5.64,42.12,42.12,0,0,1-27.59,15.41c-4.53.56-9.41.46-13.27,2.84-6.07,3.74-7.05,11.78-7.41,18.74a7.2,7.2,0,0,0,.71,4.41,6.75,6.75,0,0,0,3.36,2.28c15.32,6.05,32.75.21,47.57-6.89,7.11-3.4,14.18-7.19,19.7-12.7,6-6,9.82-13.62,12.64-21.45,11-30.54,7.57-63.94,4-96.09-1.24-11.22-2.52-22.58-6.51-33.18-1.6-4.24-3.72-8.46-7.27-11.4-3-2.54-6.93-3.92-10.77-5.09A140.36,140.36,0,0,0,313.31,184" transform="translate(-63.85 -133.89)"/><path class="cls-26" d="M311.91,184.4a740.13,740.13,0,0,0-21.24,142.28,1.52,1.52,0,0,0,1.5,1.5,123.7,123.7,0,0,1,30.52,5.59l-.66-2.51a41.83,41.83,0,0,1-14,11.19c-6.22,3.05-12.39,3.48-19.09,4.46-10.22,1.5-14.32,8.69-15.35,18.41-.39,3.63-1.16,8.12,2.07,10.68,3.78,3,9.95,3.68,14.59,4,12.32.72,24.42-3.71,35.4-8.82s21.35-11.3,28-21.84,10-23,12-35.08c4.47-27.21,1.18-55.29-2.18-82.45-1.46-11.84-3-27-11.23-36.41-4.39-5-10.91-6.91-17.1-8.63a150.25,150.25,0,0,0-21.85-4.22c-1.92-.23-1.9,2.77,0,3a145.13,145.13,0,0,1,17.53,3.19c6.17,1.54,13.6,3,18.26,7.67,7.78,7.76,9.53,21.68,11,32.06,3.12,22.73,5.7,46.17,4.41,69.14-1.24,21.95-6.19,49.39-25.51,62.85a105.14,105.14,0,0,1-30.63,14.2c-7.66,2.19-32.75,6.57-31.93-6.62.31-5,1-11.09,4.85-14.78,4.41-4.24,11.36-3.39,17-4.41a43.84,43.84,0,0,0,25.94-15.42,1.52,1.52,0,0,0-.66-2.51,126.4,126.4,0,0,0-31.32-5.7l1.5,1.5A736,736,0,0,1,314.81,185.2c.46-1.87-2.43-2.67-2.9-.8Z" transform="translate(-63.85 -133.89)"/></g><g class="cls-8"><path class="cls-4" d="M311.19,188A1052.18,1052.18,0,0,0,289.7,327.77a103.54,103.54,0,0,0-28.29-.88,2.44,2.44,0,0,0-.9,4.56q7.07,4,13.82,8.46c5.79,3.85,11.57,8.17,14.92,14.24s3.6,14.31-1.14,19.38c-3.28,3.5-8.4,4.91-13.21,4.56s-9.36-2.26-13.6-4.55c-17.38-9.37-30.74-25.51-37.61-43.93s-7.38-38.94-2.45-58c1.88-7.26,4.52-14.3,6.43-21.55,1.32-5,2.3-10.15,3.94-15.08,4.23-12.81,12.76-23.85,22.54-33.18A62.53,62.53,0,0,1,268,191.4c9.85-5.18,21.34-6.07,32.46-6.87,3.51-.25,7.45-.36,10,2" transform="translate(-63.85 -133.89)"/><path class="cls-4" d="M309.75,187.61A1067.91,1067.91,0,0,0,288.2,327.77l1.89-1.45a111,111,0,0,0-18.29-1.5c-3.29,0-10.76-1-13.19,2.05-1.63,2.06-.67,4.2,1,5.76,1.86,1.74,5,2.88,7.14,4.22,2.76,1.69,5.5,3.43,8.17,5.26,5.33,3.64,10.77,7.88,13.55,13.88s2.59,14-3.28,18.1c-11.21,7.86-27-3.09-35.66-10.33-18.86-15.74-29.31-39.41-30-63.8-.39-13.71,2.56-26.6,6.66-39.58,3.77-11.93,5.49-24.61,11.62-35.65,6.48-11.65,16.58-23.17,27.91-30.3,6.37-4,13.63-6,21-7.08,6.28-.92,17.52-3.52,23,.48,1.56,1.14,3.06-1.47,1.51-2.6-4.66-3.4-10.7-2.26-16.09-1.8a93.72,93.72,0,0,0-19.49,3.25c-12.34,3.77-22.14,12.72-30.39,22.34a77.89,77.89,0,0,0-17,32.26c-3.53,14.06-8.94,27.84-10.88,42.24-3.33,24.73,2.55,50.38,18.12,70.1,7.5,9.5,17.21,17.77,28.26,22.84,8.78,4,21.53,5.3,27.26-4.36,6.51-11-1.81-22.88-10.37-29.52-2.52-1.95-5.17-3.71-7.84-5.44q-1.89-1.23-3.8-2.41c-1.13-.69-5.73-2.55-6.2-3.68-1.54-3.79,2.41-3,4.24-3.1q3.78-.19,7.57-.12a107.57,107.57,0,0,1,14.66,1.38,1.53,1.53,0,0,0,1.9-1.44,1062.72,1062.72,0,0,1,21.44-139.36c.42-1.88-2.47-2.69-2.89-.8Z" transform="translate(-63.85 -133.89)"/></g><g class="cls-25"><path class="cls-26" d="M313,182.23q11.54,1.41,23,3.49c5.48,1,11.11,2.17,15.65,5.39,5,3.58,8.15,9.32,10.17,15.17,6.28,18.16,3.55,38,4.36,57.2.37,8.6,1.46,17.19,1.18,25.81s-2,17.42-6.85,24.56a17.93,17.93,0,0,1-5.09,5.28,24.94,24.94,0,0,1-7.84,2.82q-7.33,1.73-14.71,3.29c-11.85,2.52-25.06,4.53-35.35-1.85a7.21,7.21,0,0,1-2.63-2.45c-.54-1,.34-2.11.24-3.21-.9-10.87.44-21.79,1.79-32.61l6.84-55c.79-6.32.58-12.65,1.79-18.91a283.1,283.1,0,0,1,7.66-28.71" transform="translate(-63.85 -133.89)"/><path class="cls-26" d="M313,183.73c6.59.83,13.16,1.79,19.71,2.93,5.64,1,11.79,1.8,16.76,4.84C360.2,198,363,213.14,364,224.62s.32,22.9.52,34.35,2.12,22.92,1.07,34.36a44.1,44.1,0,0,1-4.73,17c-3.41,6.28-7.83,8.78-14.62,10.38-11,2.58-22.64,6-34,5.38-4.69-.24-14.23-1.34-15.81-6.87-.47-1.64,0-4.51-.06-6.3-.1-3.53,0-7.05.24-10.56.79-12.34,2.72-24.64,4.24-36.9,1.7-13.64,4-27.34,4.91-41.06,1-14.4,4.7-27.76,8.89-41.53.56-1.85-2.33-2.64-2.89-.8-4.06,13.33-8,26.48-8.89,40.44-1,15-3.4,30-5.26,44.92-1.75,14.09-4.26,28.37-4.28,42.61,0,3.22-.27,6.73-.1,9.87a4.63,4.63,0,0,0,1.3,3.05c3,3.66,9.78,5.21,14.2,5.81,11.85,1.59,24.12-1.9,35.57-4.53,5.14-1.18,10.53-2.09,14.46-5.9,3.53-3.42,5.84-8.14,7.4-12.74,4.21-12.41,2.47-25.65,1.71-38.45-.83-13.87.4-27.8-.76-41.65-1-11.83-3.54-26.44-13.19-34.52-5-4.16-11.32-5.58-17.53-6.72-7.75-1.43-15.55-2.56-23.37-3.54-1.91-.24-1.9,2.76,0,3Z" transform="translate(-63.85 -133.89)"/></g></g><g id="Layer_6" data-name="Layer 6"><path class="cls-27" d="M311.72,141.39c19.87-7.54,42.95,3,56.48,19.33s19.65,37.47,25.45,57.91l8.6,30.35c3,10.64,6,21.36,7,32.37,2.79,32.25-12.24,65.44-2.89,96.43A28.35,28.35,0,0,0,411,387.5c6.11,7.61,16.86,9,26.31,11.47a90.07,90.07,0,0,1,46.11,29.15c-21.92,3.05-39-21.57-61.14-22.83-11.31-.64-22,5-33.12,6.93-2.54.43-5.26.66-7.57-.49-2.95-1.46-4.45-4.75-5.72-7.8-7.61-18.23-15.32-36.9-16.54-56.62-.89-14.25,1.67-28.46,3.36-42.64A357.87,357.87,0,0,0,363.1,223c-.76-6.88-1.76-13.86-4.75-20.11-5.91-12.34-19-20.08-32.47-22.56s-27.33-.4-40.7,2.53c-9.92,2.17-20,4.92-28.23,10.87-9,6.53-15.08,16.39-19.81,26.47a158.55,158.55,0,0,0-13,42.21c-1.06,6.67-1.71,13.43-3.52,19.93-1.36,4.91-3.39,9.66-4.18,14.7-4,25.81,24.86,50.91,14.83,75-3.7,8.91-12.38,15.77-13.4,25.37-.9,8.55,4.62,16.41,6,24.9,1.83,11.42-4.23,22.95-12.82,30.7s-19.45,12.39-30.1,16.9c8.34-7.46,16.4-15.52,21.71-25.37s7.57-21.82,3.86-32.37c-8.77,12.16-17.94,24.69-31,32.1s-31.1,8.21-41.85-2.24A48.24,48.24,0,0,0,198,402.48a259.26,259.26,0,0,1-84,27.59c-1.37-6.51,2.59-12.83,6.39-18.29,14.48-20.81,29.56-41.9,36.54-66.27,2.24-7.81,3.62-15.9,6.6-23.47,4.77-12.11,13.41-22.34,18.63-34.26s6.8-24.82,9.65-37.4a191.68,191.68,0,0,1,48.61-90c9.28-9.62,19.84-18.43,32.38-23.07s27.34-4.59,38.57,2.64" transform="translate(-63.85 -133.89)"/><g class="cls-3"><path class="cls-12" d="M234.32,351c-1.76,10.46,5.2,20.5,13.38,27.25a68.49,68.49,0,0,0,88.12-.83c6.7-5.74,12.63-14.17,10.67-22.78L332.36,364c-6.06,4-12.16,8-18.83,10.95a63,63,0,0,1-79.3-25.58" transform="translate(-63.85 -133.89)"/><path class="cls-12" d="M232.82,351c-1.7,13.32,7.87,24.33,18.06,31.55A69.92,69.92,0,0,0,330,383.7c9.83-6.51,20.2-16.59,17.95-29.44a1.51,1.51,0,0,0-2.21-.89c-18.74,12.4-36.69,26.3-60.36,25.22a62.15,62.15,0,0,1-49.84-30c-1-1.65-3.6-.14-2.59,1.51a64.57,64.57,0,0,0,81.35,26.11c11.76-5.15,22.3-13.24,33-20.29l-2.2-.9c2.31,13.2-11.38,23.48-21.52,29a66.83,66.83,0,0,1-68.4-2.27c-10.48-6.68-21-17.36-19.31-30.8.24-1.91-2.76-1.89-3,0Z" transform="translate(-63.85 -133.89)"/></g><g class="cls-3"><path class="cls-12" d="M234,342.66c-2.52,6.2-.2,20.16,3.73,25.59s9.66,9.26,15.47,12.6a157.32,157.32,0,0,0,16.68,8.35c7.59,3.27,15.63,6,23.9,5.83,13.88-.23,26.26-8.32,37.67-16.24,4.13-2.87,8.32-5.82,11.4-9.8s4.95-9.2,3.77-14.09C330,368.83,309.55,379.31,287.84,380s-42.74-14.84-52.49-34.24c6.72,7.59,12.36,19.43,20.26,25.79" transform="translate(-63.85 -133.89)"/><path class="cls-12" d="M232.6,342.26c-3.49,9.91.07,23.53,7.37,30.84,5.81,5.81,13.46,9.83,20.73,13.47,7.07,3.54,14.5,6.91,22.23,8.7,15.52,3.6,29.46-2.12,42.35-10.48,10.51-6.81,25.46-15.58,22.83-30.29-.22-1.22-1.73-1.31-2.51-.66-16.79,13.86-38.31,25.43-60.71,24.63-20.75-.74-39-15.63-48.24-33.49l-2.36,1.82c7.12,8.3,11.8,18.64,20.26,25.79,1.47,1.24,3.6-.88,2.12-2.13-8.44-7.13-13.14-17.48-20.26-25.78-1.15-1.35-3.11.37-2.36,1.81,9.56,18.45,28.14,33.42,49.37,34.9C307,383,330.11,370.5,347.72,356l-2.51-.66c2.53,14.12-15.63,23.56-25.75,29.59-12.32,7.34-25,10.74-39.15,6.58-12.58-3.72-27.22-10.4-37-19.35-7.35-6.72-11.21-19.41-7.81-29.06.64-1.83-2.25-2.61-2.89-.8Z" transform="translate(-63.85 -133.89)"/></g><g class="cls-3"><path class="cls-12" d="M288.39,382.67c-.64,3.33-.74,7.74,2.39,9a7,7,0,0,0,2.77.36,71.37,71.37,0,0,0,38.54-11.87c3.34-2.22,6.59-4.84,8.43-8.41,2.18-4.23,2.12-9.21,2-14a100.92,100.92,0,0,1-53,23.17" transform="translate(-63.85 -133.89)"/><path class="cls-12" d="M286.94,382.27c-.74,4.49-.66,10.15,4.8,11.19,7.56,1.43,17.71-1.47,24.76-3.92,7.4-2.57,15-6.23,20.86-11.5,6.07-5.44,6.82-12.48,6.67-20.23a1.52,1.52,0,0,0-2.56-1.06,101,101,0,0,1-51.92,22.73c-1.89.24-1.91,3.25,0,3a104.68,104.68,0,0,0,54-23.61L341,357.81c.13,6.58-.21,12.76-5.22,17.61-3.92,3.79-9.21,6.61-14.14,8.84A71.15,71.15,0,0,1,305,389.47a42,42,0,0,1-9.75,1c-1.79-.12-4.46-.71-5.53-2.41-.6-1-.05-4.06.11-5,.31-1.89-2.58-2.7-2.9-.8Z" transform="translate(-63.85 -133.89)"/></g><g class="cls-28"><path class="cls-29" d="M311.32,142.64c19.87-7.53,42.94,3,56.47,19.33s19.66,37.47,25.45,57.92l8.6,30.35c3,10.63,6.05,21.35,7,32.37C411.64,314.85,396.61,348,406,379a28.17,28.17,0,0,0,4.68,9.72c6.11,7.61,16.86,9,26.3,11.48a90,90,0,0,1,46.12,29.14c-21.92,3.05-39-21.56-61.14-22.82-11.31-.65-22,5-33.13,6.92-2.53.44-5.26.66-7.56-.48-3-1.47-4.45-4.76-5.72-7.81C367.9,387,360.19,368.29,359,348.56c-.89-14.25,1.66-28.46,3.36-42.64a357.3,357.3,0,0,0,.36-81.65c-.76-6.88-1.76-13.86-4.74-20.1-5.91-12.35-19-20.09-32.48-22.57s-27.32-.39-40.69,2.53c-9.93,2.17-20,4.92-28.24,10.87-9,6.53-15.07,16.39-19.81,26.47a158.17,158.17,0,0,0-13,42.21c-1.07,6.67-1.71,13.43-3.52,19.93-1.37,4.92-3.4,9.67-4.18,14.7-4,25.82,24.86,50.92,14.83,75-3.71,8.91-12.39,15.78-13.4,25.37-.91,8.55,4.62,16.41,6,24.9,1.83,11.42-4.22,23-12.81,30.7s-19.45,12.39-30.1,16.9c8.33-7.46,16.4-15.52,21.7-25.37s7.58-21.82,3.87-32.37c-8.77,12.16-17.95,24.69-31,32.1s-31.1,8.21-41.86-2.24a48.24,48.24,0,0,0,64.28-39.6,259.2,259.2,0,0,1-83.95,27.59c-1.38-6.51,2.59-12.83,6.39-18.29,14.47-20.8,29.55-41.9,36.54-66.26,2.24-7.82,3.62-15.91,6.6-23.48,4.77-12.11,13.41-22.34,18.63-34.26s6.8-24.82,9.65-37.4a191.68,191.68,0,0,1,48.61-90c9.27-9.62,19.84-18.43,32.37-23.07S299.72,134,311,141.18" transform="translate(-63.85 -133.89)"/><path class="cls-29" d="M311.72,144.09c24.47-8.74,49,7.8,61.55,28.14,13.74,22.34,19,49.67,26.05,74.61,3.82,13.46,7.88,27,8.33,41,.44,13.85-2,27.58-3.9,41.23-1.77,12.56-3.28,25.31-1.76,38,1.16,9.7,3.57,20.88,12.07,26.83,10.22,7.14,24.27,7.31,35.57,12.26A90.31,90.31,0,0,1,482,430.43l1.06-2.56c-21.12,2.42-36-17.8-55.53-22.05-12.43-2.7-23.75,2.73-35.63,5.48-3.86.89-8.59,2.15-11.81-1-2.72-2.68-3.86-7.22-5.27-10.63-2.72-6.59-5.37-13.21-7.66-20-4.69-13.88-7.42-28.06-6.74-42.76s3.47-29,4.69-43.59a357.63,357.63,0,0,0,1-43.8c-.51-13.14-.73-27.43-4.54-40.12-6.7-22.26-30.39-31.1-51.8-30.34a140.4,140.4,0,0,0-38.51,7.09,53.27,53.27,0,0,0-27,19.35c-7.11,9.74-12,21.32-15.77,32.71-4.54,13.61-5.71,27.53-8.79,41.43-2.36,10.69-6.76,19.65-4.85,30.83,1.71,10.08,6.46,19.35,10.44,28.66,4.65,10.88,9.13,23.31,3.74,34.78-4.77,10.17-14.55,17.64-12.86,29.95,1,7.37,5.28,13.88,6,21.31.72,7.1-1.69,14.08-5.55,20-8.4,12.8-23.26,19-36.82,24.79l1.82,2.36c16.49-14.87,33.59-35.44,26-59.21a1.53,1.53,0,0,0-2.75-.36c-8.64,12-17.79,24.68-31.06,31.9-12.2,6.64-28.68,7.53-39.42-2.34l-1.46,2.51C162.71,455,194.7,435.41,199,404.13a1.52,1.52,0,0,0-2.2-1.7,262.49,262.49,0,0,1-83.6,27.44l1.84,1.05c-1-7.11,3.43-13.07,7.25-18.58,3.71-5.35,7.45-10.68,11.06-16.1,6.86-10.29,13.35-20.9,18.39-32.21s7.35-23.23,11-35c3.75-12.13,11.38-22.08,17.33-33.13,5.73-10.62,8.37-22.15,10.72-33.9A222.15,222.15,0,0,1,200,228a189.52,189.52,0,0,1,37.63-61.71c17.67-19.33,46.09-40,72.56-23.85,1.66,1,3.16-1.58,1.52-2.59-20.75-12.67-45.27-3.47-62.4,10.9-18.92,15.87-34.11,37.06-44.84,59.2A194.12,194.12,0,0,0,192,243.13c-3.67,13.34-5.06,27.29-9.67,40.37-4.37,12.41-12.78,22.63-18.45,34.39-5.89,12.2-7.32,25.9-12.17,38.49-5.47,14.19-13.49,27.24-21.94,39.82-4.25,6.33-8.87,12.45-13,18.87-3.29,5.17-5.55,10.44-4.65,16.65.13.87,1.13,1.16,1.85,1A265.08,265.08,0,0,0,198.3,405l-2.2-1.69a47.42,47.42,0,0,1-62.44,38.56,1.51,1.51,0,0,0-1.46,2.5c10.67,9.81,26.37,10.14,39.23,4.66,15.74-6.72,26.28-21.4,36-34.83l-2.74-.35c7.3,22.72-9.5,42.15-25.18,56.28-1.37,1.24.38,3,1.82,2.36,19.3-8.2,45-20.9,44-45.79-.49-12.44-10.36-22.81-3.85-35.28,4.76-9.13,12.21-15.88,13-26.72,1.44-19.65-13.59-36.24-16.73-55a37.58,37.58,0,0,1,1.41-17.55,140.44,140.44,0,0,0,5-20.76c2-13.47,4.8-26.57,9.73-39.32,4.59-11.89,10.47-24.3,20.08-33,10.46-9.45,25.14-12.5,38.6-15,24.62-4.53,58.25-1.87,66.38,26.93,3.87,13.72,4,29.21,4.35,43.37a357.45,357.45,0,0,1-1.57,43.78c-1.38,14.2-4.16,28.33-4.37,42.62-.2,13.6,2.63,26.85,7,39.68,2.49,7.34,5.4,14.53,8.37,21.69,1.8,4.34,3.43,10,8,12.2,5.15,2.48,12.21-.11,17.27-1.56,7.56-2.17,15.13-5,23.11-4.78,23,.67,38.28,25.57,62,22.85a1.52,1.52,0,0,0,1.06-2.56,92.74,92.74,0,0,0-27.27-21.95c-10.43-5.51-21.42-7.39-32.51-10.92-6.3-2-11.82-5.28-14.87-11.36-3.36-6.69-4.51-14.76-5-22.15-.84-14,1.55-27.94,3.53-41.75,1.86-13,3.53-26.25,2.12-39.41-1.49-13.79-5.8-27.12-9.57-40.42-7.05-24.88-12.44-52.22-27.48-73.81-13.51-19.4-38.37-33.85-62.2-25.35-1.8.65-1,3.55.8,2.9Z" transform="translate(-63.85 -133.89)"/></g><g class="cls-28"><path class="cls-29" d="M314.47,159.75c14.69-7.51,33.23-.38,44.82,11.37a66.22,66.22,0,0,1,15,23.63c11.5,31.3-1.78,66.61,4.73,99.31,4.74,23.87,19.87,45.46,20.25,69.78.15,9.2-1.71,19.11,2.89,27.08,5.54,9.59,17.86,12.19,28.45,15.42a116.37,116.37,0,0,1,40.72,22.1A97.57,97.57,0,0,0,425.23,410a28.57,28.57,0,0,0-10,.12c-5.39,1.26-9.9,5.11-15.3,6.36-6.61,1.54-13.69-1.18-18.75-5.71s-8.39-10.67-11.08-16.91a119.36,119.36,0,0,1-9.71-49.09c.19-11.31,2-22.52,3.25-33.76a360.63,360.63,0,0,0-1.11-89.42c-1-7.45-2.37-15.12-6.5-21.41-9.11-13.91-28-16.56-44.62-17.89a26.73,26.73,0,0,1,1.71-21.14" transform="translate(-63.85 -133.89)"/><path class="cls-29" d="M315.22,161.05c24-11.44,48.73,11.64,57,32.55,9.14,23.07,4.24,48.44,3.47,72.45-.38,11.8.28,23.59,3.41,35s8.22,22.46,12.3,33.69,6.6,22.15,6.27,34c-.27,9.73-.76,20,6.69,27.46,7.23,7.22,18.12,9.07,27.46,12.08a116.16,116.16,0,0,1,38.41,21.19l1.82-2.36A100.87,100.87,0,0,0,442,412c-9.33-2.85-21.25-6.07-30.67-2.19-6.57,2.7-11.91,6.84-19.45,5-6.65-1.6-11.77-6.43-15.42-12-6.75-10.32-10.51-23.16-12.71-35.2-4.85-26.64,2-53.3,3.24-80a361.24,361.24,0,0,0-.46-41.88c-.83-12-1.5-24.9-4.86-36.54-6.53-22.59-29.77-26.81-50.26-28.49l1.45,1.1a26.25,26.25,0,0,1,1.56-20c.85-1.72-1.73-3.24-2.6-1.51a29.35,29.35,0,0,0-1.85,22.3,1.57,1.57,0,0,0,1.44,1.1c10.37.85,21.24,2,30.73,6.55,10.78,5.23,16,14.55,18.07,26.05,4.8,26.46,5.19,54.29,3.19,81-1.87,25.1-7.19,49.48-1.84,74.56,3.62,17,12.2,45.61,33.75,46.41,6.06.22,10.7-2.91,16-5.29,7-3.13,14.53-1.82,21.77-.28a98.29,98.29,0,0,1,37.49,17c1.36,1,3.13-1.27,1.81-2.35a120.35,120.35,0,0,0-30-18.35c-10.3-4.34-22.52-5.73-32-11.86-12.27-8-9.28-21.65-9.65-34.17-.36-11.73-4.05-23-8.22-33.82-4.47-11.67-9.62-23.2-12.07-35.51-2.56-12.88-2-26.13-1.14-39.14,1.54-24,4-49.34-8.67-71-11-18.87-34.78-35.61-56.93-25-1.74.83-.22,3.42,1.51,2.59Z" transform="translate(-63.85 -133.89)"/></g><g class="cls-28"><path class="cls-29" d="M346.29,353.62c6.35-6.72,15.82-23.58,15.93-32.37,2,6.79-2.33,23-1.82,30.06.35,4.92,1.73,9.71,3.1,14.45l10.15,35.09a147.08,147.08,0,0,1-27.36-47.23" transform="translate(-63.85 -133.89)"/><path class="cls-29" d="M347.35,354.68c7.79-8.52,15.83-21.61,16.37-33.43l-3,.39c2.56,10.34-2.94,21.23-1.66,31.71.94,7.81,3.71,15.44,5.88,23l7.21,24.93,2.51-1.46a148.8,148.8,0,0,1-27-46.57c-.65-1.8-3.55-1-2.89.8a153.07,153.07,0,0,0,27.74,47.89c1,1.17,2.9-.08,2.5-1.46l-6.94-24c-2.36-8.18-5.95-17-6.27-25.56-.36-9.91,4.22-20.2,1.79-30-.42-1.69-2.87-1.25-2.95.4-.5,10.92-8.29,23.43-15.49,31.31-1.3,1.43.82,3.55,2.12,2.12Z" transform="translate(-63.85 -133.89)"/></g><g class="cls-28"><path class="cls-29" d="M347.55,351.79c2.2-5,8.76-6.56,11.59-11.2,1.5-2.47,1.74-5.49,1.94-8.38,1.4,5.11.83,10.51.84,15.81a70.64,70.64,0,0,0,5.4,26.88c3,7.23,7.29,14.25,7.51,22.07l-15.21-20.53c-5.57-7.52-11.44-16.22-9.8-25.43" transform="translate(-63.85 -133.89)"/><path class="cls-29" d="M348.84,352.54c2.3-4.28,7.1-5.88,10.23-9.4,2.74-3.08,3.22-7,3.51-10.93l-2.94.4c1.32,5.72.64,11.44.81,17.25a73.06,73.06,0,0,0,2.23,15.85c2.72,10.63,9.93,20.2,10.65,31.26l2.8-.76c-5.4-7.28-10.88-14.52-16.2-21.87-5-6.92-9.78-14.41-8.61-23.33.25-1.9-2.75-1.89-3,0-1.08,8.22,2.56,15.48,7.07,22.1,5.74,8.41,12.09,16.44,18.15,24.62.79,1.07,2.9.88,2.79-.76-.71-10.87-7.36-20-10.28-30.28A70.55,70.55,0,0,1,363.42,348c0-5.48.36-10.82-.89-16.21-.4-1.73-2.82-1.21-2.95.4-.45,6.06-2.41,9.05-7.23,12.56-2.45,1.8-4.64,3.53-6.1,6.26-.91,1.7,1.68,3.22,2.59,1.51Z" transform="translate(-63.85 -133.89)"/></g><g class="cls-28"><path class="cls-29" d="M347.4,354.63a7.7,7.7,0,0,1,3.32-5.86c1.57-1.07,3.49-1.52,5.12-2.5a9.23,9.23,0,0,0,3.87-10.5c1.05,3.6.7,7.43.59,11.17a87.76,87.76,0,0,0,16.74,54c-6.68-2.79-9-10.92-13.63-16.45-2.63-3.12-6.09-5.45-8.62-8.64-2.87-3.59-4.4-8.08-5.42-12.56-1.11-4.94-1.85-6.43-1.82-11.49" transform="translate(-63.85 -133.89)"/><path class="cls-29" d="M348.85,355c.93-6.11,7-5.67,10.31-9.73a11.05,11.05,0,0,0,2-9.93c-.46-1.88-3.32-1.09-2.89.79,1.42,6.26.25,12.87.7,19.24a89.24,89.24,0,0,0,16.77,46.29l2.05-2.05c-7.69-3.74-10.41-13.75-16.53-19.48-4.17-3.9-7.45-7.58-9.3-13.11a51.12,51.12,0,0,1-2.91-15.26c0-1.93-3-1.94-3,0,.14,10.16,3.34,21.3,10.83,28.42a64.76,64.76,0,0,1,10.56,13.11c2.31,3.69,4.85,7,8.84,8.91,1.21.59,3-.72,2.05-2.05a88.26,88.26,0,0,1-14.24-31A85.21,85.21,0,0,1,361.8,352c-.17-5.59.61-11.15-.64-16.65l-2.89.79a7.86,7.86,0,0,1-3.19,8.81c-1.57,1.08-3.55,1.4-5.12,2.5a9.48,9.48,0,0,0-4,6.76c-.29,1.89,2.6,2.71,2.89.8Z" transform="translate(-63.85 -133.89)"/></g><g class="cls-28"><path class="cls-29" d="M309.39,164.61c-18.81-9-42.45-2.08-57.3,12.53s-22.09,35.4-25.09,56c-.92,6.28-1.49,12.65-3.26,18.75-5.09,17.56-20,33.47-16.41,51.4,1.47,7.36,6,13.8,7.75,21.09a29.77,29.77,0,0,1-8.63,28.33c-5.95,5.47-14.28,8.61-18.36,15.6s-2.7,15.61-2,23.63.16,17.3-6.16,22.28a43.64,43.64,0,0,1,13.6-8.27,6.74,6.74,0,0,1,3.65-.59c3.49.69,4,5.53,3,8.95-3.48,12.65-14.92,21.87-27.3,26.19s-25.78,4.55-38.89,4.73c14.11,2.06,28.62,11.21,41.56,5.21,4.66-2.17,8.26-6.05,11.74-9.84l24.16-26.36c4.45,9.91,2.17,21.81-3.3,31.2s-13.76,16.74-22,23.84c5.14,1.89,10.63-1.49,14.87-5,8-6.6,15.43-14.3,20.16-23.58s6.61-20.31,3.56-30.27c-1.57-5.14-4.44-10.21-3.67-15.53.43-3,2-5.75,3.45-8.45,7-13.1,14.89-30.93,11.55-45.4-2.43-10.57-8.21-16.26-11.72-26.53-2.82-8.28-7.76-18.2-6.71-26.89,1.12-9.29,4.45-18.16,7.75-26.92L236.7,231c3.18-8.44,6.41-17,11.72-24.28,14.21-19.56,40.3-26.32,64.44-27.55l-.8-14.95" transform="translate(-63.85 -133.89)"/><path class="cls-29" d="M310.15,163.31c-17.73-8-38.31-3.63-53.47,7.89-17.25,13.11-26.13,34.48-30.07,55.21-2.34,12.35-3.09,24.26-8.51,35.83-4.38,9.33-10.09,18.4-12.12,28.64a32.55,32.55,0,0,0-.1,12.82c1.27,6.28,4.72,11.76,6.77,17.78a28.71,28.71,0,0,1-10.29,32.66c-8.2,6.09-16.68,10.53-18.24,21.61-1.7,12.05,5.52,28-5.22,37.41-1.46,1.28.66,3.38,2.12,2.13a44.7,44.7,0,0,1,10.35-6.79c4-1.86,8-1.91,7.78,3.39a16.29,16.29,0,0,1-1.25,4.79c-2.83,7.35-8.56,13.28-15.13,17.44-14.44,9.15-32.18,9.38-48.71,9.62-1.63,0-2.13,2.66-.4,2.94,13.67,2.25,28.93,11.57,42.71,5.06,6.58-3.1,11.27-9.23,16.07-14.47l20.14-22-2.5-.66c9,21.94-9.78,40.5-24.91,53.58a1.51,1.51,0,0,0,.67,2.5c10.4,2.79,20.26-8.05,26.55-14.9,7.46-8.12,13.28-17.91,14.94-28.94a38.87,38.87,0,0,0-.61-15.23c-1.94-7.72-6.16-13.66-2.25-21.69,5-10.31,10.56-20.21,12.88-31.6,2.14-10.51.59-20-4.33-29.49C227.54,318.31,221.8,307,219.6,295.2c-2.55-13.7,5.42-29,10.13-41.49,4.9-13,9-26.81,15.56-39.11,13.14-24.74,41.47-32.51,67.57-34a1.51,1.51,0,0,0,1.5-1.5l-.8-14.95c-.11-1.92-3.11-1.93-3,0l.8,14.95,1.5-1.5c-20.29,1.13-42,5.61-57.65,19.4-8.37,7.35-13.46,17-17.53,27.2-5.22,13.12-10.07,26.41-15,39.64-4.2,11.37-8.49,23.25-5.24,35.37,2.93,11,7.77,21.14,13,31.15,6.29,12.14,5.79,24,1.35,36.67a124.52,124.52,0,0,1-7.05,16c-2.34,4.54-5.33,9-5.17,14.27.21,6.78,4.35,12.8,5.06,19.56a41.43,41.43,0,0,1-3.92,21.63,62.46,62.46,0,0,1-12.12,17c-5.32,5.47-13.61,14.58-22,12.34l.67,2.51c15.89-13.74,35.11-33.53,25.67-56.5a1.52,1.52,0,0,0-2.51-.66l-16.78,18.3c-5,5.41-9.86,12.18-16.14,16.17-13.25,8.41-29.42-1.62-43.08-3.87l-.4,2.95c21.42-.3,46.17-1.36,60.92-19.35,4-4.87,10.37-15.05,5.75-21.34-5-6.83-17.68,3.54-21.83,7.11l2.12,2.13c6.71-5.86,7.28-15,6.6-23.34-.47-5.73-1.48-11.64-.28-17.35,1.31-6.29,5.53-10.25,10.58-13.76,7.37-5.15,14-9.89,17.34-18.64,3.48-9.13,2-18-1.81-26.7-2.37-5.45-4.92-10.72-5.16-16.77s1.52-11.68,3.77-17.08c3.92-9.42,9.54-18.1,12.67-27.85,3.56-11.14,3.65-23.14,6.51-34.47a96.64,96.64,0,0,1,13-30.42c13.64-20.32,40.55-33.8,64.35-23,1.75.79,3.27-1.79,1.52-2.59Z" transform="translate(-63.85 -133.89)"/></g><g class="cls-30"><path class="cls-29" d="M310,141.06a66.43,66.43,0,0,1,.07,40.87c9,.11,18.12.24,26.78,2.69s17,7.52,21.33,15.38c3.1,5.59,4,12.09,4.78,18.44q2.7,22.42,3.79,45c1.26,26.21.45,54.09-13.66,76.21-3.54,5.56-6.19,10.53-7.49,17.86-.59,3.31,1.89,6.43,3.53,9.36a242.82,242.82,0,0,0,18.64,28.44c6.77,8.9,15.22,17.93,26.33,19.28,13.82,1.68,27.32-9.19,40.89-6,9.34,2.17,15.86,10.39,24,15.51a39.58,39.58,0,0,0,26.62,5.62c-14.33-11.21-29-22.61-46.06-28.86-8.5-3.11-17.71-5-24.86-10.55-8.9-6.9-13.09-18.49-13.79-29.74s1.66-22.41,3.57-33.52c2.88-16.76,4.78-33.91,2.41-50.74-1.41-10-4.32-19.8-7.23-29.52L385.36,199c-2.53-8.46-5.09-17-9.41-24.69-5.58-9.93-13.89-18.07-22.82-25.14-6.15-4.87-12.83-9.39-20.42-11.4s-16.3-1.15-22.35,3.85" transform="translate(-63.85 -133.89)"/><path class="cls-29" d="M308.54,141.46a66.81,66.81,0,0,1,.07,40.07,1.52,1.52,0,0,0,1.45,1.9c14.25.18,30.31.48,41.5,10.69,11,10.07,10.49,28.12,11.75,41.89,2.47,26.85,5.29,55.85-2.31,82.14A80.44,80.44,0,0,1,353.52,336c-2.82,4.9-6,9.49-7.81,14.89-1.55,4.57-2.35,8.43-.15,12.83a185.86,185.86,0,0,0,10.6,17.66c6.53,10.06,13.73,21.18,23.43,28.48,9.32,7,19.25,7.34,30.14,4.19,6.74-1.94,13.59-4.85,20.73-4.6,8.06.29,14.11,5.32,20.08,10.16,10.33,8.37,21.5,13.25,35,11.55,1.1-.13,2.22-1.65,1.07-2.56-10-7.86-20.15-15.77-31.29-22.05a106.72,106.72,0,0,0-15.44-7.2c-6.13-2.25-12.56-3.77-18.44-6.68-28.35-14-17.57-50.36-14.12-74.62,1.88-13.21,2.85-26.64,1.24-39.93-1.64-13.49-5.94-26.47-9.81-39.43q-6.24-20.89-12.49-41.8c-3.42-11.34-7.33-22.31-14.7-31.75-12.63-16.19-40.83-41-62-24.83-1.52,1.15,0,3.76,1.51,2.59,11-8.38,24.76-4,35.14,3,10,6.78,19.64,15.46,26.28,25.64,7.32,11.24,10.43,24.66,14.23,37.36q6,20,12,40c3.95,13.27,7.36,26.52,7.67,40.44.31,13.76-1.68,27.39-4.05,40.91-3.56,20.29-7.24,46.4,11.26,61,10,7.86,23.64,9.4,34.83,14.95,13.07,6.49,24.65,15.51,36.09,24.47l1.06-2.57A39.3,39.3,0,0,1,464,425.13c-6.08-2.81-10.88-7.43-16.14-11.44-8.88-6.76-17.57-8.47-28.37-5.66-12.93,3.37-24.76,8.82-37,.29-11-7.61-18.68-20.33-25.66-31.43-1.91-3-3.73-6.11-5.52-9.22-1.38-2.39-3.52-5.05-4.11-7.77-1.38-6.4,4-14.3,7.19-19.49A93.48,93.48,0,0,0,366.75,306c4.38-27.37,1.28-56.28-1.84-83.62-1.49-13.07-3.49-25.38-15-33.36s-26.21-8.37-39.81-8.55l1.44,1.89a69.58,69.58,0,0,0-.07-41.66c-.57-1.83-3.47-1-2.89.8Z" transform="translate(-63.85 -133.89)"/></g><path class="cls-31" d="M268.27,259.88c.23,1.19-.65,2.29-1,3.45a1,1,0,0,0,0,.56c.12.33.51.44.85.5a33,33,0,0,0,5.15.56c.16,0,.36,0,.4-.18a.32.32,0,0,0-.06-.23c-1-1.81-3.1-2.81-4-4.66" transform="translate(-63.85 -133.89)"/><path class="cls-31" d="M266.77,259.88c.12,1.22-.81,2.17-1,3.33a2.22,2.22,0,0,0,1.58,2.54,17.71,17.71,0,0,0,3.77.57c1.19.11,2.64.43,3.58-.49a1.51,1.51,0,0,0,.38-1.46c-.58-2.24-3.15-3.3-4.21-5.25-.93-1.69-3.52-.18-2.59,1.52a9.65,9.65,0,0,0,1.93,2.39c.58.55,1.77,1.33,2,2.14l.39-1.46-.16.15,1.06-.44a11.7,11.7,0,0,1-2.36-.1,13.27,13.27,0,0,0-2.63-.37l.23.78a4.19,4.19,0,0,1,.22-.59c.14-.31.29-.62.42-.94a4.74,4.74,0,0,0,.41-2.32c-.19-1.9-3.2-1.92-3,0Z" transform="translate(-63.85 -133.89)"/><path class="cls-31" d="M254.76,257.44l.08,2.29s0,1.14,0,2.58l-3.6-1.91c-2.25-2.21-3.82-1,.84-2.22a3.83,3.83,0,0,1,1.81-.64" transform="translate(-63.85 -133.89)"/><path class="cls-31" d="M253.26,257.44c.06,1.63.11,3.25.12,4.87l2.25-1.29-3.21-1.71c-.09-.05-.51-.33-.25-.13-.36-.29-.7-.6-1.08-.86a7.09,7.09,0,0,0-.75-.45c-.23-.12-.57-.44-.17,0l.39.66v.76l-.38.67c-.72.58-.64.31-.2.25s.65-.12,1-.19c.47-.1.95-.18,1.41-.32a10.2,10.2,0,0,1,1.58-.63,1.54,1.54,0,0,0,1.5-1.5,1.52,1.52,0,0,0-1.5-1.5c-1.22.15-2.24.72-3.42,1-.56.12-1.15.18-1.69.35a1.59,1.59,0,0,0-1.16,1.93c.18.62.65.88,1.17,1.16.91.49,1.62,1.19,2.53,1.68l2.76,1.47a1.52,1.52,0,0,0,2.26-1.3c0-1.62-.06-3.24-.12-4.87-.06-1.92-3.06-1.93-3,0Z" transform="translate(-63.85 -133.89)"/><path class="cls-31" d="M322.6,265.05a6.29,6.29,0,0,0-4,3.19c1.34,1,4,1.24,5.53,1.84-.49-1.19-1.36-2.93-.92-4.14" transform="translate(-63.85 -133.89)"/><path class="cls-31" d="M322.21,263.61a8,8,0,0,0-4.89,3.87,1.52,1.52,0,0,0,.54,2c1.75,1.16,3.95,1.28,5.88,2,1,.37,2.28-.82,1.85-1.85s-1.22-2.29-.93-3.34a1.5,1.5,0,0,0-2.89-.8c-.49,1.74.27,3.37.93,4.94l1.84-1.85c-1.68-.62-3.65-.69-5.17-1.69l.54,2.05A5,5,0,0,1,323,266.5a1.5,1.5,0,0,0-.79-2.89Z" transform="translate(-63.85 -133.89)"/><path class="cls-31" d="M336.91,266.55c.56,1.67-1.16,3.37-1.82,5,1.26-.2,4.19-.23,5.45-.43a7.33,7.33,0,0,0,.73-.19,1.79,1.79,0,0,0,.69-.7c.12-.2,1.55-1.42,1.55-1.65,0-.56-1.82,0-2.32-.23-.94-.45-2.05-.58-2.82-1.28" transform="translate(-63.85 -133.89)"/><path class="cls-31" d="M335.47,266.94c.26,1.25-1.19,2.78-1.68,3.86a1.52,1.52,0,0,0,1.69,2.2c1.71-.23,3.46-.11,5.17-.38,1.52-.25,2.28-1.21,3.31-2.25s1.66-2.51.08-3.31a4.46,4.46,0,0,0-2-.16,5.52,5.52,0,0,1-2.9-1.11c-1.55-1.15-3.05,1.46-1.51,2.59a9.25,9.25,0,0,0,3.29,1.45,3.82,3.82,0,0,0,1.12.07c.34,0,1.34.14.67-.17l-.68-.89.06.14.15-1.15a4.29,4.29,0,0,1-2.31,1.88c-1.73.24-3.49.16-5.22.4l1.69,2.21c.95-2.09,2.5-3.73,2-6.17-.41-1.89-3.3-1.09-2.89.79Z" transform="translate(-63.85 -133.89)"/></g><g id="Layer_1" data-name="Layer 1"><g class="cls-30"><path d="M321.76,251.4c2.43-1.65,4.88-1.58,7.64-2.21s5.27-2,8-2.8c7.29-2.14,13.19,1.8,18.84,5.93,1.56,1.14,3-1.46,1.51-2.59-5.18-3.79-11.11-7.83-17.87-7-4,.5-7.41,2.67-11.27,3.55-3,.68-5.76.75-8.36,2.51-1.59,1.08-.09,3.68,1.52,2.59Z" transform="translate(-63.85 -133.89)"/><path d="M324.07,255a51,51,0,0,1,17.64-5.47c6.1-.63,11.27,1.75,16.8,4,1.79.72,2.56-2.18.79-2.9-6-2.4-11.44-4.76-18-4.06a54.31,54.31,0,0,0-18.75,5.86c-1.73.87-.21,3.46,1.51,2.59Z" transform="translate(-63.85 -133.89)"/><path d="M323.86,253.19c-.21-2.85,2.66-2.31,4.91-2.34l-.4-2.94-4.65,1,.79,2.89c5.15-1.38,14.42-5.72,19.55-3.19,1.73.84,3.25-1.74,1.52-2.59-6.54-3.22-15.39,1.15-21.86,2.89-1.88.5-1.09,3.3.79,2.89l4.66-1c1.67-.37,1.28-3-.4-3-1.92,0-5.65-.75-7.32.68-1.44,1.23-.7,3.07-.59,4.66.15,1.92,3.15,1.93,3,0Z" transform="translate(-63.85 -133.89)"/></g><g class="cls-30"><path d="M240,242.72c13-8.58,27.8-1,39.73,5.67a1.5,1.5,0,0,0,1.51-2.59c-12.89-7.21-28.79-14.89-42.75-5.67-1.61,1.06-.1,3.66,1.51,2.59Z" transform="translate(-63.85 -133.89)"/><path d="M245.6,239.84c7.61-.51,16.55,3.59,23.43,6.49,3.07,1.3,9.15,6.08,12.08,2.34,1.18-1.5-.93-3.64-2.12-2.12-1.06,1.35-14.95-5.4-16.76-6-5.24-1.81-11-4.06-16.63-3.69-1.92.13-1.94,3.13,0,3Z" transform="translate(-63.85 -133.89)"/><path d="M279.82,245.78c-3.87,0-6.45-2.84-9.48-4.82-2.5-1.65-5.63-1.67-8-3.3-1.6-1.09-3.1,1.5-1.52,2.59a12.23,12.23,0,0,0,4,1.51,17.11,17.11,0,0,1,5.86,3.09c2.84,2.1,5.54,3.91,9.18,3.93a1.5,1.5,0,0,0,0-3Z" transform="translate(-63.85 -133.89)"/></g><g class="cls-30"><path d="M277,297.74c-5.39-3.09-9.59,4.07-7.9,8.89,1.22,3.5,4.94,2.86,7.94,2.64a13.18,13.18,0,0,1,9.19,2.19,11.14,11.14,0,0,0,4.43,2.11,15.81,15.81,0,0,0,6.29-.75c.93-.24,1.84-.55,2.78-.73,3.36-.65,4.41.38,7.13,1.75,2,1,4.14.23,5.75-1.12,5.87-4.93,1.64-12.69-4.63-14.39a1.13,1.13,0,0,0-.6,2.17c5.06,1.37,8.52,9,2.15,10.61-2.58.63-2.25-.36-4.46-1.14-3.15-1.11-6.4.18-9.47.87a10,10,0,0,1-8.81-1.76,11.19,11.19,0,0,0-4.9-2.11,21.85,21.85,0,0,0-4.85,0c-2.39.18-2.66.61-4.51-1.15-1.35-.54-1.78-1.4-1.29-2.59q-.06-3.43,4.63-3.6a1.12,1.12,0,0,0,1.13-1.94Z" transform="translate(-63.85 -133.89)"/></g><g class="cls-30"><path d="M256.88,328.23c7.51,2.87,12.49,8.83,18.65,13.66,4.3,3.37,9.1,4,14.4,4.39,5.75.41,11.12.2,16.3-2.53a72,72,0,0,0,8.64-5.38c3.06-2.22,5.53-5.27,8.94-7,.78-.39.22-1.56-.58-1.37-4,1-7.69,1.6-11.76.63-2.9-.68-5.61-2-8.42-2.9a19.14,19.14,0,0,0-7.11-1.42c-1.47.09-2.65,1.33-3.84,1.46-1.76.18-4.29-1.72-6.09-2.1a43.07,43.07,0,0,0-8.72-.39c-6.82,0-13.62.37-20.41.95a.75.75,0,0,0,0,1.5c11,.67,20.69,6.5,31.49,8.13a64.52,64.52,0,0,0,28.75-2.4c.92-.28.53-1.73-.39-1.44a62.37,62.37,0,0,1-33.24,1.36c-9-2.2-17.25-6.58-26.61-7.15v1.5c6.79-.58,13.59-.92,20.41-.95,3.16,0,6.81-.31,9.85.71,2.08.69,3,2.11,5.06,2,.18,0,.27-.18.43-.21,3.26-.56,4.11-1.78,7.7-.83,2.88.75,5.59,2,8.42,2.95,5.17,1.67,9.67,1.29,14.88,0l-.58-1.37a25.37,25.37,0,0,0-5.68,4.28A59.69,59.69,0,0,1,308,341c-6.34,3.77-12.5,4.31-19.73,3.64-3.51-.33-6.93-.74-10-2.61s-5.64-4.72-8.32-7.08a42,42,0,0,0-12.65-8.16c-.9-.35-1.29,1.1-.4,1.44Z" transform="translate(-63.85 -133.89)"/></g><path class="cls-32" d="M222.69,397.67q20.12,25.63,40.22,51.25c6.08,7.74,12.21,15.46,18.87,22.71,3.17,3.44,6.49,6.71,9.86,9.94,3.93,3.76,8,7.75,8.39,13.5.09,1.57,2.69,2.16,3,.39,1.35-9.51,8.78-16.27,14.38-23.56A224.2,224.2,0,0,0,333,448.24c10.38-17.83,19.78-36.26,29.52-54.43.92-1.7-1.67-3.22-2.59-1.52-10,18.71-19.65,37.71-30.43,56A207,207,0,0,1,311.87,474c-5.09,6.24-10.61,12.37-11.79,20.64l2.95.4c-.51-8.45-7.33-13.61-12.92-19.12A272.92,272.92,0,0,1,268.35,451c-14.6-18.42-29-37-43.54-55.47-1.19-1.52-3.3.62-2.12,2.12Z" transform="translate(-63.85 -133.89)"/><path class="cls-32" d="M301,494.16c-7.14,5-12.62,12.93-13.32,21.84s5.58,16.08,14.94,14.69a16,16,0,0,0,13.4-17.24c-1-9.83-10.74-15.5-14.59-24-.79-1.76-3.38-.24-2.59,1.51,4.57,10.09,23.66,23.24,9.24,34.22-3.76,2.86-8.88,3.68-13,1.17s-4.9-7-4.2-11.57a27.55,27.55,0,0,1,11.64-18c1.57-1.11.07-3.71-1.51-2.59Z" transform="translate(-63.85 -133.89)"/><path class="cls-32" d="M300.41,500.27a19.59,19.59,0,0,0-6.12,12.05c-.46,4.32,1.26,6.72,5.57,7.7a7.56,7.56,0,0,0,8.68-4.76,7.81,7.81,0,0,0-.05-5.31c-1.19-3.28-4.81-5.32-4.73-9.05.05-1.93-2.95-1.93-3,0a9.23,9.23,0,0,0,2.07,5.9c.86,1.19,2.06,2.26,2.64,3.64,1.21,2.88.06,5.77-3,6.51-5.12,1.23-5.71-3.14-4.7-6.81a16.74,16.74,0,0,1,4.78-7.75c1.39-1.34-.73-3.46-2.13-2.12Z" transform="translate(-63.85 -133.89)"/><path class="cls-32" d="M293,520.64c1.31,2.81,4.16,4.05,7.1,4.4,3.34.41,5.49-1.4,7.49-3.88,1.2-1.49-.91-3.62-2.12-2.12s-2.48,3.19-4.57,3.1-4.37-1-5.31-3c-.81-1.74-3.4-.22-2.59,1.52Z" transform="translate(-63.85 -133.89)"/></g><g id="Layer_7" data-name="Layer 7"><path d="M260.33,352.46a1.5,1.5,0,0,0,0-3,1.5,1.5,0,0,0,0,3Z" transform="translate(-63.85 -133.89)"/><path d="M325.28,264.61c6.83-1.58,14-1.68,20.4,1.44,1.3.63,2.44-1.31,1.13-1.94-7-3.39-14.68-3.39-22.13-1.67-1.41.32-.81,2.49.6,2.17Z" transform="translate(-63.85 -133.89)"/><path d="M270.15,257.58C263.58,254,255.51,251.51,248,253c-1.42.28-.82,2.45.6,2.17,6.86-1.38,14.43,1,20.42,4.33,1.27.7,2.4-1.24,1.13-1.94Z" transform="translate(-63.85 -133.89)"/><path d="M317.75,270.35c6.35-12.57,23.46-1,33.14,0,1.43.16,1.42-2.09,0-2.25-10.56-1.16-28-13-35.09,1.09-.65,1.29,1.29,2.43,1.95,1.13Z" transform="translate(-63.85 -133.89)"/><path d="M244.68,260.41c5.15.23,9.59-2.72,14.72-3a17.71,17.71,0,0,1,16.33,8.65,1.13,1.13,0,0,0,1.95-1.13,19.47,19.47,0,0,0-13.05-9.36,22.4,22.4,0,0,0-8-.14c-4.09.64-7.74,2.87-11.95,2.68-1.44-.07-1.44,2.18,0,2.25Z" transform="translate(-63.85 -133.89)"/><path d="M260.85,255c-1.29-.11-2.83.93-3.82,1.63a4.38,4.38,0,0,0-1.77,3.74c-.18,4.06,5.39,6.14,8.74,5.66s5.88-5.15,3.69-8c-1.26-1.65-3.9-2.48-5.85-2.89a4.91,4.91,0,0,0-4.41,1,1.12,1.12,0,0,0,1.59,1.59c1.26-1.26,4.51.14,5.79.82,1.63.86,1.63,2.74.63,4.1s-2.25,1.42-3.73,1.14c-2-.37-5.56-2.4-3.85-4.94a5.39,5.39,0,0,1,3-1.57c1.44.13,1.43-2.12,0-2.25Z" transform="translate(-63.85 -133.89)"/><path d="M334.64,265.43a5.23,5.23,0,0,1-.25,3.67c-.71,1.76-1.85,2-3.73,2s-4.26-.76-4.93-2.74c-.87-2.53,1.55-3.46,3.55-3.77,1.43-.22.82-2.39-.6-2.17-2.81.44-5.4,1.83-5.36,5.05,0,2.83,2.39,4.95,5,5.59,2.28.57,5.7.56,7.25-1.48a7.74,7.74,0,0,0,1.25-6.78c-.49-1.35-2.66-.76-2.17.6Z" transform="translate(-63.85 -133.89)"/><g class="cls-8"><path d="M330,273.71c7.72,0,7.74-12,0-12s-7.73,12,0,12Z" transform="translate(-63.85 -133.89)"/></g><g class="cls-8"><path d="M261.62,266.43c7.72,0,7.73-12,0-12s-7.73,12,0,12Z" transform="translate(-63.85 -133.89)"/></g><path d="M330.37,270.77c3.86,0,3.86-6,0-6s-3.87,6,0,6Z" transform="translate(-63.85 -133.89)"/><path d="M261.75,263.4c3.86,0,3.87-6,0-6s-3.86,6,0,6Z" transform="translate(-63.85 -133.89)"/><path class="cls-27" d="M329.52,267.38a1,1,0,0,0,0-1.95,1,1,0,0,0,0,1.95Z" transform="translate(-63.85 -133.89)"/><path class="cls-27" d="M260.76,259.89a1,1,0,0,0,0-1.95,1,1,0,0,0,0,1.95Z" transform="translate(-63.85 -133.89)"/></g></svg>