<svg xmlns="http://www.w3.org/2000/svg" viewBox="0 0 424.65 249.23"><defs><style>.cls-1,.cls-12{fill:#fff;}.cls-1,.cls-9{stroke:#000;}.cls-1,.cls-10,.cls-11,.cls-12,.cls-9{stroke-miterlimit:10;stroke-width:3px;}.cls-2{opacity:0.21;}.cls-3{fill:#f8ad97;}.cls-4{opacity:0.61;}.cls-5{fill:#ed1a2f;}.cls-6{fill:#3cc4d2;}.cls-7{fill:#430900;}.cls-8{fill:#8a4900;}.cls-10,.cls-9{fill:none;}.cls-10,.cls-11,.cls-12{stroke:#1d1d1b;stroke-linecap:round;}</style></defs><title>miss macaroon</title><g id="Layer_5" data-name="Layer 5"><path class="cls-1" d="M9.14,1.5H414.88a7.71,7.71,0,0,1,7.71,7.71V240a7.77,7.77,0,0,1-7.77,7.77H9.28a7.78,7.78,0,0,1-7.78-7.78V9.14A7.64,7.64,0,0,1,9.14,1.5Z"/></g><g id="Layer_3" data-name="Layer 3"><g class="cls-2"><path class="cls-3" d="M246.84,258.86c-1.8,2.59-3.54,5.2-5.23,7.86a19.12,19.12,0,0,0-1.67,3,21.1,21.1,0,0,0-1.23,6.75l-2.08,29.31a21.29,21.29,0,0,0,.38,7.64c.79,2.6,2.54,4.78,4.24,6.89,1.31,1.61,3,3.39,5,3.2s3.33-2.13,4.32-3.9a11.08,11.08,0,0,0,1.63-4.17c.14-1.36-.21-2.73-.2-4.1a16,16,0,0,1,.82-4.26l4.89-17-10.1-2.72a1.36,1.36,0,0,1-.68-.33,1.43,1.43,0,0,1-.23-.92l0-7.62a1.18,1.18,0,0,1,.16-.74c.21-.3.64-.33,1-.38,2.38-.33,4.08-2.45,5.29-4.53s2.3-4.39,4.34-5.67c.79-.49,1.83-1.06,1.7-2a1.33,1.33,0,0,0-.45-.78c-1.26-1.18-3.33-.36-4.68.71s-2.79,2.45-4.5,2.25a1.62,1.62,0,0,0,1.06-1.62,1.6,1.6,0,0,0-1.31-1.42c-.49-.09-1.06.05-1.45-.26s-.27-1.31.22-1.77,1.16-.76,1.54-1.32a1.74,1.74,0,1,0-3-1.76" transform="translate(-70.86 -159.61)"/><path class="cls-3" d="M246.41,258.61a84.7,84.7,0,0,0-6.54,10.08c-1.58,3.15-1.59,6.78-1.83,10.23l-1.81,25.39c-.24,3.36-.64,6.85.59,10.07a22.85,22.85,0,0,0,5.51,7.87c4.46,4.17,8.39-.51,10-4.94.68-1.9.29-3.61.27-5.56,0-2.52.91-5,1.59-7.37l4.08-14.14a.52.52,0,0,0-.35-.62c-2.73-.73-5.59-1.31-8.26-2.22-.69-.24-2-.54-2.38-1.26a9,9,0,0,1,0-2.38,19.86,19.86,0,0,1,0-4.29c.4-1.68,1.34-1.54,2.57-2.21a7.63,7.63,0,0,0,2-1.64,35.3,35.3,0,0,0,3.25-5,10.61,10.61,0,0,1,2.69-3,6.14,6.14,0,0,0,1.53-1.15,1.71,1.71,0,0,0,0-2.22c-2.65-3.28-7.13,2.63-9.68,2.64l.25.93c1-.65,1.76-1.81,1-3-.51-.8-.89-.41-1.43-1-1.24-1.27.59-2.14.9-3.11.86-2.73-2.57-3.74-4.08-1.75-.39.51.48,1,.86.51,0,0,1.21,2,1.2,2,.07-.27-.71.65-.77.73a1.85,1.85,0,0,0-.39,1.43,1.47,1.47,0,0,0,.41.74c.29.27,4.2,1,1.8,2.51a.51.51,0,0,0,.25.94,6.37,6.37,0,0,0,4-1.68,13.11,13.11,0,0,1,1.61-1.19c1.14-.64,1.29-.84,2,.42s.52.94-.49,1.73a8.42,8.42,0,0,0-.64.55,20.2,20.2,0,0,0-3.12,4.57,13.56,13.56,0,0,1-2.06,2.87c-1.17,1.19-2.34,1.19-3.68,1.84-1.07.53-1,1.35-1,2.46,0,1.43,0,2.86,0,4.29a11.11,11.11,0,0,0,.06,2.94c.41,1.29,1.9,1.35,3.06,1.66l8.27,2.23-.35-.62-3.81,13.2a64,64,0,0,0-1.72,6.31,19.5,19.5,0,0,0,0,4.32,11.27,11.27,0,0,1-2.26,6.74c-2,2.94-4.55,3-6.94.49-3-3.15-5.44-6.92-5.55-11.39-.1-4.2.48-8.47.77-12.65l.94-13.19c.3-4.25,0-9.09,1.43-13.15s4.68-8,7.15-11.53c.37-.53-.5-1-.86-.51Z" transform="translate(-70.86 -159.61)"/></g><g class="cls-2"><path class="cls-3" d="M293.72,254.42c-1.2,2.61.28,5.59,1.67,8.11a155.33,155.33,0,0,1,10,22.16,40.22,40.22,0,0,1,2,6.95,70.21,70.21,0,0,1,.56,8.7c.15,3.16.54,6.3.92,9.43.55,4.5,1.28,9.37,4.5,12.57a5.61,5.61,0,0,0,3.48,1.79,5.14,5.14,0,0,0,4.17-2.19,15.47,15.47,0,0,0,2.08-4.4l2.21-6.36c.61-1.75,1.23-3.62.8-5.43-.19-.84-.6-1.61-.81-2.45a10.5,10.5,0,0,1,0-3.79l1.6-12.94c.1-.74.09-1.67-.58-2a1.86,1.86,0,0,0-1-.1,20.84,20.84,0,0,1-6.9-.68,2.26,2.26,0,0,1-1-.47,2.23,2.23,0,0,1-.49-1.45,21.71,21.71,0,0,1,2.78-12.21A9.23,9.23,0,0,0,321,266.9c.15-.83,0-1.69.1-2.53.26-3,2.81-5.11,4.53-7.55.28-.4.54-1,.21-1.35a1,1,0,0,0-.81-.26,8.12,8.12,0,0,0-6.42,3.69,24.09,24.09,0,0,0-3,7,99.28,99.28,0,0,0-9.23-12,18.18,18.18,0,0,1-1.94-2.27c-1.45-2.23-1.74-5.34-4-6.8a8.38,8.38,0,0,0-.93,5,1.59,1.59,0,0,0-2.46,1.54c.46-1.36-.67-.75-1-1.12a27.57,27.57,0,0,0,5.29,15.19c-.39.83-1.66.56-2.36,0-3.1-2.68-2-8.24-5-11" transform="translate(-70.86 -159.61)"/><path class="cls-3" d="M293.24,254.29c-.81,2.2-.32,4.26.62,6.34,1.47,3.29,3.39,6.39,5,9.64,3.12,6.49,6.49,13.51,7.93,20.61.76,3.73.55,7.58.83,11.35.24,3.32.63,6.66,1.12,9.95.65,4.28,2.23,11.07,7.25,12.31,5.45,1.34,7.31-5.86,8.59-9.54.91-2.63,2.43-5.58,2.2-8.42-.15-1.8-1.1-3.25-1.1-5.11a55.31,55.31,0,0,1,.75-6.53l.58-4.62c.18-1.45.8-3.41.45-4.85-.38-1.6-1.55-1.43-2.92-1.41-1.68,0-4.44.21-5.9-.7-1.62-1-1.23-3.23-1.09-4.82a21.4,21.4,0,0,1,1.29-5.64c.66-1.74,1.82-3.24,2.46-5,.58-1.56.14-3.23.67-4.79.61-1.82,2-3.25,3.18-4.72.78-1,2.35-2.77.54-3.59-2-.9-5.11,1.29-6.36,2.58-2.23,2.3-3.23,5.45-4.17,8.44l.92-.12a104.73,104.73,0,0,0-9-11.75,19.72,19.72,0,0,1-3.81-6.06,8.19,8.19,0,0,0-2.5-3.41.51.51,0,0,0-.69.18,9.93,9.93,0,0,0-1,5.26l.75-.43a2.11,2.11,0,0,0-3.21,2c0,.54.86.71,1,.14.3-1.42-.27-1.18-1.24-1.69a.5.5,0,0,0-.75.43A29.83,29.83,0,0,0,297,258a30.33,30.33,0,0,0,1.33,3.3,38.29,38.29,0,0,1,2.14,3.73c-.3.59-1.95-.91-2.13-1.22a9.66,9.66,0,0,1-.88-2.13c-.28-.91-.45-1.85-.68-2.77a10.18,10.18,0,0,0-2.36-4.85c-.45-.46-1.16.25-.71.71,2.45,2.54,2,6.32,3.62,9.28.8,1.45,2.88,3.53,4.42,1.78a.52.52,0,0,0,.08-.61,28.12,28.12,0,0,1-5.22-14.94l-.75.43c.32.17.87.12.78.56l1,.13,1.71-1.11a.5.5,0,0,0,.75-.43,9,9,0,0,1,.86-4.76l-.68.18c1.79,1.38,2.2,3.53,3.15,5.45a16.37,16.37,0,0,0,3,3.87,101.14,101.14,0,0,1,8.84,11.55.51.51,0,0,0,.92-.12c.88-2.82,1.78-5.85,3.91-8,.68-.69,3.82-3.17,5.07-2.35,1,.64-1.6,3.08-2.11,3.73a9.86,9.86,0,0,0-2.3,4.8c-.19,1.49,0,2.69-.76,4.17-.56,1.15-1.25,2.21-1.75,3.39a22.39,22.39,0,0,0-1.64,6.69c-.12,1.4-.52,3.94.57,5.13s3.08,1.09,4.38,1.24c1.07.13,2.92-.24,3.91.11,1.84.64.88,3,.71,4.37l-1,8.32a23.29,23.29,0,0,0-.39,4.71,32,32,0,0,0,1,3.51c.64,3.08-1.39,6.87-2.38,9.71-1.06,3.06-2.6,9-7.05,7.93-5.92-1.38-6.5-10.93-7.06-15.63-.66-5.57-.32-11.33-1.35-16.83-1.12-6-3.85-11.92-6.34-17.47q-2-4.48-4.31-8.84c-1.62-3.08-4.27-6.57-2.95-10.19.22-.61-.74-.87-1-.27Z" transform="translate(-70.86 -159.61)"/></g><g class="cls-4"><path class="cls-3" d="M328.87,318.65l18.11.17a.34.34,0,0,1,.15,0c.2.09.07.38-.07.54l-6.22,6.91c-.83.92-1.86,1.92-3.09,1.77s-2-1.31-2.84-2.17c-1.19-1.19-2.79-1.89-4.1-3s-2.35-2.81-1.8-4.41" transform="translate(-70.86 -159.61)"/><path class="cls-3" d="M328.87,319.15l10,.09,4.77.05a10.45,10.45,0,0,1,2.38,0c.26.58-.88,1.45-1.19,1.79-1.82,2-5.55,7.89-8.72,5.35-.92-.73-1.62-1.61-2.61-2.29-1.9-1.29-4.61-2.63-4-5.5.13-.63-.83-.9-1-.27-.45,2.19.66,3.91,2.37,5.22a44,44,0,0,1,4.51,3.55,4.11,4.11,0,0,0,2.2,1.39c2.34.35,4.16-2.55,5.45-4s2.5-2.76,3.73-4.14c.49-.55,1.1-1,.83-1.72a.51.51,0,0,0-.35-.35c-2.68-.43-5.68-.09-8.39-.12l-10-.09a.5.5,0,0,0,0,1Z" transform="translate(-70.86 -159.61)"/></g><g class="cls-4"><path class="cls-3" d="M220.54,261.39l3.82.76a24.33,24.33,0,0,0,4.24.6c3,.08,6-.93,8.94-.71.48,0,1.1.26,1,.74a.94.94,0,0,1-.46.58,42.73,42.73,0,0,1-3.78,2.44,6.77,6.77,0,0,0-3,2.51,8.26,8.26,0,0,1-.64,1.38,2.09,2.09,0,0,1-3.1,0,9,9,0,0,1-.84-1.36c-.88-1.38-2.46-2.08-3.84-2.95s-2.71-2.23-2.56-3.85" transform="translate(-70.86 -159.61)"/><path class="cls-3" d="M220.41,261.87c3.28.66,6.61,1.59,10,1.31,1.68-.13,3.7-.89,5.35-.65q1-.43,1.14.45c.45.48.28.8-.5,1a13.25,13.25,0,0,1-2.31,1.42,10.94,10.94,0,0,0-2.73,2c-.21.22-.29.55-.48.77l-1.68,1.71a3,3,0,0,1-2-1.79c-1.86-2-6.24-3.6-6.33-6.54a.5.5,0,0,0-1,0,4.9,4.9,0,0,0,2.18,3.85c.76.59,1.64,1,2.44,1.53,1.39.91,1.67,2.07,2.76,3.13a2.68,2.68,0,0,0,3,.56c.67-.33.82-.78,1.21-1.36a8.07,8.07,0,0,1,3.1-3c.86-.5,6.89-3.53,3.33-4.63-2.22-.68-5.3.4-7.52.58-3.29.27-6.53-.63-9.73-1.28-.62-.12-.89.84-.26,1Z" transform="translate(-70.86 -159.61)"/></g><g class="cls-4"><path class="cls-5" d="M280.72,334.73a37.17,37.17,0,0,1,.38,4.22c0,.67,0,1.34,0,2a16.41,16.41,0,0,0,.46,2.5l.59,2.51A69.08,69.08,0,0,1,284,355.3c.1,1.14.75,2.37.69,3.51-.06,1.46-.9,2.83-1.13,4.29,1.27,0,2.65-.68,3.91-.82.18,0,.26.64.41.54a1.13,1.13,0,0,0,.34-.84,30.87,30.87,0,0,0,0-8.64,16.39,16.39,0,0,1-.29-1.82c0-.82.11-1.64.15-2.46a39,39,0,0,1,0-4.59c.13-.79.42-1.54.6-2.31a18.27,18.27,0,0,0,.35-3c.06-1,.45-2.56.52-3.55,0-.13-.34.7-.33.58,0-.58.28-4.24.19-4.31-1.9-1.5-2.62-.38-5.36-.53" transform="translate(-70.86 -159.61)"/><path class="cls-5" d="M280.22,334.73c.28,2.22.22,4.45.48,6.65a64.38,64.38,0,0,0,1.46,6.58c.56,2.48.92,5,1.31,7.48.22,1.37.77,2.61.56,4-.19,1.2-.73,2.32-1,3.5a.51.51,0,0,0,.48.64c1.3-.09,3-1.14,4.06-.35a.52.52,0,0,0,.69-.18c.94-1.37.69-3.84.72-5.42,0-2.77-.63-5.43-.47-8.18.07-1.21-.09-2.42,0-3.63a33,33,0,0,1,.82-4.28c.33-1.94.53-3.94.75-5.9.06-.54-.69-.63-.93-.26-.13.19-.21.4-.33.58l.93.26c.08-1.22.68-3.52.08-4.61-.95-1.72-4.41-.71-5.75-.73a.5.5,0,0,0,0,1c1.29,0,4.26-.85,4.87.57.38.86-.13,2.81-.2,3.77,0,.52.68.63.93.25.13-.19.2-.4.33-.58l-.93-.25c-.45,4-1.62,8-1.51,12a44.75,44.75,0,0,0,.16,5.79,25,25,0,0,1,.28,4.66c0,1.17.1,3.45-.58,4.43l.69-.18c-.24-.17-.22-.49-.6-.59-1-.26-3,.74-4,.81l.48.63c.39-1.76,1.33-3.41,1.09-5.25-.31-2.47-.88-5-1.37-7.5s-1.19-5-1.72-7.57-.44-5.46-.78-8.18c-.07-.63-1.07-.64-1,0Z" transform="translate(-70.86 -159.61)"/></g><g class="cls-4"><path class="cls-5" d="M255.7,320.09l-3.92,9.43A219.72,219.72,0,0,0,242.71,354c-2.39,8.45-3.83,17.33-8.26,24.91,19.09.64,37.16-1.9,55.85,2,5.14,1.08,11.23-1.94,16.43-1.19,4.24.6,9.07,1.3,12.63-1.08,1.52-1,3,1.3,4.73,1.18s3.94.7,4.7-.82a6.84,6.84,0,0,0,.42-3.57,89.59,89.59,0,0,0-2.46-15.62,118.4,118.4,0,0,0-9-23.58c-1.55-3.15-3.24-6.42-3.15-9.93,0-1.39.13-2.22.13-2.22,0,2-5.2,3.36-7.09,3.94-11.56,3.54-22.46,3.53-34.37,1.5a34.2,34.2,0,0,1-7.7-2.7c-3.78-1.63-6.74-4.17-9.91-6.79" transform="translate(-70.86 -159.61)"/><path class="cls-5" d="M255.22,320c-4.05,9.74-8.37,19.43-11.64,29.47-3.16,9.75-4.44,20.24-9.56,29.26a.5.5,0,0,0,.43.75c11.71.36,23.41-.45,35.11-.17a118.7,118.7,0,0,1,17.76,1.63,27.25,27.25,0,0,0,6.79.75c2.33-.17,4.62-.73,6.92-1.11,4.83-.78,9.5.87,14.3.15,2-.3,4.18-2,6.08-1.3a17.19,17.19,0,0,0,2,.93,14.74,14.74,0,0,0,2.49.13c3.86.19,4-2.57,3.75-5.89a88.72,88.72,0,0,0-2.76-16.18,114.05,114.05,0,0,0-6.26-17.26c-2.49-5.53-5.95-10.68-5.35-17,.05-.56-.89-.69-1-.14-.47,2.84-8.61,4.18-10.81,4.71a65.77,65.77,0,0,1-16.42,1.73c-5.32-.09-11.15-.39-16.24-2-5.69-1.8-10.21-4.93-14.75-8.69-.49-.41-1.21.3-.71.71,4.55,3.77,9.11,6.88,14.76,8.8s12.66,2.25,18.73,2.2a66.11,66.11,0,0,0,18.06-2.62c2.33-.67,7.85-1.59,8.35-4.56l-1-.13c-.38,4,.62,7.27,2.31,10.82a168.25,168.25,0,0,1,6.82,15.65,95.63,95.63,0,0,1,4.13,15.31,86.46,86.46,0,0,1,1.11,8.64c.08,1,.41,2.75-.07,3.7-.75,1.5-2.55,1.26-3.9,1.11-1.54-.16-2.8-1.33-4.3-1.42a2.57,2.57,0,0,0-1.26.32,16.41,16.41,0,0,1-4.67,1.53c-4.2.4-8.26-1-12.48-.41-2.37.32-4.69.93-7.07,1.18-2.84.31-5.46-.33-8.25-.8a119.16,119.16,0,0,0-15.2-1.44c-12.33-.44-24.66.49-37,.11l.43.76c5-8.84,6.35-19.05,9.38-28.61,3.29-10.37,7.76-20.34,11.93-30.36.24-.6-.72-.86-1-.27Z" transform="translate(-70.86 -159.61)"/></g><g class="cls-4"><path class="cls-5" d="M260.23,247.52A72.4,72.4,0,0,1,255.14,264c1.72-.8,4.16-1.14,4.3.74a5.5,5.5,0,0,1-1.15,3.5,43.57,43.57,0,0,0-4.73,6.26,2.85,2.85,0,0,0-.52,1.31,3,3,0,0,0,.41,1.35c2.07,4.28,4.37,8.53,5.76,13.08a23.17,23.17,0,0,1,.67,11.39c-.55,2.62-2.36,4.76-3.38,7.23a12.12,12.12,0,0,0-.42,8c.41,1.27-2.36,8.81-3,10a68.47,68.47,0,0,0,29,6.57c.43,0-.22-1,1-2.06s1.9-.36,3.54-.25a9.91,9.91,0,0,0,3.63,1.1c.7,0-.83,2.58,0,2.59.68,0,4.11.26,4.86.27,8.5.13,20.23-3.55,20.48-3.72s-2.17-6.2-1.3-7.24a30.43,30.43,0,0,1-3.56-3.47c-1.82-3.19-1.61-5.54-2.1-9.28-.72-5.45-.78-11-1.49-16.42a69.26,69.26,0,0,0-5.56-19.54c-2.6-5.77-6-11.16-8.37-17a6.91,6.91,0,0,1-.2-4.26c.41-1.21,1.71-.37,2.63.52,0-2.39-3.25-3.59-5.29-3.95-2.42-.42-4.9.09-7.33.49a75.94,75.94,0,0,1-21.66.35c.92-1.09,2.48-1.37,3.68-2.16a2.3,2.3,0,0,0,.62-3.51,9.51,9.51,0,0,1-5,1.62" transform="translate(-70.86 -159.61)"/><path class="cls-5" d="M259.75,247.38a76.37,76.37,0,0,1-5,16.39c-.15.34.11.93.57.74,1.82-.77,4.21-1,3.4,2-.43,1.61-2.07,2.92-3.06,4.21-1.26,1.64-3.52,3.84-2.89,6.08.9,3.25,3.17,6.37,4.48,9.5a28.6,28.6,0,0,1,2.59,11.43c-.05,4.06-1.76,6.69-3.4,10.2a13,13,0,0,0-1.17,7.57,11.51,11.51,0,0,1-.66,6.07,32.82,32.82,0,0,1-1.94,5.08.51.51,0,0,0,.18.69,68.93,68.93,0,0,0,20.94,6.12c1.81.23,3.64.4,5.47.47a7.05,7.05,0,0,0,3.37-.22c.12-.06.07-.3.14-.35l0-.16a2.22,2.22,0,0,1,1.74-1.91,4,4,0,0,1,1.06.21,27.44,27.44,0,0,1,3.4,1.09c.72.26.69,0,.81.62.07.33-.3.77-.26,1.14.05.52.06.7.54,1a8.35,8.35,0,0,0,2.6.18c1.16.07,2.33.15,3.5.13a68,68,0,0,0,17.75-3.15c.88-.26,2-.31,2.21-1.31.33-2-2.48-4.77-1.4-6.75a.52.52,0,0,0-.08-.61,23,23,0,0,1-3.18-3c-1.89-2.38-1.91-5.71-2.23-8.58-.78-6.85-.89-13.81-2.11-20.6a70.69,70.69,0,0,0-6.07-18.5c-1.45-3-3-5.88-4.55-8.83-.75-1.48-1.48-3-2.15-4.48a9,9,0,0,1-1.08-3.53c.07-1.39.64-2.48,2-1.27.29.26.9.11.86-.35-.49-4.61-7.12-4.84-10.5-4.38-8.2,1.11-16,1.78-24.28.77l.35.85c1.74-1.65,6.95-2.84,4.38-6.28a.52.52,0,0,0-.69-.18,9.74,9.74,0,0,1-4.72,1.56c-.64.05-.64,1.05,0,1a11.19,11.19,0,0,0,5.23-1.69l-.68-.18c2,2.65-2.87,3.78-4.22,5.07a.5.5,0,0,0,.35.85,77.27,77.27,0,0,0,17.92.16c2.77-.31,5.54-1,8.33-1.13,2.37-.12,7.2.44,7.53,3.58l.85-.35c-4.15-3.7-4,2.49-2.86,5.18,2.95,6.93,7.09,13.27,9.73,20.34a81.34,81.34,0,0,1,4.49,22.85c.25,3.46.6,6.89,1,10.33.26,2.47.46,4.93,1.6,7.18a12.37,12.37,0,0,0,3.6,3.92c.71.55.16-.4.12.4a7.72,7.72,0,0,0,.25,2.19c.22,1,.53,1.94.82,2.9.1.36.37,1.61.55,1.37-.61.79-3.86,1.14-4.78,1.37-5.33,1.36-10.93,2.51-16.46,2.2a15.07,15.07,0,0,1-2.7-.17c-.87-.21-.54.29-.69-.5-.07-.35.34-.8.3-1.18s0-.54-.26-.8-.28-.08-.41-.16a19,19,0,0,0-2.83-.81c-1.54-.53-3.34-1.14-4.69.11-.44.41-.68,1.79-.94,2a9.85,9.85,0,0,1-2.14-.1c-1.11,0-2.23-.11-3.34-.21a67.17,67.17,0,0,1-23-6.27l.18.69c1.51-2.89,3.26-7.06,3.07-10.35a31.39,31.39,0,0,1-.46-3.91,12.15,12.15,0,0,1,.6-3.1c.68-2,2-3.71,2.83-5.62a18.36,18.36,0,0,0,1-10.14,39.29,39.29,0,0,0-3.73-11,55.14,55.14,0,0,1-2.74-5.63c-.89-2.67,1.56-5.13,3.14-7.06,1.24-1.52,3.61-3.93,2.57-6.2-.84-1.86-3.36-1.13-4.78-.54l.57.74a77.35,77.35,0,0,0,5.13-16.63c.12-.63-.85-.9-1-.27Z" transform="translate(-70.86 -159.61)"/></g><g class="cls-4"><path class="cls-5" d="M306.69,251.91a44.25,44.25,0,0,1,1.16-5.49.63.63,0,0,1,.14-.27.58.58,0,0,1,.25-.12,2.3,2.3,0,0,1,2.37.77,4.79,4.79,0,0,1,.56,3.27,43.6,43.6,0,0,0,.35,8.47c-.53-.35-.9-.9-1.4-1.29a11.16,11.16,0,0,1-1.8-2.22c-.63-.8-1-1.9-2-2.12" transform="translate(-70.86 -159.61)"/><path class="cls-5" d="M307.17,252a16.52,16.52,0,0,1,.67-3.67l.22-.91,2.64,1.23c.23.37,0,1.44-.05,1.85a47.55,47.55,0,0,0,.37,8l.85-.35a18.54,18.54,0,0,1-3.3-3.66c-.63-.89-1-1.61-2-2.05-.58-.25-1.09.61-.5.86,1.26.54,1.9,2.13,2.71,3.15a16.22,16.22,0,0,0,2.42,2.41c.28.24.91.12.85-.36a52.11,52.11,0,0,1-.35-8.47c.05-1.47.11-3.16-1.24-4.11-3.71-2.62-3.86,3.87-4.23,5.82-.12.63.85.9,1,.26Z" transform="translate(-70.86 -159.61)"/></g><g class="cls-4"><path class="cls-6" d="M126.84,253.67c-3.73-.41-10.57,3.23-11.51,6.87s1.2,7.95,4.14,10.3c1.17.93,1.11.64,1.6,1.55,1.18,2.19-1.29,5.37-.92,7.84a12.25,12.25,0,0,0,6.28,8.82c1.61.87,4.19-.55,4.82,1.18a4.1,4.1,0,0,1,0,1.91c-1.23,9.73,2.94,19.2,5.47,28.67a88.48,88.48,0,0,1-4.62,58.35c31.51,1.83,63.28-3.53,94.6.41a50.67,50.67,0,0,0-8.17-26.69c-1.69-2.6-3.66-5.14-4.3-8.17-.33-1.59-.27-3.24-.61-4.83-.49-2.23-1.74-4.21-2.63-6.31A40.94,40.94,0,0,1,209.1,327l-7.18-30.35c-.34-1.43-2-3.13-1.62-4.53.85-2.79,3-5,3.33-8,.52-5.12,3.13-9.83,3.61-15,.1-1.08.07-2.39-.84-3A3.18,3.18,0,0,0,204,266l-7.31,1.47a54.13,54.13,0,0,1,3-14.78,34.53,34.53,0,0,1-10.91-5.21c-1.18,2.07-2.38,4.55-1.39,6.71,1.16,2.54,5.07,3.83,4.71,6.61a3.32,3.32,0,0,1-3.47,2.56,7.27,7.27,0,0,1-4.22-1.95,18.78,18.78,0,0,1-5.71-8.35,11,11,0,0,0-1.84-4.11,8.52,8.52,0,0,0-3-1.84l-6.17-2.69c-1.44-.63-3-1.27-4.53-.88s-2.63,1.78-4.11,2.36-3,.32-4.56.44c-3.7.3-6.83,2.7-10.09,4.49-6.68,3.69-13.29,3.8-20.87,3.22" transform="translate(-70.86 -159.61)"/><path class="cls-6" d="M126.84,253.17c-3.3-.21-6.8,1.45-9.29,3.53a7.48,7.48,0,0,0-2.47,8.56,12.67,12.67,0,0,0,2.73,4.69c.6.67,1.34,1.14,2,1.75,1.26,1.21,1.19,2.38.75,4.06s-1,3-.86,4.6a11.87,11.87,0,0,0,2.61,5.86,11.6,11.6,0,0,0,3.9,3.26c2.18,1,4.23-.82,4.61,2.66.12,1.13-.23,2.47-.22,3.63a34.6,34.6,0,0,0,.25,4.07,57,57,0,0,0,1.54,7.76c1.49,5.61,3.49,11.08,4.76,16.75a86.51,86.51,0,0,1,2.06,17.26,88.62,88.62,0,0,1-7.47,37.3.5.5,0,0,0,.43.75c31.53,1.75,63.14-3.45,94.6.41a.5.5,0,0,0,.5-.5,52,52,0,0,0-6.46-24c-2.38-4.26-5.74-7.83-6.27-12.86a18.14,18.14,0,0,0-1.18-5.38c-.88-2.11-2-4.09-2.68-6.29-2.91-9.37-4.65-19.25-6.9-28.79a47.91,47.91,0,0,0-1.56-6.3c-.24-.63-.64-1.19-.93-1.79-.84-1.72,0-3.18.82-4.73,1.9-3.56,2.18-7.2,3.34-11,.7-2.32,1.52-4.61,2-7,.27-1.37.7-3.14.14-4.49a2.49,2.49,0,0,0-2.82-1.5,68.7,68.7,0,0,0-8.13,1.6l.63.48a56.89,56.89,0,0,1,3-14.65.5.5,0,0,0-.35-.61,36.63,36.63,0,0,1-10.79-5.16.52.52,0,0,0-.69.18c-1.44,2.6-2.76,5.61-.71,8.27.84,1.09,2,1.83,2.95,2.86,1.58,1.8.76,4.48-1.95,4.5-1.7,0-3.28-1.26-4.46-2.32a18.08,18.08,0,0,1-4.14-5.55c-.79-1.62-1.08-3.46-1.91-5.05-1.76-3.32-6.53-4.38-9.73-5.76a9.78,9.78,0,0,0-4.46-1.25c-1.62.1-2.6,1.09-3.93,1.89-2,1.21-4.08.78-6.29,1.12a15.22,15.22,0,0,0-4.67,1.65c-3.91,2-7.36,4.41-11.72,5.42-4.52,1-9.19.88-13.78.54-.64-.05-.64.95,0,1,6.53.48,13.12.43,19.2-2.33,3.26-1.47,6.13-3.91,9.58-4.94,3.13-.94,5.93-.07,8.75-2,2.16-1.47,4-1.44,6.38-.43,1.92.8,3.82,1.66,5.72,2.5,2.21,1,3.75,2,4.58,4.39a34.25,34.25,0,0,0,1.6,4.11c1.78,3.49,7.53,10.79,12.05,7.06a3.29,3.29,0,0,0,.33-4.74,38.08,38.08,0,0,0-2.81-2.73c-2.24-2.39-1.11-5.19.29-7.71l-.69.18a37.22,37.22,0,0,0,11,5.26l-.34-.61a57.54,57.54,0,0,0-3,14.91.51.51,0,0,0,.64.48l5.48-1.1c1.64-.33,3.54-1.16,4.43,1.61.28.86-.24,2.19-.42,3.07-.7,3.36-2.08,6.54-2.8,9.89a33,33,0,0,1-.94,4.67c-.5,1.33-1.29,2.52-1.91,3.79-1.17,2.38-.94,3.33.16,5.64,1.55,3.23,2,7.28,2.81,10.77l2.69,11.38c.81,3.44,1.61,6.88,2.44,10.32.9,3.72,2.59,6.83,3.88,10.38,1,2.89.66,6,1.89,8.84s3.33,5.38,4.91,8.1a50.34,50.34,0,0,1,6.58,20.83,7.06,7.06,0,0,1,.13,2.14c-.31.9-.24.55-1.4.55-1.91,0-3.91-.41-5.82-.56-3.88-.31-7.77-.5-11.66-.6-7.81-.21-15.61,0-23.41.23-17.25.6-34.51,1.71-51.77.75l.43.75a89.43,89.43,0,0,0,4.56-59.17c-1.42-5.22-3.28-10.31-4.46-15.59a40.87,40.87,0,0,1-1.1-8.88c0-1.69.86-4.22.11-5.8-.45-1-1.24-1.08-2.2-1.15-1.33-.1-2.17.17-3.4-.55a11.46,11.46,0,0,1-3.36-3.11,8.84,8.84,0,0,1-1.89-6.91c.35-1.58,1.23-3.19,1-4.85-.18-1.5-1-2.09-2.09-3a10.83,10.83,0,0,1-4.17-8.15c.09-4.92,6.83-8.38,11.23-8.11.65,0,.64-1,0-1Z" transform="translate(-70.86 -159.61)"/></g><g class="cls-4"><path class="cls-7" d="M277,191.82c-4.36,1.84-11.51,9.28-12.41,13.93s.82,9.47,1.48,14.16a89.51,89.51,0,0,1,.25,18.3c-.06,1,0,2.14.81,2.58a2.51,2.51,0,0,0,1.71,0c2.65-.64,5.12-.8,7.77-1.44-3.08-2.54-6.81-6.21-8.15-10.45-.63-2-1.81-4.08-2.07-6.17-.39-3.19.15-6.41-.24-9.6a2.24,2.24,0,0,1,0-.93c.22-.75,1.1-1.06,1.87-1.23a63.86,63.86,0,0,1,21.35-1.27,1.64,1.64,0,0,1-2.53-.31c2.72.28,4.09,3.39,4.61,6.06,1.15,5.81.74,12.29-2.88,17-1.17,1.51-2.73,3-2.72,4.92a50.82,50.82,0,0,0,14.46-.64,5.86,5.86,0,0,0,2.65-1c1.26-1,1.52-2.82,1.62-4.44a60.75,60.75,0,0,0-3.28-23.62c-1.2-3.42-2.51-7-5.15-9.51-6.68-6.32-12.66-8.07-21.09-5.27" transform="translate(-70.86 -159.61)"/><path class="cls-7" d="M276.7,191.39c-4.14,1.88-7.7,5.6-10.26,9.29-3.27,4.72-2.8,9.49-1.72,14.93,1.53,7.65,1.2,14.88,1,22.6,0,1.45.16,3,1.86,3.23,1.18.17,2.76-.48,3.9-.68,1.72-.29,3.45-.53,5.16-.92a.5.5,0,0,0,.23-.83c-3.14-2.62-6.21-5.63-7.76-9.49a51.3,51.3,0,0,1-2-5.35c-.7-2.5-.44-5.12-.42-7.67,0-2.38-1-4.42,1.82-5.14a49.37,49.37,0,0,1,7.25-1.19,66.4,66.4,0,0,1,13.52,0l-.25-.93-1.92-.24-.49.84c5.51,1.05,5.21,11,4.48,15.11a16.94,16.94,0,0,1-3.43,7.65c-1.16,1.49-2.23,2.77-2.41,4.71,0,.29.25.48.5.5a53.27,53.27,0,0,0,12.68-.33c2.86-.43,5.45-.9,6.25-4,.92-3.56.48-7.85.15-11.46a60.89,60.89,0,0,0-2.17-11.45,42,42,0,0,0-3.8-9.68,21.66,21.66,0,0,0-6.87-6.7c-5.34-3.53-11.17-3.74-17.16-1.83-.61.19-.35,1.16.27,1,7.29-2.32,13.57-1,19.35,4s7.82,13.88,8.94,21.16a58.75,58.75,0,0,1,.61,12.29c-.15,2.76-1,4.81-3.92,5.42a45.43,45.43,0,0,1-7.08.82c-1.13,0-2.26.06-3.39,0-.46,0-2.61.17-2.9-.15-1-1.13,1.79-3.7,2.42-4.57a17.81,17.81,0,0,0,3.11-8.32c.55-4.43.5-14-5.36-15.14a.51.51,0,0,0-.49.84,2.17,2.17,0,0,0,3.13.39.5.5,0,0,0-.25-.93,66.24,66.24,0,0,0-16,.26c-2,.29-5,.36-6.76,1.48-1.38.87-1,2.18-.89,3.63.15,2.73-.25,5.5.14,8.22a33.22,33.22,0,0,0,2.21,6.62c1.57,4.21,4.76,7.46,8.15,10.3l.22-.84c-1.29.29-2.58.51-3.89.72-.87.14-3,.93-3.88.71a2.5,2.5,0,0,1-1.86-2.58l.12-1.94c.08-1.44.14-2.89.17-4.34a76,76,0,0,0-1.49-16.55c-.59-3-1.28-6.25-.52-9.25a14.82,14.82,0,0,1,2.61-5c2.44-3.32,5.72-6.67,9.52-8.39.58-.26.07-1.13-.51-.86Z" transform="translate(-70.86 -159.61)"/></g><g class="cls-4"><path class="cls-8" d="M150.69,197a40.74,40.74,0,0,0-10,12.62c-1.49,2.94-2.65,6.1-4.67,8.71-1.55,2-3.65,3.79-4.09,6.28a19.61,19.61,0,0,1-.43,3.45c-.45,1.22-1.54,2.08-2.22,3.19-1.37,2.26-.86,5.18-1.61,7.71-1.17,3.95-5.11,5.45-5.33,9.56-.06,1.06,1.54,3.26,2.3,4,1.8,1.78,3.22.7,5.75.77,1,0,2,.3,3,.41,7.89.85,14.08-8.32,22-7.93a11.78,11.78,0,0,0,2.78.06c2.6-.48,4.2-3.59,6.84-3.79,3-.23,5,3.39,7.94,4,1.15.22,2.4,0,3.46.47,1.66.78,2,2.92,2.52,4.7a16.2,16.2,0,0,0,8,10c1.55.81,4,1,4.55-.61a2.61,2.61,0,0,0-1-2.64c-.77-.65-1.71-1.07-2.45-1.74a6.24,6.24,0,0,1-1.67-5.37,15.83,15.83,0,0,1,2.06-5.42,6.72,6.72,0,0,0,1.13-3.26c-.06-3.24-4.75-5.52-3.72-8.58.63-1.9,3.12-2.51,4.15-4.22s.32-3.92-.73-5.61-2.42-3.26-2.77-5.22c-.74-4,3.08-8.48.91-12-.78-1.25-2.19-2-3-3.24-1.34-2.09-.73-5.21-2.56-6.89-1.53-1.41-3.91-1-6-1-6.66.23-13.56-3.53-19.71-1-2,.82-3.64,2.22-5.64,2.92" transform="translate(-70.86 -159.61)"/><path class="cls-8" d="M150.34,196.66A41.78,41.78,0,0,0,141,207.94c-1.21,2.16-2.14,4.46-3.28,6.65a45.23,45.23,0,0,1-4.54,6.35,8.79,8.79,0,0,0-1.88,4.55,9,9,0,0,1-2,4.83,7.87,7.87,0,0,0-1.35,3c-.56,2.44-.25,4.94-1.54,7.2-.9,1.6-2.32,2.81-3.32,4.34-1.86,2.82-1.38,5.32.88,7.75a4.11,4.11,0,0,0,3.23,1.47c.81,0,1.61-.22,2.42-.25a27.44,27.44,0,0,1,3.73.4c8.48.81,14-8.34,22.47-7.89a6.67,6.67,0,0,0,4.75-1.08c2.24-1.56,4-3.63,6.89-2,1.47.84,2.62,2.16,4.19,2.84a7.12,7.12,0,0,0,2,.49c1.15.15,1.79,0,2.79.72a3.69,3.69,0,0,1,1.6,2.46c1.25,4,2.69,7.41,6.07,10.12,1.65,1.32,5.6,3.87,7.47,1.41a2.61,2.61,0,0,0-.22-3.12,7.47,7.47,0,0,0-1.94-1.59,5.74,5.74,0,0,1-2.69-5.09c.07-4.29,4.86-7.69,2.42-11.94-.88-1.51-2.49-2.73-2.89-4.48-.61-2.68,2.38-3.34,3.72-5.06,2.81-3.6-1.37-7.2-2.65-10.36-1.81-4.43,3-9.19.41-13.4-.66-1.08-1.77-1.76-2.55-2.74-1.07-1.33-1.18-2.73-1.55-4.32s-1.06-3.22-2.76-3.95c-2-.84-4.31-.28-6.36-.34-3.22-.11-6.33-1-9.49-1.48a19.74,19.74,0,0,0-6.77-.16c-3,.56-5.22,2.5-8,3.6-.59.23-.33,1.2.27,1,1.78-.71,3.32-1.81,5-2.63a14.57,14.57,0,0,1,8.41-.92c4.48.61,8.64,1.71,13.19,1.57,1.22,0,2.7-.15,3.78.56,1.26.82,1.55,2.38,1.84,3.74a8.14,8.14,0,0,0,1.86,4.32c1.89,2,3.22,3.37,2.59,6.32a54.46,54.46,0,0,0-1.4,5.63,7.44,7.44,0,0,0,.87,4.36c1.06,2.05,3.15,4,3.17,6.43,0,3.6-5.49,4-4.72,7.9a7.64,7.64,0,0,0,1.63,2.93c1.9,2.52,2.68,3.84,1.1,7.05s-3.18,6.5-1.45,9.86a5.45,5.45,0,0,0,1.43,1.77c1.3,1.09,1.7.65,1.5,2.84s-.06,2-1.74,1.33a7.92,7.92,0,0,1-1.45-.74,15.64,15.64,0,0,1-6.58-8.42c-.51-1.53-.67-3.25-1.67-4.58a3.84,3.84,0,0,0-2.76-1.48,15.3,15.3,0,0,1-2.69-.31,10.93,10.93,0,0,1-3-1.89c-2.25-1.69-4.37-2.66-6.94-1-1.78,1.13-3,2.84-5.31,2.94-1.89.08-3.56-.21-5.43.29-3.33.88-6.2,2.92-9.13,4.64a24,24,0,0,1-5.12,2.43c-2.23.67-4.12.33-6.37.1-1.84-.2-3.9.64-5.55-.29a5,5,0,0,1-2.26-6.22c1.56-3.34,4.52-5.05,5.09-9a29.5,29.5,0,0,1,.65-4.59c.44-1.37,1.47-2.31,2.23-3.48,1.43-2.21.71-4.91,2.18-7.18,1.28-2,3.06-3.57,4.28-5.62s2.17-4.46,3.3-6.66a41,41,0,0,1,10-12.52c.49-.41-.22-1.12-.71-.7Z" transform="translate(-70.86 -159.61)"/></g><g class="cls-2"><path class="cls-3" d="M269.6,211.42l-2.11.74a1.38,1.38,0,0,0-.7.44c-.24.39,0,.88.17,1.3.63,1.55.37,3.3.3,5a22.19,22.19,0,0,0,8.59,18.35,1.69,1.69,0,0,1,.88,1.73l0,4.42a2.34,2.34,0,0,0,.32,1.41,2.17,2.17,0,0,0,1.07.64c5.4,1.81,11.35.27,16.6-2,1.41-.6,3-1.52,3.12-3.05a1.19,1.19,0,0,0-.18-.79,1.53,1.53,0,0,0-1.18-.41c-4.12-.19-8.32-.18-12.27-1.39.55,0,.87-.67.91-1.22a4.51,4.51,0,0,1,.18-1.65,3.27,3.27,0,0,1,.89-.93,12.64,12.64,0,0,0,4-7.16,34.73,34.73,0,0,0,.5-8.34c-.06-2.35-.29-5-2.13-6.47a7.65,7.65,0,0,0-4.26-1.24,54.94,54.94,0,0,0-15,1" transform="translate(-70.86 -159.61)"/><path class="cls-3" d="M269.46,210.94c-.84.3-2.59.51-3.1,1.41a2,2,0,0,0-.12,1c.08,1.27.63,2.45.61,3.81,0,3.75,0,7.09,1.41,10.65a22.73,22.73,0,0,0,5.52,8.28,14.6,14.6,0,0,1,2.11,1.78c.5.75.34,2,.35,2.82,0,1.29-.38,3.32.49,4.43,1.62,2.06,6.89,1.68,9.07,1.42,3.49-.42,8.11-1.44,11-3.64,1.28-1,2.44-3,.62-4-1.27-.7-3.9-.27-5.33-.35a35.26,35.26,0,0,1-7.71-1.19l.12.92c1.5-.65,1.44-3,2.37-4.12a17.91,17.91,0,0,0,3.09-4.58c1.61-4,1.72-9.07,1.15-13.32-.48-3.54-2.45-5.43-6-5.85a51.56,51.56,0,0,0-15.91.92c-.63.12-.37,1.08.26,1a56.19,56.19,0,0,1,12.07-1.08c2,0,4.47-.08,6.21.9,2.16,1.21,2.41,3.88,2.5,6.08.15,3.82.17,7.85-1.39,11.41a14,14,0,0,1-3.23,4.31c-.65.65-1.16,3.3-1.63,3.5s-.26.81.12.92a38.34,38.34,0,0,0,8.85,1.26c1.12.06,5.32-.5,3.73,2.15-.71,1.18-3.27,1.79-4.48,2.22a25.39,25.39,0,0,1-9.92,1.76c-1.78-.1-4.46-.23-5-2.32-.38-1.44.14-3.21-.05-4.69-.23-1.8-2.06-2.59-3.26-3.8a21.89,21.89,0,0,1-4.85-7.67,21.55,21.55,0,0,1-1.34-8.34,21.53,21.53,0,0,0,.05-3.5c-.09-.73-.71-2-.19-2.72.28-.37,1.71-.6,2.11-.74.6-.22.34-1.18-.27-1Z" transform="translate(-70.86 -159.61)"/></g><g class="cls-4"><path class="cls-6" d="M179.47,255.82c-5.71-.52-11.63-1-17,.95-4.94,1.8-8.93,5.49-12.77,9.08-5.11,4.78-10.27,9.62-14.08,15.49s-6.67,11.16-5,17.85a117.06,117.06,0,0,0,4.92,15.25c8.1,20.56,4.33,43.62-3.46,64.29l57.51-1.16,7.38-.15c3.19-.06,6.38-.13,9.57-.1A170.65,170.65,0,0,1,227,378.71a103,103,0,0,0-2.82-14.57,38.7,38.7,0,0,0-2.41-6.88c-1.74-3.6-4.36-6.72-6.16-10.29a51.53,51.53,0,0,1-3.4-10l-10.9-41.43c-1.84-7-4.12-14.62-10.18-18.56a2,2,0,0,0,2-1.6,5.75,5.75,0,0,0-.26-2.81l-1.56-5.87a6.83,6.83,0,0,0-1.53-3.27,9.09,9.09,0,0,0-3.2-1.6,14,14,0,0,1-7.18-6.39" transform="translate(-70.86 -159.61)"/><path class="cls-6" d="M179.47,255.32c-5.11-.46-10.41-.92-15.43.43-4.6,1.24-8.44,4.09-11.95,7.2-7.53,6.7-15,13.82-19.73,22.82-2,3.69-3.18,7.7-2.57,11.91.68,4.73,2.46,9.5,4.12,14a90.8,90.8,0,0,1,4.33,13.95,73.69,73.69,0,0,1,1.25,16.51c-.4,12.52-3.56,24.79-7.92,36.48a.5.5,0,0,0,.48.63l48.09-1c15.65-.31,31.26-1,46.83.95a.5.5,0,0,0,.5-.5c-1.13-9.08-2.87-18.36-7.89-26.14a47.4,47.4,0,0,1-6.23-13.2c-1.35-4.85-2.57-9.74-3.85-14.61-2.64-10-5.24-20.07-7.92-30.08-1.83-6.82-4.14-14-10.23-18.16l-.25.93a2.74,2.74,0,0,0,2.62-3c0-2.8-1.34-6.3-2.24-8.94a5.7,5.7,0,0,0-3.75-3.77,14.89,14.89,0,0,1-7.9-6.54c-.31-.56-1.18,0-.86.51a15.2,15.2,0,0,0,7.41,6.59,9.34,9.34,0,0,1,3.05,1.5c1,1,1.27,2.58,1.62,3.88.44,1.63,3.19,8.57,0,8.81a.5.5,0,0,0-.26.93c4.8,3.28,7.13,8.64,8.77,14,1.88,6.16,3.35,12.46,5,18.69l5.33,20.23c1.55,5.91,2.7,12.22,5.62,17.65,1.35,2.52,3.08,4.81,4.53,7.27a37.85,37.85,0,0,1,3.83,9.92c.77,3,1.42,6,1.92,9.07a13.9,13.9,0,0,1,.41,2.69c-.07,1.39.25,1-1.21,1a54.53,54.53,0,0,1-5.83-.58c-13.48-1.1-27-.37-40.55-.1l-46.6.94.49.64c6.91-18.52,10.92-39.23,5.43-58.66-1.16-4.15-2.91-8.09-4.28-12.16-1.58-4.7-3.68-10-2.9-15,.73-4.69,3.53-9.07,6.22-12.88a79.06,79.06,0,0,1,10.47-11.55c4-3.78,8-7.93,13-10.41,5.94-3,12.64-2.45,19-1.87.64.05.64-.95,0-1Z" transform="translate(-70.86 -159.61)"/></g></g><g id="Layer_2" data-name="Layer 2"><path d="M265.54,213.07c1,2.55.79,4.76.72,7.42a18,18,0,0,0,1.11,6.17,30.48,30.48,0,0,0,5.62,9.58c4.61,5.7,13.2-.11,16.27-4.57,2.39-3.46,2.81-7.53,2.77-11.65,0-2.71-.16-7.39-2.72-9.06-3.12-2-8.36-1.64-11.83-1.26-3.86.41-8,.88-11.56,2.58-.58.28-.08,1.14.5.86,3.23-1.55,7.11-2,10.63-2.39a25,25,0,0,1,10.09.48c2.22.66,2.79,1.74,3.33,3.94a22.21,22.21,0,0,1,.55,5.69c0,3.84-.56,7.49-2.87,10.67a14.34,14.34,0,0,1-8.27,5.72c-2.33.49-4.57.22-6.13-1.68-.85-1-1.45-2.28-2.25-3.36a20.7,20.7,0,0,1-4.07-9.23c-.58-3.56.51-6.7-.93-10.18-.24-.59-1.21-.33-1,.27Z" transform="translate(-70.86 -159.61)"/><path d="M276.82,191.34a21,21,0,0,0-10.88,9,19.86,19.86,0,0,0-2.65,7.33c-.27,3.37.89,7,1.22,10.34.68,7.13.69,14.3,1.29,21.43.11,1.33.1,2.61,1.62,2.81,1.26.17,2.84-.48,4.07-.72l5.39-1.05a.5.5,0,0,0,.34-.62l-.43-1.58c-.14-.52-1-.44-1,.14a39.34,39.34,0,0,1,.15,6.14.51.51,0,0,0,.37.48,22.13,22.13,0,0,0,22.72-3.56.52.52,0,0,0,.08-.61c-.94-1.38-1.55-3.16-3.39-3.09-3.64.15-6.69.44-10.26-.7l.3.74a9.08,9.08,0,0,0,.83-3c.07-.64-.93-.63-1,0a6.21,6.21,0,0,1-.69,2.46.52.52,0,0,0,.29.74,22.45,22.45,0,0,0,4.79,1c1.62.15,3.22-.22,4.82-.12l.92-.16a4.05,4.05,0,0,1,2,1.85c0,1-.85,1.31-1.68,1.84a20.22,20.22,0,0,1-4.55,2.17,21.48,21.48,0,0,1-10,.88c-1-.15-3.61-.4-4.28-1.16s-.35-4.74-.47-5.94l-1,.13.43,1.58.35-.62c-2.27.45-4.87,1.36-7.18,1.4l-.9.18-1.73-1.65a8.81,8.81,0,0,1-.18-2.44c-.08-1.29-.16-2.59-.22-3.89-.27-5.36-.43-10.73-1-16.06-.24-2.29-.63-4.54-1-6.82-.44-3.11.61-6,2-8.73a19.8,19.8,0,0,1,10.63-9.23c.59-.23.33-1.2-.27-1Z" transform="translate(-70.86 -159.61)"/><path d="M295,238.77a33.8,33.8,0,0,0,4.69-.6c1.06-.22,3.19-.47,4.08-1.18,1.59-1.28,1.17-4.88,1.26-6.71a64.67,64.67,0,0,0-2.3-20.48c-1.69-6.07-3.78-11.83-9.3-15.35a21.25,21.25,0,0,0-17.23-3,.5.5,0,0,0,.26,1,20.24,20.24,0,0,1,16.47,2.86c5.26,3.39,7.22,9,8.83,14.76a63.78,63.78,0,0,1,2.34,16.19,36.52,36.52,0,0,1-.39,8,2.5,2.5,0,0,1-1.62,2.24,8.9,8.9,0,0,1-1.77.48,31.87,31.87,0,0,1-5.32.76c-.64,0-.65,1,0,1Z" transform="translate(-70.86 -159.61)"/><path d="M299,242a9.2,9.2,0,0,1,3.89,1.26,22.48,22.48,0,0,1,3.47,1.64c1.19.87.62,2,.36,3.26l-.77,3.8c-.13.63.83.9,1,.27a51.35,51.35,0,0,0,1.24-6.09,1.7,1.7,0,0,0-.49-1.68c-1-1-3.29-1.61-4.61-2.23A9.59,9.59,0,0,0,299,241a.5.5,0,0,0,0,1Z" transform="translate(-70.86 -159.61)"/><path d="M307.76,245.76c4.43-.22,3.25,5,3.32,7.82a41.35,41.35,0,0,0,.86,7.27c.12.63,1.09.36,1-.27a40.89,40.89,0,0,1-.83-7.48c0-1.68.36-3.48.07-5.13-.39-2.27-2.18-3.32-4.38-3.21-.64,0-.65,1,0,1Z" transform="translate(-70.86 -159.61)"/><path d="M311.71,247.89c3.91.86,8.91,1.19,12.38,3.32,3.77,2.32,4.48,7.06,4.84,11.1.4,4.44.67,8.91.85,13.37.1,2.28.17,4.55.19,6.82a16.86,16.86,0,0,1,0,2.93c-.31,1.76-.68,1.52-2.47,1.63-.52,0-.72.89-.13,1,1.77.29,3.54-1.4,2.06-3.07-.74-.84-2.16-.78-3.16-.89-2.64-.27-5.29-.52-7.94-.77-.64-.07-.64.93,0,1l5,.48,2,.2,1.49.14q1.41-.11.87,1.95l-.14,1,2.94-.18a.52.52,0,0,0,.5-.5c.09-5.2-.06-10.4-.35-15.59a102,102,0,0,0-1.15-13.3c-.61-3.2-1.94-6.38-4.84-8.14-3.61-2.19-8.58-2.54-12.63-3.43-.63-.14-.89.83-.26,1Z" transform="translate(-70.86 -159.61)"/><path d="M275.6,242.51c-5.54,1-8.16,6.8-13.28,8.65a.5.5,0,0,0,.13,1c5.59.13,11.18,0,16.75-.35,4.66-.31,11.42-2.24,15.45.89.51.39,1.22-.31.71-.7-3.81-3-8.86-1.77-13.29-1.4a186.17,186.17,0,0,1-19.62.56l.14,1c5.1-1.85,7.82-7.68,13.28-8.65.63-.11.36-1.07-.27-1Z" transform="translate(-70.86 -159.61)"/><path d="M300.88,265.21c-4.84-2.56-2.62-9-6.68-11.88a.5.5,0,0,0-.68.18,6.36,6.36,0,0,0-.28,6.09c1.18,3,3.06,5.85,4.54,8.72A96.32,96.32,0,0,1,305.49,287c1.92,7.06,1.88,14.26,2.62,21.48.5,4.79,1.11,11.42,5.15,14.72a6.48,6.48,0,0,0,5.76,1.38c2.53-.75,3.6-3.35,4.58-5.56,2-4.57,5-9.94,2.69-14.91-1.14-2.5-3.09-4.51-4.34-6.94-1.67-3.26-2.45-7.26-3.17-10.82a25.06,25.06,0,0,1-.3-10.45c.69-3.1,2.62-5.73,3.31-8.84.47-2.08.5-4.12,1.6-6,.87-1.52,2.69-2.63,3.43-4.15a1.41,1.41,0,0,0-1.05-2.15c-2.07-.57-4.69,1-6.14,2.33-2.21,2-3.41,4.83-4.48,7.56l.92-.12c-2.7-3.55-5.38-7.12-8.1-10.66-1-1.32-2.3-2.77-4.1-1.83a.51.51,0,0,0-.24.44,7.36,7.36,0,0,0,1,3.26,17.1,17.1,0,0,1,2.67,6.69c.1.63,1.06.36,1-.27a15.73,15.73,0,0,0-1.72-5.29c-.52-.95-2.16-2.67-1.68-3.89s2.74,2.11,3.1,2.58c.8,1,1.6,2.1,2.39,3.16l4.8,6.32a.52.52,0,0,0,.92-.12c1-2.57,2.13-5.24,4.22-7.12a8,8,0,0,1,3.5-1.93c.5-.12,1.92-.35,2,.67,0,.35-1.29,1.39-1.59,1.74-3.28,3.76-3.06,8.59-5.1,13a21.77,21.77,0,0,0-1.77,12.78c.66,4.7,1.7,10.14,4.07,14.3,1.11,1.95,2.62,3.65,3.67,5.64,1.57,3,1.07,5.85-.07,8.9a58.5,58.5,0,0,1-3.4,8c-2.29,4.09-6.84,3.48-9.26-.12-3.13-4.65-3.27-11.42-3.63-16.82a91.17,91.17,0,0,0-1.85-15.45A82.51,82.51,0,0,0,301,272.61c-1.34-2.82-2.78-5.59-4.25-8.34-1.61-3-4.58-6.86-2.4-10.26l-.68.18c2.36,1.69,2.1,5.27,3.11,7.74a7.73,7.73,0,0,0,3.57,4.14c.57.3,1.07-.56.5-.86Z" transform="translate(-70.86 -159.61)"/><path d="M301.47,264.92a23,23,0,0,1-4-7.6c-.51-1.65-2-6.49-.68-7.71s2.34,1.71,2.5,2.69a26.54,26.54,0,0,0,.82,3.74,26,26,0,0,0,3.15,6.65l.79-.61c-2.69-2.84-3.2-8.39-3.82-12.11a13.5,13.5,0,0,1-.47-3.15q-.35-1.44,1.89-1.2l.3.53c1.24,1.33,1.85,4.37,2.46,6.06.22.6,1.19.34,1-.27-.71-2-1.74-6.63-3.72-7.74a2,2,0,0,0-2.8,1.27,6.46,6.46,0,0,0,.11,2.93q.4,2.76,1,5.49c.66,3,1.16,6.57,3.37,8.9a.5.5,0,0,0,.78-.61,24.87,24.87,0,0,1-3.17-6.81c-.51-1.8-.43-3.92-1.19-5.61a2.42,2.42,0,0,0-1.35-1.45,4.07,4.07,0,0,0-2.47.38c-1.4,1.26-.23,5.73.14,7.34a24.33,24.33,0,0,0,4.71,9.59c.4.51,1.1-.2.71-.7Z" transform="translate(-70.86 -159.61)"/><path d="M326.46,303.53a71.28,71.28,0,0,1,1.45-18.37c.13-.63-.83-.89-1-.26a72,72,0,0,0-1.49,18.63c0,.64,1,.64,1,0Z" transform="translate(-70.86 -159.61)"/><path d="M254.67,264.82a71,71,0,0,0,3.83-9.45q.83-2.62,1.45-5.3c.24-1,.23-2.1,1.51-2.5.32-.1,1,.08,1.34,0,2.2-.32,3.53-2.33,5.14-3.64,2.37-1.94,5.65-2.16,8.35-3.48.58-.28.07-1.14-.51-.86-2.58,1.26-5.64,1.49-8,3.2-1.06.76-1.88,1.79-2.88,2.62a4.47,4.47,0,0,1-2.82,1.19,4.94,4.94,0,0,0-1.33,0c-2,.65-2,4.28-2.43,5.84a68.65,68.65,0,0,1-4.5,11.85c-.28.57.58,1.08.86.5Z" transform="translate(-70.86 -159.61)"/><path d="M266.71,248.39V245.3a.5.5,0,0,0-1,0v3.09a.5.5,0,0,0,1,0Z" transform="translate(-70.86 -159.61)"/><path d="M258.51,248.46a21.26,21.26,0,0,1-4.12,2.81c-1.41.91-2.76,1.9-4.11,2.9-1.64,1.22-3.52,2.35-4,4.46-.15.62.81.89,1,.26.62-2.6,4.43-4.55,6.53-6,1.8-1.23,4-2.13,5.47-3.72.44-.47-.27-1.18-.71-.71Z" transform="translate(-70.86 -159.61)"/><path d="M248.2,264.44c.23-2.44,2.69-2.89,3.27-4.86a1.19,1.19,0,0,0-.49-1.45c-1.92-1.46-4.83.12-6,1.67a32.31,32.31,0,0,0-2.36,4.18c-.9,1.59-2.53,2.67-3.21,4.34-.8,1.95-.89,4.42-1.16,6.5-.33,2.46-.56,4.93-.76,7.41-.44,5.31-.81,10.63-1.21,15.95-.35,4.64-1.22,9.57,0,14.15a22.57,22.57,0,0,0,6.39,10.42c.78.75,1.82,1.94,3,2,1.52.1,3.32-1.22,4.33-2.21,3.54-3.43,2.87-9.26,3.73-13.72a151.37,151.37,0,0,1,5-17.94c.19-.62-.77-.88-1-.27-2.4,7.46-4.8,15-5.72,22.78-.26,2.19-.2,4.61-1.3,6.59-1,1.82-3.35,4.19-5.48,3.26-3.37-1.46-5.94-5.76-7.25-9.05-1.48-3.69-1.33-7.4-1-11.29q.47-6.26.94-12.49c.3-3.95.56-7.9,1-11.84.21-2.12.46-4.24.81-6.35a9.81,9.81,0,0,1,2.37-5.61c2-2.16,2.55-6.23,5.3-7.58.81-.4,2.41-.77,2.63.25s-.88,1.49-1.44,2.2a5.19,5.19,0,0,0-1.25,2.94c-.06.64.94.63,1,0Z" transform="translate(-70.86 -159.61)"/><path d="M246.82,279.31A178.58,178.58,0,0,0,252,314a.5.5,0,0,0,1-.27,176.48,176.48,0,0,1-5.18-34.43c0-.64-1-.65-1,0Z" transform="translate(-70.86 -159.61)"/><path d="M247.13,279.08c3.33-.34,5.4-2.91,7.1-5.57.56-.88,1-1.9,1.58-2.74s1.7-1.35,2.51-2.13a7,7,0,0,0,1.48-2.84c.71-2-.09-2.9-2.31-2.89a2,2,0,0,0-1.6.49c-1.92,1.31-3,3-5.46,3.55-.63.13-.36,1.1.27,1,2.24-.48,3.55-1.83,5.24-3.25.73-.62.95-.92,1.79-.67,1.19.35,1.35,1.17.84,2.17a7.87,7.87,0,0,1-1.95,2.39c-.2.19-.49.29-.69.47a9.88,9.88,0,0,0-1.72,2.6c-1.57,2.72-3.64,6.11-7.08,6.46-.63.06-.64,1.06,0,1Z" transform="translate(-70.86 -159.61)"/><path d="M244.22,265.94a6.61,6.61,0,0,0,2.88-.43c.69-.23,3.89-1.89,3.74-.15-.1,1.12-1.57,1.79-2.44,1.94-.43.08-1,.11-1.49.18a20.58,20.58,0,0,0-4.78,1.38.51.51,0,0,0-.12.92,3.83,3.83,0,0,0,2.6.77c.91,0,4.18-1.22,3.64.65-.33,1.15-3.15.71-4.1,1.13s-1.92,2.46-3,2.34v1c1.71-.06,5.18,2.67,1.88,2.93-.6,0-.9-.2-1.53,0s-.34,1.18.27,1c1.42-.53,3.85,1.3,3.83-1.46,0-2.24-2.5-3.54-4.45-3.47a.5.5,0,0,0,0,1,1.84,1.84,0,0,0,1.45-.32c1.31-.9,1.58-2,3.7-2.33,1.42-.25,2.32-.11,2.88-1.56.33-.84.5-1.68-.31-2.18-1.94-1.17-4.37,1.17-6.39-.37l-.11.92a20.44,20.44,0,0,1,4.33-1.32,24.27,24.27,0,0,0,3.64-.39,2.45,2.45,0,0,0,1.47-2.76c-.25-3.93-5.5-.24-7.62-.42-.64-.05-.64.95,0,1Z" transform="translate(-70.86 -159.61)"/><path d="M252.32,276.54a44.07,44.07,0,0,1,6.52,16.93c.5,3.15.86,6.64-.38,9.66-.91,2.21-2.85,3.89-3.49,6.22s.4,4.9.33,7.33a21.68,21.68,0,0,1-2.14,8.23c-1.95,4.36-4.46,8.4-5.5,13.12-.13.63.83.89,1,.26,1.13-5.15,4.07-9.5,6-14.34a20.75,20.75,0,0,0,1.65-7.27,20.16,20.16,0,0,0-.3-3.47,7.65,7.65,0,0,1,1.2-6.07c1.34-2,2.51-3.75,2.9-6.19a25.58,25.58,0,0,0-.37-8.18A44.7,44.7,0,0,0,253.18,276c-.34-.54-1.21,0-.86.51Z" transform="translate(-70.86 -159.61)"/><path d="M247.66,338c-4.95,13.31-7.24,27.51-13.31,40.42-.27.58.59,1.09.87.5,6.1-13,8.43-27.26,13.41-40.66.22-.6-.74-.86-1-.26Z" transform="translate(-70.86 -159.61)"/><path d="M314.65,324.19c-1.07,3.43.6,6.79,2.24,9.75a90.88,90.88,0,0,1,5.91,13.44c3.55,9.76,6.42,19.84,6.3,30.31a.5.5,0,0,0,1,0c.11-9.61-2.26-18.93-5.41-28a105.42,105.42,0,0,0-4.89-12.66c-1.92-3.82-5.61-8.07-4.19-12.61.2-.62-.77-.88-1-.27Z" transform="translate(-70.86 -159.61)"/><path d="M255.45,320.53a60.83,60.83,0,0,0,12.84,8c5,2.09,10,2.14,15.35,2.11,5,0,10.12,1.44,15,.27,5.35-1.27,10.49-3.35,15.76-4.91a.5.5,0,0,0-.27-1c-4.69,1.39-9.28,3.09-14,4.44a19.71,19.71,0,0,1-8.5.62,53.91,53.91,0,0,0-7.07-.45c-5.18,0-10.3.18-15.22-1.74s-9.24-5.06-13.4-8.22c-.52-.39-1,.48-.51.87Z" transform="translate(-70.86 -159.61)"/><path d="M252.93,327.37c2.84.82,4.94,2.92,7.62,4.05,3.09,1.31,6.7,1.48,10,2,3,.44,6,1.08,9,1.31,1.57.12,3-.08,3.89-1.48.35-.54-.52-1-.86-.5-1.41,2.21-6.61.47-8.55.18-2.61-.38-5.23-.75-7.84-1.15a18.53,18.53,0,0,1-7.35-2.37,23.13,23.13,0,0,0-5.65-3,.5.5,0,0,0-.27,1Z" transform="translate(-70.86 -159.61)"/><path d="M282.78,331.66a52.07,52.07,0,0,1,0,5.86c-.1,1.84-1,4.44-.66,6.17.41,2,4.13,2.73,5.83,3.28a.5.5,0,0,0,.61-.35q.57-3.45.95-6.94c.23-2.22.78-4.86.51-7.08-.36-2.85-5-1.71-7-1.71a.5.5,0,0,0,0,1,22.27,22.27,0,0,1,4.32,0c2.31.49,1.59,2.54,1.46,4.38-.26,3.39-.68,6.75-1.22,10.09l.61-.35c-1.12-.36-3.17-.71-4-1.55-1.29-1.33-.81-2.9-.64-4.49a52.28,52.28,0,0,0,.17-8.3c0-.64-1-.65-1,0Z" transform="translate(-70.86 -159.61)"/><path d="M280.38,334.23c-1.09,9.83,5.11,19.26,2.79,29-.08.33.24.75.61.61a10.28,10.28,0,0,1,4.78-.65.51.51,0,0,0,.5-.5q.1-8.13-.46-16.24c-.05-.64-1.05-.64-1,0q.39,5.49.47,11c0,1.07.53,4-.34,4.68a8.46,8.46,0,0,1-1.8.09,10.68,10.68,0,0,0-2.41.68l.61.61c2.35-9.92-3.85-19.38-2.75-29.31.07-.64-.93-.64-1,0Z" transform="translate(-70.86 -159.61)"/><path d="M290.23,335.87h7.87a27,27,0,0,0,7-.45c3.56-1,7.93-2,11-4.09.53-.36,0-1.22-.5-.87-3,2-7.4,3.1-10.81,4-4.5,1.17-10,.42-14.62.42a.5.5,0,0,0,0,1Z" transform="translate(-70.86 -159.61)"/><path d="M327.63,319.62c.43,4.23,4.79,4.76,7.35,7.39,2,2.11,1.92,5.57,1.8,8.32-.15,3.4-1,6.9-4.31,8.49-.42.2-.25.79.12.92a17.6,17.6,0,0,0,12.2-.17.51.51,0,0,0,.12-.92c-3.27-1.7-4.26-4.6-4.47-8.1-.17-2.71-.26-5.79,1-8.28,1.67-3.22,7.72-4.89,6.76-9.37a3,3,0,0,0-2.67-2.38c-2.7-.5-5.93,0-8.68.05s-10.66-.79-9.23,4.18a.5.5,0,0,0,1-.26c-1.06-3.71,6.69-2.9,8.75-2.93,2.31,0,5.19-.56,7.44-.1,5.63,1.15.76,5.47-1.18,7a10.28,10.28,0,0,0-3,3.34c-1.58,3.08-1.43,7.07-1,10.41a9,9,0,0,0,4.84,7.34l.12-.92a16.68,16.68,0,0,1-11.67.17l.11.92c4.89-2.35,5.2-8.65,4.74-13.38a7.74,7.74,0,0,0-2.56-5.49c-2.26-1.92-6.17-2.76-6.52-6.2-.06-.63-1.06-.64-1,0Z" transform="translate(-70.86 -159.61)"/><path d="M221,258.31c-2.74,4-.36,6.79,3,9.28a8,8,0,0,1,3.32,4,19.21,19.21,0,0,1,.36,5.46c0,2.9.35,8.68-3.19,9.77a.5.5,0,0,0,.26,1,16.73,16.73,0,0,1,8.4-.37c.38.08.84-.35.56-.74A17,17,0,0,1,231,272.45c.77-2.79,2.13-5,4.86-6.09,1.22-.5,2.62-.9,3.44-2,1.21-1.64,1.33-5.31-1.05-5.88s-5.71-.16-8.25-.21l-8.56-.19a.5.5,0,0,0,0,1l7.61.17c2.38,0,5.29-.35,7.61.16,1.17-.21,2,.36,2.37,1.73a3.92,3.92,0,0,1-1.28,3.31,11.18,11.18,0,0,1-2.74,1.2,7.16,7.16,0,0,0-2.91,2.15c-4.35,5.45-3.08,14.13.71,19.45l.56-.74a18,18,0,0,0-8.92.37l.26,1c4.95-1.53,4.1-10.11,3.88-14a8,8,0,0,0-2.9-6.2c-2.94-2.47-6.72-4.6-3.82-8.86.36-.53-.51-1-.87-.5Z" transform="translate(-70.86 -159.61)"/><path d="M176.51,194.94c-5.52-.2-10.59-3.07-16.19-2.45a22.67,22.67,0,0,0-12.21,5.74,41,41,0,0,0-9,12.19c-1.19,2.3-2.08,4.85-3.45,7-1.16,1.88-3.36,2.86-4.24,4.92-.77,1.82-.28,3.91-1,5.73-.83,2.07-3.25,2.42-3.4,4.86-.06,1.05.28,2.09.19,3.15a9.77,9.77,0,0,1-1.85,4.46c-1.19,1.8-2.89,3.47-3.46,5.59a6.64,6.64,0,0,0,3.31,7.42c1.52.82,2.92.66,4.58.63,2.61-.07,4.75,1.27,7.33.37,5.08-1.78,9.48-5.43,14.41-7.58,2-.89,3.35-.52,5.38-.31a6.11,6.11,0,0,0,2.41-.09c1.88-.56,3-2.29,4.75-3.12,2.9-1.39,4.11,1.66,6.21,2.86,2.46,1.42,5.73-.67,7.14,2.68.75,1.79.86,3.78,1.65,5.58a15,15,0,0,0,3.8,5.19c1.9,1.67,6.15,4.69,8.62,2.53s-.26-4.82-2-6.14c-2.32-1.79-3.26-3.44-2.19-6.25.67-1.79,1.76-3.39,2.44-5.18a6.63,6.63,0,0,0,.49-3.8c-.55-2.38-3.67-3.39-4-5.69-.26-1.85,1.89-2.44,2.87-3.42a6.73,6.73,0,0,0,1.45-2.26,6.62,6.62,0,0,0,.09-4.74c-.55-1.45-1.68-2.46-2.48-3.74a6.27,6.27,0,0,1-.81-4.74c.41-2.22,1.45-4.3,1.67-6.56a5.64,5.64,0,0,0-1.44-4.59c-.84-.92-2.31-1.68-2.86-2.83-.66-1.41-.26-3-.73-4.48a5.49,5.49,0,0,0-7.74-2.88c-.57.31-.06,1.17.5.86a4.49,4.49,0,0,1,6.27,2.28c.66,1.9,0,3.64,1.27,5.33s3.55,2.58,3.77,5.1c.16,1.88-.66,3.79-1.18,5.56a11.78,11.78,0,0,0-.66,4.63c.22,1.91,1.41,3.17,2.48,4.68a5.87,5.87,0,0,1,.39,6.8c-1,1.51-3.26,1.91-3.81,3.67a3.74,3.74,0,0,0,.81,3.22c1.43,2,3.63,3,3.15,5.8-.52,3-3,5.42-3.4,8.49-.48,3.36,2.06,4.39,4.13,6.39A3.91,3.91,0,0,1,191,259a2.81,2.81,0,0,1-1,3.07c-.87.44-3.18-.82-3.87-1.2a14.12,14.12,0,0,1-5.33-5.16,21.16,21.16,0,0,1-2-5.73,5.76,5.76,0,0,0-1.91-3.44c-1.24-.87-2.56-.56-4-.58-2.7-.05-3.43-2.2-5.52-3.34-2.85-1.57-4.84,1.06-7.06,2.42s-4.38,0-6.78.34c-2,.26-3.85,1.49-5.59,2.43l-6.61,3.55c-2.89,1.56-5.18,3.07-8.59,2.23-1.87-.47-3.65,0-5.5-.34a5.61,5.61,0,0,1-4.52-5.16c-.18-4.22,4.62-7,5.4-11.09.42-2.21-.8-4.21,1.1-6,1.14-1.06,2-1.64,2.34-3.24.61-2.51.08-4.81,2.14-6.79a15.61,15.61,0,0,0,3.89-5.11c2.31-4.91,4.72-9.84,8.29-14s8.3-7.44,13.75-8.3c5.81-.92,11.11,2.15,16.84,2.36.64,0,.64-1,0-1Z" transform="translate(-70.86 -159.61)"/><path d="M127,253.18c-4.82-.66-12.06,2.78-12.53,8.08-.27,3,.82,7.85,3.39,9.81,1.28,1,2.54,0,2.82,2s-1,4.24-1.28,6.21c-.56,3.87,1.91,6.65,4.79,8.88,2.29,1.77,4.67,3.28,7,.8a21.4,21.4,0,0,0,2.77-4.47,45.65,45.65,0,0,1,4.4-6.28,91.55,91.55,0,0,1,9.92-10c4.22-3.75,8.5-8,13.79-10.2,5.63-2.32,11.87-1.9,17.81-1.5.65,0,.64-1,0-1-7.66-.52-15.33-.7-22,3.6-6,3.86-11.63,9.26-16.62,14.38a57.83,57.83,0,0,0-6.61,8c-1,1.45-1.78,3-2.63,4.49a7,7,0,0,1-2.4,3c-1.55.82-2.55,0-3.62-.72a16.56,16.56,0,0,1-4.74-4.47c-1.35-2.19-1-4.2-.39-6.53s1.4-4.71-.29-6.82a.51.51,0,0,0-.61-.08c-2.54,1.75-4.49-6.38-4.55-7.59a6.07,6.07,0,0,1,1.78-5.13c2.29-2.16,6.32-4,9.51-3.55.63.09.9-.88.27-1Z" transform="translate(-70.86 -159.61)"/><path d="M130.92,287.81c-2.82,6.27-1,13.25,1.08,19.47,2.4,7.26,4.87,14.29,6,21.89A88.55,88.55,0,0,1,131.2,378c-.27.58.6,1.09.86.5a89.49,89.49,0,0,0,7.43-45.17,92.45,92.45,0,0,0-4.94-21.78c-2.52-7.16-6.12-15.8-2.76-23.26.26-.58-.6-1.09-.87-.5Z" transform="translate(-70.86 -159.61)"/><path d="M189.12,263.4c.7,1.79,1.52,3.52,2.35,5.26.45,1,4.43,8.37.73,8.23-.61,0-.62.78-.13,1,4.5,1.82,5.71,7.62,7.06,11.77,1.47,4.53,2.84,9.1,4.14,13.68,2.57,9,4.93,18.15,6.72,27.37.12.63,1.09.36,1-.27-2-10.27-4.67-20.43-7.61-30.47-1.38-4.74-2.82-9.48-4.44-14.14-1.25-3.62-2.79-7.38-6.57-8.9l-.13,1c6.55.24-1.34-12.76-2.12-14.75-.23-.6-1.2-.34-1,.26Z" transform="translate(-70.86 -159.61)"/><path d="M187.9,273a28.5,28.5,0,0,0,4.77,19.49c2.18,3.29,4.45,6.36,5.46,10.25a73.57,73.57,0,0,0,3,10.49c2.9,6.83,7.25,13,9.7,20,1.3,3.74,2.14,7.64,3.55,11.34a66.33,66.33,0,0,0,4.86,9.35c4.58,8,6.2,16.58,7.55,25.55.1.63,1.06.36,1-.27-1.08-7.14-2.19-14.37-5.16-21-1.54-3.44-3.66-6.56-5.42-9.88a59.09,59.09,0,0,1-4.16-11.42c-2-7-5.5-13.06-8.8-19.48a47.89,47.89,0,0,1-4.18-10.57c-.81-3.35-1.39-6.58-3.12-9.62-2.15-3.77-5-7-6.57-11.14A26.86,26.86,0,0,1,188.9,273c.08-.64-.93-.63-1,0Z" transform="translate(-70.86 -159.61)"/><path d="M188.08,247.27c3.77,2.43,7.55,4.95,11.95,6l-.35-.62a38.74,38.74,0,0,0-2.36,14.61c0,.3.32.62.63.49a20.26,20.26,0,0,1,4.24-1.26c2-.34,4-.78,4.39,1.66.4,2.82-.42,5.91-1.34,8.54-1.76,5-1.55,10.67-4.68,15.16-.37.53.5,1,.87.5,2-2.89,2.68-6.21,3.34-9.62s2.18-6.88,2.62-10.41c.19-1.52,1.05-5.69-.51-6.78-2.09-1.44-7.24.45-9.19,1.24l.63.48A37.7,37.7,0,0,1,200.65,253a.5.5,0,0,0-.35-.61c-4.32-1.09-8-3.57-11.71-6-.54-.35-1.05.51-.51.86Z" transform="translate(-70.86 -159.61)"/><path d="M188.9,273c-.57-5.79-6.21-8.62-11.36-9.73-6.51-1.39-13.57-.07-19.59,2.57a34,34,0,0,0-14.39,11.66c-4.28,6.24-5.2,13.63-5.63,21-.59,10-.23,20,0,29.93a.5.5,0,0,0,1,0c-.17-9.32-.51-18.66-.06-28,.43-9.11,1.47-18.09,7.72-25.19a35,35,0,0,1,19.08-10.84,27.11,27.11,0,0,1,13.74.36c4,1.3,8.08,3.62,8.53,8.21.06.63,1.06.64,1,0Z" transform="translate(-70.86 -159.61)"/><path d="M158,295.26c1.49,7.83,8.39,13.18,12,20,2.18,4.06,3.85,8.38,6.08,12.42a126.78,126.78,0,0,0,7.89,12c5.62,7.87,11.41,15.65,16.83,23.67,4.12,6.08,8,12.83,14.2,17,.53.36,1-.5.5-.86-6.59-4.43-10.41-11.79-14.85-18.15-5.38-7.7-10.91-15.3-16.36-23a116.44,116.44,0,0,1-7.34-11.19c-2.09-3.79-3.69-7.82-5.68-11.66-3.63-7-10.83-12.56-12.34-20.49-.12-.64-1.08-.37-1,.26Z" transform="translate(-70.86 -159.61)"/><path d="M276.63,274.14c-1.9-.11-3.12.85-4.54,2-.9.73-2.83,1.77-2.17,3.23.75,1.66,4.55,2.09,6,2.43a21.15,21.15,0,0,0,7.83.66c2.21-.34,8.09-2.46,7.08-5.66-.5-1.61-2.48-1.75-3.88-1.87-3.45-.3-6.91-.52-10.36-.78-.64-.05-.64.95,0,1l9.37.71c.57,0,2.21,0,2.59.28l.35,2.9-1.13.84a10.76,10.76,0,0,1-4.79,1.68,23.28,23.28,0,0,1-8.11-1.05,7.84,7.84,0,0,1-2.15-.65,2.6,2.6,0,0,1-.53-2.55c.69-1.31,3-2.24,4.4-2.16.64,0,.64-1,0-1Z" transform="translate(-70.86 -159.61)"/><path d="M270.34,280.91a12.9,12.9,0,0,0,0,3.72.5.5,0,0,0,.35.35,10.44,10.44,0,0,0,2.44.09,25.18,25.18,0,0,1,4.8.87,16.49,16.49,0,0,0,5.9.28,9.75,9.75,0,0,0,4.73-1.65c1.68-1.33,1.58-2.83,1.74-4.76.06-.64-.94-.63-1,0-.16,1.85-.18,3.32-2,4.39a9.22,9.22,0,0,1-2.89.92,15.51,15.51,0,0,1-6.22-.14,28,28,0,0,0-4.12-.89c-1-.06-2.27.41-2.83-.84a7.13,7.13,0,0,1,.13-2.34c0-.64-1-.64-1,0Z" transform="translate(-70.86 -159.61)"/><path d="M269.87,284.91c-.17,1.91.22,3.13,2,4a19.1,19.1,0,0,0,7.41,1.92c3.66.17,10.28-1.36,10.08-6.08,0-.64-1-.64-1,0,.07,1.5-1.32,2.95-2.48,3.6a11.84,11.84,0,0,1-2,.9,12.4,12.4,0,0,1-4.57.58c-2.9-.16-8.75-1.05-8.4-4.91.06-.65-.94-.64-1,0Z" transform="translate(-70.86 -159.61)"/><path d="M248.24,287.79a18.28,18.28,0,0,1,9,2.91c.54.35,1.05-.52.5-.86a19.34,19.34,0,0,0-9.53-3c-.64,0-.64,1,0,1Z" transform="translate(-70.86 -159.61)"/><path class="cls-5" d="M272.55,227.3A3.4,3.4,0,0,1,276.1,226a1.58,1.58,0,0,0,.64.09,1.87,1.87,0,0,0,.65-.35,3.29,3.29,0,0,1,2.73-.25c.91.25,1.75.71,2.64,1-2.42.43-4.95,0-7.37.46a9.6,9.6,0,0,0-2.59.9l1,1.7a4,4,0,0,0,.78,1.08,3.57,3.57,0,0,0,2.12.7,5.49,5.49,0,0,0,2.14-.16c1.8-.58,2.81-2.44,3.64-4.14a14.25,14.25,0,0,1-4.4,2.34,4.83,4.83,0,0,1-4.66-1.05" transform="translate(-70.86 -159.61)"/><path class="cls-5" d="M272.91,227.65c1.24-1.5,2.66-1,4.25-1.24,1-.14,1.66-.76,2.83-.48a19.76,19.76,0,0,1,2.64,1v-1c-3.49.5-6.78-.15-10.08,1.4a.52.52,0,0,0-.18.69c1.44,2.54,2.53,4.14,5.74,3.72,2.48-.32,3.75-2.48,4.77-4.53.21-.42-.24-1-.68-.69-2.41,1.66-5.78,3.78-8.46,1.37-.47-.43-1.18.27-.7.71,3,2.74,6.81.75,9.66-1.22l-.68-.68c-.74,1.5-1.62,3.33-3.34,3.9-2.67.9-4.25-1-5.44-3.09l-.18.69c3.14-1.48,6.51-.83,9.84-1.31.54-.08.39-.81,0-1a14.75,14.75,0,0,0-3.34-1.18,5,5,0,0,0-2.58.55c-.75.24-1.62-.08-2.44.09A4,4,0,0,0,272.2,227c-.41.49.29,1.2.71.7Z" transform="translate(-70.86 -159.61)"/></g><g id="Layer_1" data-name="Layer 1"><line class="cls-9" x1="2.06" y1="220.27" x2="423.15" y2="220.27"/><line class="cls-10" x1="26.3" y1="233.86" x2="397.79" y2="233.86"/><circle class="cls-11" cx="84.56" cy="233.86" r="4.64"/><path class="cls-12" d="M246.87,231.34c-.87,15.69-2.15,87.42-2.44,103.87a1.91,1.91,0,0,0,2.87,1.68l87.63-50.59a2.46,2.46,0,0,0,.06-4.22l-84.92-52.35A2.12,2.12,0,0,0,246.87,231.34Z" transform="translate(-70.86 -159.61)"/><path class="cls-9" d="M9.7,1.5H415.44a7.71,7.71,0,0,1,7.71,7.71V240a7.77,7.77,0,0,1-7.77,7.77H9.84a7.78,7.78,0,0,1-7.78-7.78V9.14A7.64,7.64,0,0,1,9.7,1.5Z"/></g></svg>