<svg xmlns="http://www.w3.org/2000/svg" xmlns:xlink="http://www.w3.org/1999/xlink" viewBox="0 0 432.03 253.76"><defs><style>.cls-1,.cls-4,.cls-5{fill:none;}.cls-2,.cls-7{fill:#fff;}.cls-2,.cls-4{stroke:#000;}.cls-2,.cls-4,.cls-5,.cls-6,.cls-7{stroke-miterlimit:10;stroke-width:3px;}.cls-3{clip-path:url(#clip-path);}.cls-5,.cls-6,.cls-7{stroke:#1d1d1b;stroke-linecap:round;}</style><clipPath id="clip-path" transform="translate(-66.89 -155.08)"><path class="cls-1" d="M80.56,161.11H486.3a7.71,7.71,0,0,1,7.71,7.71V399.57a7.77,7.77,0,0,1-7.77,7.77H80.7a7.78,7.78,0,0,1-7.78-7.78V168.75A7.64,7.64,0,0,1,80.56,161.11Z"/></clipPath></defs><title>miss macaroon 2</title><g id="Layer_5" data-name="Layer 5"><path class="cls-2" d="M13.11,6H418.85a7.71,7.71,0,0,1,7.71,7.71V244.49a7.77,7.77,0,0,1-7.77,7.77H13.25a7.78,7.78,0,0,1-7.78-7.78V13.67A7.64,7.64,0,0,1,13.11,6Z"/></g><g id="Layer_4" data-name="Layer 4"><g class="cls-3"><image width="2164" height="1126" transform="scale(0.2)" xlink:href="Screenshot 2019-01-03 at 13.57.59.png"/></g></g><g id="Layer_1" data-name="Layer 1"><line class="cls-4" x1="6.02" y1="224.8" x2="427.12" y2="224.8"/><line class="cls-5" x1="30.27" y1="238.38" x2="401.76" y2="238.38"/><circle class="cls-6" cx="88.53" cy="238.38" r="4.64"/><path class="cls-7" d="M246.87,231.34c-.87,15.69-2.15,87.42-2.44,103.87a1.91,1.91,0,0,0,2.87,1.68l87.63-50.59a2.46,2.46,0,0,0,.06-4.22l-84.92-52.35A2.12,2.12,0,0,0,246.87,231.34Z" transform="translate(-66.89 -155.08)"/><path class="cls-4" d="M13.67,6H419.41a7.71,7.71,0,0,1,7.71,7.71V244.49a7.77,7.77,0,0,1-7.77,7.77H13.81A7.78,7.78,0,0,1,6,244.48V13.67A7.64,7.64,0,0,1,13.67,6Z"/></g></svg>