<?xml version="1.0" encoding="utf-8"?>
<!-- Generator: Adobe Illustrator 22.1.0, SVG Export Plug-In . SVG Version: 6.00 Build 0)  -->
<svg version="1.1" id="Layer_1" xmlns="http://www.w3.org/2000/svg" xmlns:xlink="http://www.w3.org/1999/xlink" x="0px" y="0px"
	 viewBox="0 0 456.9 521.2" style="enable-background:new 0 0 456.9 521.2;" xml:space="preserve">
<style type="text/css">
	.st0{stroke:#000000;stroke-width:10;stroke-miterlimit:10;}
</style>
<path class="st0" d="M405.7,413.7c5.9-4.6,15.3-18.2,18.4-25c1.9-4.2-5.7-7.6-8.1-3.5c-2,3.4-4.3,11.8-7,14.6
	c-5.5,5.6-13.4,13.3-19.5,18.3c-37.9,31-85.7,47.2-134.7,45.6c-55.4-1.6-108.5-26.6-145.4-67.8c-37.2-41.7-55.6-97.7-50.7-153.3
	C63.4,188,91.3,137.2,133.9,103c32.5-25.9,72.1-41.5,113.5-44.8c15.7-1.2,32.3-1.8,47.9,0.5c6.7,1,13.4,3.9,19.4,6.4
	c5.8,2.4-1.7-1.8,2.5,1.1c1,0.7,2.7-4.5,3.3-5.6c-1.5-0.8-3-1.6-4.5-2.4c-0.6,1.2-2.5,3.5-2.4,4.8c0.2,2.4,5.3,4.3,7.8,5.8
	c6.6,4,12,7.5,18.5,11.6c-2.3-1.5,2.6,2.4,2.9,2.8c2.6,2.9,5.3,5.8,7.8,8.7c5.5,6.3,10,13.2,13.6,20.8c7.3,15.6,10.7,33,11.6,50.1
	c1.7,32.2-7.6,72.9-35,93.3c-6.9,5.1-14.7,8.3-22.4,11.9c-17.4,8.1-34.5,16.8-53,22.3c-17.1,5.1-34.2,8.6-50.1,16.9
	c-13.5,7.1-26.8,17.5-33.2,31.7c-5.3,11.7-6.3,25.6-1.7,37.7c5.1,13.4,16.9,23.5,31.4,25.1c19.5,2.1,30.3-15.1,37.8-30.4
	c7.9-16.2,12.3-33.9,14.2-51.8c4.4-40.7-4.2-81.2-7.1-121.7c-0.9-10.5-1.1-21-0.8-31.5c0.3-7.6,1.3-15.5,4.6-22.5
	c3.1-6.5,12.1-17.4,20.4-12.7c6.5,3.7,8.5,14.4,8.9,21.2c0.8,15.3-6.4,30.1-17.8,40c-13,11.2-31.2,15.3-48.1,14.3
	c-8.5-0.6-16.9-2.6-24.7-6c-4.2-1.9-7.9,4.4-3.7,6.3c30.5,13.4,71.3,8.4,91.4-20.3c8.8-12.5,12.6-28.9,8.7-43.8
	c-1.8-7.2-5.4-15.5-12.6-18.6c-7.9-3.4-16.5,1.1-22.1,6.7c-11.8,11.9-12.4,30-12.3,45.7c0.2,22.2,3.1,44.2,5.6,66.2
	c4.4,39.1,7.7,80.3-7.5,117.7c-3.6,8.8-8.2,17.8-14.2,25.2c-6.6,8.1-15.7,10.8-25.7,7.5c-13.6-4.4-21.4-17.7-21.9-31.5
	c-1.2-35.7,37.7-52.4,66.6-60.1c9.5-2.6,19-4.8,28.3-8.3c9.1-3.4,18-7.4,26.9-11.6c15.6-7.3,32.9-13.3,45.5-25.5
	c16.1-15.5,26.6-41.4,30.1-63.2c3.7-23.6,1-49.4-6.8-72c-3.8-11-9-21.6-16.4-30.6c-7.9-9.6-15.5-16.5-26-23
	c-4.7-2.9-10.9-7.5-16.1-9.7c-3-1.3-6.7,1.2-5,5.1c0.5,1.2,4.2,3.3,5.3,3.5c3.6,0.8,8.2-3.3,3.7-6.3c-14.1-9-31.9-9.8-48.2-9.8
	c-15.5,0-30.9,0.8-46.2,3.4c-28.3,4.9-55.3,15.5-79.4,31c-47.7,30.8-82,80.4-92.7,136.2c-11,57.2,2.5,117.8,37.2,164.7
	c34.2,46.1,85.5,76.3,142.4,83.9c65.6,8.5,132.8-15.1,178.6-62.8c2.9-3,4.9-6.5,7-10.1l-6.6-3.7c-2.9,6.5-7.1,11.4-12.5,15.9
	C396.9,411.5,402,416.6,405.7,413.7L405.7,413.7z"/>
</svg>
