<svg id="Layer_1" data-name="Layer 1" xmlns="http://www.w3.org/2000/svg" viewBox="0 0 519.82 519.82"><defs><style>.cls-1{fill:#fff;}</style></defs><title>logo monocolour</title><path d="M131.88,452.38c18.83-71.12,73.22-127.6,140.15-152.7,60.67-23,131.79-23,175.72-77.4,25.1-29.29,12.55-71.12,10.46-106.69h-6.28c-14.64,35.57-66.94,46-96.22,75.31,27.29-38.53,57.06-82,96.85-110.5A258.81,258.81,0,0,0,290.34,23.55c-143.55,0-259.91,116.37-259.91,259.91a259.41,259.41,0,0,0,97.48,202.9A150.87,150.87,0,0,1,131.88,452.38Z" transform="translate(-30.43 -23.55)"/><path d="M232.29,368.71c4.18-2.09,8.37-6.28,14.64-4.19-2.09-4.18,4.19-6.27,4.19-6.27,43.92-27.2,96.22-23,136-56.48,47-42.42,91.74-85.9,140.67-124.15a260.91,260.91,0,0,0-75.2-97.22c-39.79,28.53-69.56,72-96.85,110.5,29.28-29.29,81.58-39.74,96.22-75.31h6.28c2.09,35.57,14.64,77.4-10.46,106.69-43.93,54.39-115,54.39-175.72,77.4-66.93,25.1-121.32,81.58-140.15,152.7a150.87,150.87,0,0,0-4,34c1.72,1.38,3.46,2.72,5.21,4.06a176.25,176.25,0,0,1,19.68-29.67C177.9,427.28,203,400.08,232.29,368.71Z" transform="translate(-30.43 -23.55)"/><path d="M386.94,293.48C347.19,327,295.6,319.13,251.67,346.32c0,0-16.87,2.5-14.78,6.68-6.27-2.09-12.32,8.14-16.5,10.24-29.29,31.37-42.49,64-67.59,97.51a176.25,176.25,0,0,0-19.68,29.67,258.74,258.74,0,0,0,157.22,53c143.54,0,259.91-116.37,259.91-259.92a258.86,258.86,0,0,0-22.49-105.84C478.83,215.87,418.65,241.28,386.94,293.48Z" transform="translate(-30.43 -23.55)"/><path d="M290.34,23.55a260.74,260.74,0,0,0-53.45,5.52c1.26.23,2.51.47,3.77.76,69,18.83,113.1,100.46,79.49,156.89-26,43.6-42.61,33.35-36.69,92.28,3.46,34.32,23.25,66.7,75.93,37.95,35.56-27.2,63.26-50.74,100.91-75.85,23.08-15.38,57.48-20.56,84.88-8.91C521.37,113.2,416.33,23.55,290.34,23.55Z" transform="translate(-30.43 -23.55)"/><path class="cls-1" d="M404.07,260c-8.43,13.17-20.42,22.75-35.4,29.55l14.55,1.88h0c-3.71-4.35-9.91-4-14.55-1.88-27.13,12.12-53.12,26.43-82.14,33.75-28.76,7.25-57.8,16.27-80.52,36.24-19.87,17.45-29.91,42.76-25.08,69,5,27.14,30.65,49.34,59,45.56,17.54-2.34,28.63-15.69,37.22-30a173.94,173.94,0,0,0,18.06-42.66c8.38-30.14,9.49-62,7.42-93-2.34-35.25-8.34-70.16-10.16-105.45-.45-8.71-.66-17.45-.46-26.17a84.74,84.74,0,0,1,1.88-17.94c1.32-5.75,2.93-10.49,6.25-14.92,2-2.61,7.05-8.11,11.2-7.49,3,.47,5.3,7.59,6.33,11.25A41.18,41.18,0,0,1,319.09,164c-.73,9.87-5.82,21.87-12.81,30-16.87,19.49-45.22,26.24-70.07,21.62a86.67,86.67,0,0,1-18.55-5.44c-5.93-2.61-12.89-1.74-16.42,4.3-3,5.1-1.66,13.8,4.31,16.42,28.63,12.6,61.13,13.39,89.85.55A81.29,81.29,0,0,0,343,164.68c1.12-13.16-1.72-28.74-9.58-39.62-5.45-7.56-13.42-13-23.08-12.63-9.15.31-17.42,4.87-24,11C263.6,144.7,267,182.58,268.88,210.67c4.41,64.9,22,132.74-.61,196.22-4.55,12.8-10.95,27-20.34,37.05-4.54,4.84-9.77,7.25-16.5,6.53a31.86,31.86,0,0,1-8.43-2.3,32.37,32.37,0,0,1-3.34-1.78c-.66-.38-3.75-2.46-2.61-1.58-5-3.83-6.52-5.95-9.26-11.12-.55-1-1.08-2.08-1.53-3.16.78,1.85-.48-1.57-.64-2.08-.41-1.31-.77-2.64-1.08-4-.18-.75-.72-3.69-.63-3.08A47.56,47.56,0,0,1,209,393.24c12.41-22.92,40.27-34.52,64.37-41.68,15-4.45,30.17-7.6,44.83-13.14s28.69-12.15,42.74-18.88c6.59-3.16,13.19-6.3,19.87-9.29l-14.54-1.87h0c3.68,4.33,9.92,4,14.54,1.88a101.54,101.54,0,0,0,44-38.17c3.5-5.46,1.13-13.24-4.3-16.42A12.2,12.2,0,0,0,404.07,260Z" transform="translate(-30.43 -23.55)"/></svg>